<svg xmlns="http://www.w3.org/2000/svg" viewBox="0 0 410.27 483.56"><defs><style>.cls-1{fill:#1d1d1b;}.cls-2{fill:#b2b2b2;}.cls-3{fill:#dedc00;}</style></defs><title>advantages</title><g id="Layer_2" data-name="Layer 2"><path class="cls-1" d="M96.65,398.86V408h5.2v4.71h-5.2v8.67l4.27-2v5.26l-4.27,2.05v22.05H91.88V428.91l-4.83,2.35v-5.32l4.83-2.3v-11H87.05V408h4.83v-9.11Zm15.18,9.48h-8.92v-4.46h8.92v-4h4.46v4H124v-4h4.52v4h8.37v4.46h-8.37v3.35H124v-3.35h-7.68v3.35h-4.46Zm7.68,2.11,18,17H131l-3.47-3.29-7.93-7.49-7.49,7.8-2.85,3h-6.2ZM108.42,432.5h22.86v15.55H108.42Zm4-8.11h15.31v4.46H112.38Zm.25,19.39h14.44v-7.06H112.63Z"/><path class="cls-1" d="M149.68,405.06v-4.65h23.24v4.65h-7.75v4.83h7.25v36.86H150.68V409.89h5.39l.18-4.83Zm6.26,8.92h-1.05v20.44h13.38v-4.83h-7V414h-1.36l-.5,15.61h-4Zm-1.05,28.62h13.38v-4.09H154.89Zm6.38-32.71v-4.83h-1.12l-.12,4.83Zm7,4.09h-3.1v11.71h3.1Zm13.32,27.75h17.34v5H176.51V415.9h15.36v-10H176.45v-5H197V421H181.59Z"/><path class="cls-1" d="M216,412.25H212l-1.49-8.43h4.15Zm12,7.62h-4.15l4.08,10h-4.64l-1.3-3L222,448.61h-4.52l-.12-18.15-2.05,6.07h-4.58l5.58-16.66h-5.08v-4.65h6.25V399.3H222v15.92h6.08Zm-4.71-7.62,1.3-8.43h4l-1.31,8.43Zm24.16,3.53h12.64v4.15H230.72v-4.15h12.64v-2.54H235v-4h8.37v-2.66H232.15v-4h11.21v-3.53h4.15v3.53h11.27v4H247.51v2.66h8.36v4h-8.36Zm-13.44,31.65.86-25.27h21.62v25.27H252.4V440.8H238.46l-.24,6.63Zm4.52-10.9H252.4v-3H238.71Zm13.81-10.22H239l-.12,3H252.4Z"/><path class="cls-1" d="M282.39,403.2v5l-8.24-2.05v-5Zm.19,13.38v5l-8.3-2.23v-5.08ZM275,448l3.47-17.47h5L280,448Zm33-35.31h13.81V446.5H289.15V412.68H303V399.24h5Zm-5,4.65h-9.23v9.47H303Zm-9.23,14.43V442H303V431.76Zm23.35-14.43h-9.16v9.47h9.16ZM307.92,442h9.16V431.76h-9.16Z"/><path class="cls-2" d="M150.77,121.16H259.5a6.41,6.41,0,0,0,6.4-6.4V103.39a6.41,6.41,0,0,0-6.4-6.4H150.77a6.41,6.41,0,0,0-6.4,6.4v11.37a6.41,6.41,0,0,0,6.4,6.4Zm0,0"/><path class="cls-2" d="M238.26,89.23l7.11-40.51H164.9L172,89.23Zm0,0"/><path class="cls-2" d="M224.82,139.17H185.45a61.72,61.72,0,0,0-61.64,61.64V362.45H286.46V200.81a61.71,61.71,0,0,0-61.64-61.64ZM263,344.06H147.3V226.4a15,15,0,0,1,15-15H248a15,15,0,0,1,15,15Zm0,0"/><path class="cls-3" d="M243.31,309.36c-37,0-67.1-33-67.1-73.62a7.82,7.82,0,0,0-15.63,0c0,49.22,37.11,89.26,82.73,89.26a7.82,7.82,0,0,0,0-15.64Zm0,0"/><path class="cls-3" d="M197.49,275.8a9.12,9.12,0,0,0,12.36,3.67l9.17-5a9.12,9.12,0,0,0-8.7-16l-9.16,5a9.11,9.11,0,0,0-3.67,12.36Zm0,0"/><path class="cls-3" d="M179.7,309.28l-9.16,5a9.12,9.12,0,1,0,8.7,16l9.16-5a9.12,9.12,0,1,0-8.7-16Zm0,0"/><path class="cls-3" d="M186.09,252.6a9.13,9.13,0,0,0,12.73-2.09L204.9,242a9.12,9.12,0,0,0-14.82-10.64L184,239.87a9.13,9.13,0,0,0,2.09,12.73Zm0,0"/></g></svg>