<svg xmlns="http://www.w3.org/2000/svg" viewBox="0 0 410.27 483.56"><defs><style>.cls-1{fill:#b5b5b5;}.cls-2{fill:#1d1d1b;}.cls-3{fill:#ebebec;}.cls-4{fill:#ededed;}.cls-5{fill:#92d0ce;}.cls-6{fill:#5c2f1e;}</style></defs><title>advantages</title><g id="Layer_2" data-name="Layer 2"><path class="cls-1" d="M187.05,58.32c-.4-6.32.2-13,3.73-18.29s10.67-8.48,16.46-5.91c5.45,2.43,7.87,8.74,9.43,14.5a164.85,164.85,0,0,1,5.28,31c5.59-12.8,11.21-25.64,18.44-37.59,4.77-7.9,10.75-15.78,19.41-19a12.12,12.12,0,0,1,5.87-.85c5.21.77,8.31,6.24,9.66,11.32,5.42,20.41-4.78,41.58-16.61,59.07a267.35,267.35,0,0,1-25.26,32.14c-7,7.54-11.5,10.21-17.65.63C203.28,105.82,188.55,81.92,187.05,58.32Z"/><path class="cls-2" d="M97.39,329.45v10.1h5.39v4.89H97.39v8.61l5-2.1v5.32l-5,2.11v20.88H92.5V360.42l-5,2.17V357.2l5-2.1V344.44h-5v-4.89h5v-10.1Zm14.69,24.78,3.65-17.66h-7.56v-4.89h26.7L134,353.73h-4.9l.62-17.16h-8.92l-3.72,17.66ZM110,378V358.19h24.41V378Zm4.71-15v10.23h15V363Z"/><path class="cls-2" d="M163.19,331l-8.74,14.12h-6L157.06,331Zm1.73,12.63L161,350v29.31h-5.2V358.32l-1.12,1.73h-6l10.16-16.42Zm34.26,11.78v5.45h-7.49V379h-5.21V360.86H165v-5.45h21.49v-4.34h5.21v4.34Zm-.43-10.78v5.08H166.29v-5.08H180v-4.77H169.2v-5.21H180v-4.77h5.2v4.77H196v5.21H185.18v4.77Zm-29.37,19.45h6.82l5.14,6.81h-6.88Z"/><path class="cls-2" d="M219.26,337.94v5h-4.65v-9.54h19.27v-4h4.46v4h19.27V343H253v-5Zm38.35,25h-8.86V378H223.47V362.9h-7.62L232,354.29l-6.38-5.14-1.18,1h-7.24l11.58-9.6h21.93l-10.9,13.26Zm-9.85.44-11.65-5.95-11.28,5.95Zm-3.41,10.28v-6H227.87v6Zm-13.69-28.56-1.3.87,6.56,5.39,5.08-6.26Z"/><path class="cls-2" d="M300.67,352.18l19.51,25.28h-6.63l-15.42-20-14.31,20h-6.45l18.09-25.21v-21.5h5.21Z"/><path class="cls-2" d="M112.26,404.29,136,424.92h-7.5L112.26,410.8,95.91,424.92H88.35ZM97.45,452.8l3-26.58h5l-3.1,26.58Zm20.88-.19V426.22h4.9v26.39Z"/><path class="cls-2" d="M163.31,421.2h4.4l2.36,12.21h-4.53l-.43-2.42-3.41.31v22.24h-4.77V431.8l-7.8.74,6.19-10.72-5.88-6.07,7.37-11.83h5.51l-7.06,11.15,2.48,2.54,3.09-5.27H166l-8.74,14.93,7.06-.62ZM149.5,450.07l1.3-12.88h4.4l-1.3,12.88Zm14.37-11.58h4.4l.56,9.1h-4.4ZM176,428.27l4-16.92h-7.13v-4.58h24.29l-.81,21h-4.58l.62-16.42H184.5l-3.84,16.92Zm-1.48,24.34v-19.7h22.24v19.7Zm4.33-15.3v10.9h13.57v-10.9Z"/><path class="cls-2" d="M216,417.18H212l-1.49-8.43h4.15Zm12,7.62h-4.15l4.09,10h-4.65l-1.3-3L222,453.54h-4.53l-.12-18.15-2.05,6.07h-4.58l5.58-16.66h-5.08v-4.65h6.25V404.23H222v15.92h6.07Zm-4.71-7.62,1.3-8.43h4l-1.31,8.43Zm24.16,3.53h12.64v4.15H230.72v-4.15h12.64v-2.54H235v-4h8.36v-2.66H232.15v-4h11.21V404h4.15v3.53h11.27v4H247.51v2.66h8.36v4h-8.36Zm-13.44,31.65.86-25.27h21.62v25.27H252.4v-6.62H238.46l-.24,6.62Zm4.52-10.9H252.4v-3H238.71Zm13.81-10.22H239l-.12,3H252.4Z"/><path class="cls-2" d="M282.39,408.13v5l-8.24-2v-5Zm.19,13.38v5l-8.3-2.23v-5.08ZM275,452.92l3.47-17.47h5L280,452.92Zm33-35.31h13.81v33.82H289.15V417.61H303V404.17h5Zm-5,4.65h-9.23v9.47H303Zm-9.23,14.43v10.22H303V436.69Zm23.35-14.43h-9.16v9.47h9.16Zm-9.16,24.65h9.16V436.69h-9.16Z"/><path class="cls-3" d="M170.7,276.27c-.77-2.4-1.6-4.72-2.47-7a39.48,39.48,0,0,1,16.46-6.88c11.55-1.82,52.51-14.45,90.41-30.09,31.75-13.1,54.37-35.1,57.9-48.8,1.3-5-.11-8.16-1.52-9.91-6.35-8-16.63-4.68-23-.77-8.1-8.15-18.92-2.71-40.38,8.09L262,184c-16.07,8-32.29,10.13-42.47,10.54,5.1-3.75,11.78-8.81,18.27-14.12,7.06-5.77,9.33-14,6.08-22-2.65-6.57-8.3-11-13.42-10.6-6.61.55-14,7.07-24.29,16.09-3.14,2.76-6.39,5.62-10,8.64-6.38,5.35-12.9,7.66-19.2,9.9-7.91,2.81-15.39,5.46-20.88,13.52A238.32,238.32,0,0,1,136,220.68a72.66,72.66,0,0,0-5.51-4.79,3.57,3.57,0,0,0-3.92-.27l-23,12.94a3.59,3.59,0,0,0,0,6.27c12.78,6.95,32.7,44.53,39.29,58.42a3.56,3.56,0,0,0,2.3,1.92,3.38,3.38,0,0,0,.94.13,3.56,3.56,0,0,0,2-.62l21.18-14.34A3.55,3.55,0,0,0,170.7,276.27Z"/><path class="cls-4" d="M158.52,274.23a46.67,46.67,0,0,1,18.17-7.2c11.21-1.77,51.37-14.19,88.79-29.63,30.94-12.77,51.06-33.74,53.7-44,.25-1,.56-2.73-.17-3.65-3.49-4.36-10.2-1.21-13.68.9a11.2,11.2,0,0,1-.72,6.51c-4.92,12.39-31.52,29.57-67.51,36.88a3.59,3.59,0,0,1-1.43-7c34.58-7,58.77-23.67,62.27-32.5.81-2,.24-2.83,0-3.14-4.44-6.29-9.54-4.46-33.56,7.63l-6.11,3.07a112.09,112.09,0,0,1-57,11.11,3.59,3.59,0,0,1-1.66-6.51c.14-.09,13.79-9.6,26.66-20.14,6.25-5.11,5.17-10.84,4-13.8-1.59-3.93-4.76-6.28-6.18-6.13-4.25.35-11.62,6.83-20.15,14.33-3,2.65-6.45,5.67-10.1,8.73-7.37,6.19-14.83,8.84-21.41,11.17-7.36,2.62-13.18,4.68-17.36,10.81a239,239,0,0,1-21,25.8A135.48,135.48,0,0,1,158.52,274.23Z"/><path class="cls-5" d="M121,234.77l-16,9c14,12.3,30.2,43.48,35.61,54.36l15.51-10.5C145.78,257.84,126.88,239.83,121,234.77Z"/><path class="cls-6" d="M163.82,288c-.77-2.4-1.6-4.72-2.48-7a39.61,39.61,0,0,1,16.47-6.88c11.55-1.82,52.51-14.45,90.41-30.09,31.75-13.1,54.37-35.1,57.9-48.8,1.29-5-.11-8.16-1.52-9.91-6.35-7.95-16.63-4.68-23-.77-8.11-8.15-18.92-2.71-40.38,8.09l-6.09,3.06c-16.07,8-32.3,10.13-42.48,10.54,5.11-3.75,11.79-8.81,18.28-14.12,7.05-5.77,9.33-14,6.08-22-2.66-6.57-8.3-11-13.43-10.6-6.61.55-14,7.07-24.28,16.09-3.14,2.76-6.39,5.62-10,8.64-6.38,5.35-12.89,7.66-19.19,9.9-7.92,2.81-15.39,5.46-20.89,13.52a238.57,238.57,0,0,1-20.12,24.75,69.48,69.48,0,0,0-5.52-4.79,3.56,3.56,0,0,0-3.92-.27l-23,12.94a3.56,3.56,0,0,0-1.83,3.14,3.61,3.61,0,0,0,1.87,3.13c12.78,6.95,32.7,44.53,39.3,58.42a3.56,3.56,0,0,0,2.3,1.92,3.33,3.33,0,0,0,.94.13,3.56,3.56,0,0,0,2-.62L162.42,292A3.58,3.58,0,0,0,163.82,288Zm-8.7-76.3c4.18-6.13,10-8.19,17.36-10.81,6.58-2.33,14-5,21.41-11.17,3.65-3.06,7.08-6.08,10.1-8.73,8.53-7.5,15.9-14,20.15-14.33,1.42-.15,4.59,2.2,6.18,6.13,1.2,3,2.28,8.69-4,13.8-12.87,10.54-26.52,20.05-26.66,20.14a3.59,3.59,0,0,0,1.66,6.51,112.09,112.09,0,0,0,57-11.11l6.11-3.07c24-12.09,29.12-13.92,33.56-7.63.21.31.78,1.11,0,3.14-3.5,8.83-27.69,25.49-62.27,32.5a3.59,3.59,0,0,0,1.43,7c36-7.31,62.59-24.49,67.51-36.88a11.2,11.2,0,0,0,.72-6.51c3.48-2.11,10.19-5.26,13.68-.9.73.92.42,2.68.17,3.65-2.64,10.23-22.76,31.2-53.7,44-37.42,15.44-77.58,27.86-88.79,29.63a46.67,46.67,0,0,0-18.17,7.2,135.48,135.48,0,0,0-24.39-36.76A239,239,0,0,0,155.12,211.67Zm-14.48,86.46C135.23,287.25,119,256.07,105,243.77l16-9c5.86,5.06,24.76,23.07,35.13,52.86Z"/></g></svg>