<svg id="Layer_1" data-name="Layer 1" xmlns="http://www.w3.org/2000/svg" viewBox="0 0 410.27 483.56"><defs><style>.cls-1{fill:#c6c6c6;}.cls-2{fill:#ededed;}.cls-3{fill:#f6f6f6;}.cls-4{fill:none;stroke:#e6332a;stroke-miterlimit:10;stroke-width:5px;}.cls-5{fill:#1d1d1b;}</style></defs><title>advantages</title><polygon class="cls-1" points="307.76 149.06 205.66 203.63 102.51 149.06 205.66 92.48 307.76 149.06"/><polygon class="cls-2" points="205.66 203.63 205.66 317.79 307.76 261.72 307.76 149.06 205.66 203.63"/><polygon class="cls-3" points="102.51 149.06 205.66 203.63 205.66 317.79 102.51 261.72 102.51 149.06"/><circle class="cls-4" cx="205.14" cy="205.14" r="174.29"/><line class="cls-4" x1="328.38" y1="81.89" x2="81.89" y2="328.38"/><path class="cls-5" d="M197.57,411.44H183.39l3.77,12,3.72-5.15h6l-7.87,11,5.89,18.59h-5.14l-4.28-13.57-8.55,11.83h-6l12.7-17.78-5.51-16.91H150.74v-4.89H177.5v-7.19h5v7.19h15.11Zm-27,27.69h-4.95V427.3h-5.27l-.74,13.81h-5l.81-13.81h-4.71v-4.9h5l.37-5.82H161l-.37,5.82h5v-5.82h4.95v5.82h4.71v4.9h-4.71Zm23-34.5h-5.39l-1.92-4.4h5.38Z"/><path class="cls-5" d="M216.47,412.49h-4.33l-1.55-8.79h4.33Zm5.83-13.26v16h6.38V420h-4.34l4.27,10h-5l-1.36-3.09v21.8h-4.53l-.06-18.46-2.11,6.44h-4.83L216.41,420h-5.14v-4.77h6.5v-16Zm7,4.47-1.43,8.79H223.6L225,403.7Zm19.51-.44h11.4v4.28H235.86v3.4l-2.17,36.74h-4.27l2.17-36.86v-7.56h13.07v-4.52h4.15Zm9,7.25v7.68H260v4.15h-2.23v8H237.85v-4.21H245v-3.78h-8.3v-4.15H245v-3.47h-7.12v-4.21H245v-2.17h4.34v2.17Zm-20.07,36.37V434.11h20.51v12.77Zm3.9-8.8V443h12.64v-4.89Zm7.69-23.36v3.47h4.27v-3.47Zm4.27,11.4v-3.78h-4.27v3.78Z"/></svg>