<svg xmlns="http://www.w3.org/2000/svg" viewBox="0 0 508.42 371.08"><defs><style>.cls-1{fill:#010101;}</style></defs><title>Artboard 1</title><g id="Layer_1" data-name="Layer 1"><path class="cls-1" d="M35.84,221.09l-3.41,1,3.45-.79c2.23-.54,5.52-1.21,9.57-2.27A239.67,239.67,0,0,0,77.06,207.5l.11-.05c3.69.6,7.28,1.3,10.71,2,18.15,4.21,28.67,7.66,34.86,9.14,3.08.82,5.05,1.24,6.25,1.44s1.64.19,1.65.13-.34-.35-1.42-.94-2.88-1.47-5.81-2.74a207.2,207.2,0,0,0-34.66-11c-1.65-.36-3.34-.68-5.06-1,23.29-10.76,49.64-26,72.64-36a221.69,221.69,0,0,1,50.27-15.8c4.59-.65,7.49-1.15,9.24-1.5a7.66,7.66,0,0,0,2.31-.63,8.74,8.74,0,0,0-2.44-.2c-1.79,0-4.75,0-9.46.14-9.26.95-26,3-51.55,14.27-24.34,10.57-51.41,27.49-74.83,39.08a130.7,130.7,0,0,0-21.52-1.71,100.59,100.59,0,0,0-29.79,4.65c-2.18.77-4.35,1.32-6.3,2.21l-5.63,2.43c-3.49,1.67-6.48,3.38-9,4.73L0,221.13l8-4.4c2.59-1.16,5.65-2.67,9.19-4.11l5.68-2c2-.77,4.14-1.18,6.31-1.82a104.42,104.42,0,0,1,29.19-3.17,137.64,137.64,0,0,1,15.29,1.33,259.21,259.21,0,0,1-28.34,11.46C41.29,219.62,38.05,220.44,35.84,221.09Z"/><path class="cls-1" d="M43.05,184a63.39,63.39,0,0,0,10.14,1.71c5.23.61,11.57,1.49,16.46,3.12L73,190.15a20,20,0,0,1,2.55,1.29l2.3,1.25-1.94-1.77A18.27,18.27,0,0,0,73.63,189l-3.15-2a47.84,47.84,0,0,0-16.8-5.3,32.39,32.39,0,0,0-10.55.11c-1.85.4-2.33.89-2.33,1S41.27,183.49,43.05,184Z"/><path class="cls-1" d="M500.77,216.17c-2.51-1.34-5.49-3-9-4.73L486.16,209c-2-.9-4.13-1.44-6.31-2.22a100.86,100.86,0,0,0-29.79-4.64,129.82,129.82,0,0,0-21.44,1.7c-22.41-11.16-48.06-27.12-71-37.47-24.63-11.22-40.71-13.83-49.69-15.06-4.56-.35-7.44-.47-9.16-.49a7,7,0,0,0-2.29.12,8,8,0,0,0,2.28.72c1.68.42,4.47,1,8.88,1.85a243,243,0,0,1,48.3,16.56c21.66,9.75,46.56,24.12,68.8,34.43-1.71.32-3.4.64-5,1a207.4,207.4,0,0,0-34.71,11c-2.93,1.27-4.75,2.16-5.82,2.74s-1.4.86-1.36.92a4.51,4.51,0,0,0,1.69-.15c1.21-.2,3.18-.62,6.25-1.43,6.17-1.47,16.67-4.92,34.82-9.13,3.42-.74,7-1.44,10.69-2l1.45.63a233.09,233.09,0,0,0,30.68,11c3.93,1,7.11,1.66,9.28,2.18l3.35.76-3.31-.93c-2.14-.63-5.28-1.43-9.14-2.62a249.83,249.83,0,0,1-28.65-11.6,138.62,138.62,0,0,1,15.21-1.31,104.42,104.42,0,0,1,29.19,3.16c2.17.65,4.34,1.06,6.3,1.82l5.69,2.05c3.54,1.44,6.6,2.94,9.19,4.11l7.95,4.39Z"/><path class="cls-1" d="M435.43,190.15l3.34-1.28c4.89-1.63,11.23-2.51,16.46-3.12A63.59,63.59,0,0,0,465.38,184c1.79-.55,2.25-1.08,2.23-1.2s-.5-.61-2.34-1a32.54,32.54,0,0,0-10.53-.11,47.78,47.78,0,0,0-16.8,5.3l-3.15,2a18.43,18.43,0,0,0-2.28,1.89l-1.94,1.76,2.31-1.24A18.71,18.71,0,0,1,435.43,190.15Z"/><path class="cls-1" d="M34.08,350H242.29a15.17,15.17,0,0,0-.45,3.6c0,9,8.56,16,8.93,16.34l1.39,1.12,1.39-1.12c.37-.3,8.94-7.31,8.94-16.34A14.67,14.67,0,0,0,262,350H485.56s-112.27-16.14-246-16.14C172.63,333.88,100.39,337.91,34.08,350Zm61.71-4.44c43.68-4.83,91.78-7.27,143.74-7.27,3.36,0,6.7,0,10,0a29.08,29.08,0,0,0-5.57,7.23Zm156.37,19.63c-2.11-2.12-5.89-6.61-5.89-11.59s3.78-9.47,5.89-11.6c2.12,2.13,5.89,6.61,5.89,11.6S254.28,363.09,252.16,365.21Zm8.16-19.63a29.2,29.2,0,0,0-5.52-7.19c56.12.52,108,3.75,148.17,7.19Z"/><path class="cls-1" d="M230.88,361.7c.17.18,1.72,1.18,3.65-.6s3.43-5.93,3.43-5.93-4.16,1.07-6.14,2.9S230.71,361.53,230.88,361.7Z"/><path class="cls-1" d="M266.62,355.18s1.49,4.14,3.42,5.92,3.49.79,3.65.61,1-1.81-.94-3.64S266.62,355.18,266.62,355.18Z"/><path class="cls-1" d="M241.6,40.24a22.76,22.76,0,0,0,.79,3,33.82,33.82,0,0,0,2.53,5.41,45.07,45.07,0,0,0,3.28,4.87A48.53,48.53,0,0,0,252,57.92l.77.84.82-.84a48.45,48.45,0,0,0,3.56-4.07,44.53,44.53,0,0,0,3.08-4.45,32.56,32.56,0,0,0,2.49-4.89,21.06,21.06,0,0,0,.91-2.64,22.74,22.74,0,0,0,.61-2.87l.11-1.31,0-.33a.87.87,0,0,0,0-.26v-.18l0-.74a16.88,16.88,0,0,0-.35-2.91,19.27,19.27,0,0,0-.89-2.79,18.38,18.38,0,0,0-1.29-2.59,23.12,23.12,0,0,0-3.51-4.51c-.67-.67-1.36-1.31-2.09-1.91a22.55,22.55,0,0,0-2.36-1.74h0l-1.1-.63-1,.63c-.45.29-.78.52-1.14.78s-.7.53-1,.8c-.67.55-1.32,1.13-1.94,1.73a24.88,24.88,0,0,0-3.33,4,18.55,18.55,0,0,0-1.32,2.3,9.59,9.59,0,0,0-.54,1.22,9,9,0,0,0-.45,1.26,15.45,15.45,0,0,0-.62,2.68,8.38,8.38,0,0,0-.13,1.31l0,1.2v.11l.13,1.57A11.09,11.09,0,0,0,241.6,40.24Zm3.07-4.2a4.45,4.45,0,0,1,.17-1.08,12.59,12.59,0,0,1,.55-2c.1-.34.28-.65.41-1s.29-.66.48-1a16.08,16.08,0,0,1,1.16-1.83,22.17,22.17,0,0,1,3-3.25c.49-.43,1-.83,1.51-1.22l.93,15.7.92-15.72c.63.48,1.24,1,1.82,1.51a19.85,19.85,0,0,1,3.12,3.63,13.81,13.81,0,0,1,1.14,2.05,14.79,14.79,0,0,1,.83,2.18,13.68,13.68,0,0,1,.38,2.29l.06.58v.15c0-.15,0,0,0,.06v.33l-.05,1.31a19.59,19.59,0,0,1-.39,2.29,18.14,18.14,0,0,1-.69,2.36A31.19,31.19,0,0,1,257.92,48a42.34,42.34,0,0,1-2.71,4.33c-.75,1.05-1.55,2.07-2.37,3.05-.92-1.09-1.8-2.23-2.62-3.41a43.08,43.08,0,0,1-2.86-4.73,30,30,0,0,1-2.05-5,19.44,19.44,0,0,1-.55-2.58,7.83,7.83,0,0,1-.14-1.28l-.05-1.23Z"/><path class="cls-1" d="M455.88,2.9a61.18,61.18,0,0,1-10.15,6.64,84.65,84.65,0,0,1-17.11,6.57A190.54,190.54,0,0,1,406,20.61l-53.9,8.27-28,4.18a255.52,255.52,0,0,0-26.6,5.25,110.85,110.85,0,0,0-22.16,8,64.17,64.17,0,0,0-15.52,10.79c-1,.94-1.85,2-2.74,3a22.86,22.86,0,0,0-2.37,3c-.71,1.14-1.46,2.19-2.13,3.23-.07-.11-.14-.21-.21-.33L250.37,63A23.59,23.59,0,0,0,248,60.08c-.88-.95-1.7-2-2.73-3a64.54,64.54,0,0,0-15.5-10.76,110.13,110.13,0,0,0-22.15-8A256.56,256.56,0,0,0,181,33.06l-28-4.18L99.09,20.61a190,190,0,0,1-22.66-4.49A85.62,85.62,0,0,1,59.32,9.55,61.56,61.56,0,0,1,49.16,2.91C47,1.07,45.85,0,45.85,0s1.09,1.11,3.2,3A60.74,60.74,0,0,0,59,10.1a84.47,84.47,0,0,0,17.05,7.25,184.92,184.92,0,0,0,22.69,5.26c16.44,3,35,6.51,53.71,9.65l27.9,4.64c9.17,1.45,18,3.22,26.22,5.34A114,114,0,0,1,228,49.84a64.6,64.6,0,0,1,14.85,9.81,45.36,45.36,0,0,1,8,9.78l-1,2.18c-.2.44-.41.87-.6,1.29s-.27.88-.41,1.3l-1.41,4.69c-.55,2.92-.84,5.31-1.11,7.23,0,1.95,0,3.43,0,4.54a10.71,10.71,0,0,0,.21,2.92,13.82,13.82,0,0,0,.64-3c.16-1.08.37-2.52.65-4.39.51-1.83,1-4.1,1.77-6.82a55.86,55.86,0,0,1,3-7,56.2,56.2,0,0,1,3,7.1l1.76,6.84c.25,1.87.47,3.31.64,4.39a11.21,11.21,0,0,0,.63,2.87,13.29,13.29,0,0,0,.21-3c0-1.12,0-2.6,0-4.54-.28-1.92-.55-4.31-1.12-7.22-.43-1.42-.9-3-1.41-4.67-.14-.42-.25-.86-.42-1.3s-.39-.84-.6-1.28l-1-2.13a45.61,45.61,0,0,1,8-9.79A64.65,64.65,0,0,1,277,49.83a114.2,114.2,0,0,1,21.45-7.59c8.22-2.12,17-3.89,26.22-5.34l27.89-4.64c18.71-3.14,37.28-6.68,53.72-9.65A188,188,0,0,0,429,17.35a85,85,0,0,0,17-7.25A60.9,60.9,0,0,0,456,3c2.1-1.93,3.19-3,3.19-3S458.05,1.07,455.88,2.9Z"/><path class="cls-1" d="M231.55,79.68a14.92,14.92,0,0,0-1.18,1.48,14.19,14.19,0,0,0-.63,1.37,6.79,6.79,0,0,0-.49,2c-.07,1,.26,1.43.37,1.48a2.21,2.21,0,0,0,1.55-.38,6.57,6.57,0,0,0,1.48-1.16,10,10,0,0,0,.86-1c.34-.35.74-.72,1.13-1.17,1.47-1.89,3.49-4.1,5.25-5.93,1.84-1.68,3.24-3.1,3.24-3.1s-1.85.5-4.36,1.41S233.3,77.44,231.55,79.68Z"/><path class="cls-1" d="M275.25,81.16a14.92,14.92,0,0,0-1.18-1.48c-1.76-2.24-4.82-4-7.22-5s-4.36-1.41-4.36-1.41,1.39,1.42,3.24,3.11,3.78,4,5.24,5.92c.4.45.79.82,1.14,1.17a8,8,0,0,0,.86,1,6.36,6.36,0,0,0,1.48,1.16c.86.48,1.44.45,1.54.38s.44-.48.37-1.49a6.73,6.73,0,0,0-.49-2A12.94,12.94,0,0,0,275.25,81.16Z"/><path class="cls-1" d="M250.35,103.37c0,3.95,1.79,4.64,2,4.64s2-.69,2-4.64-2-9.64-2-9.64S250.35,99.43,250.35,103.37Z"/><path class="cls-1" d="M225.59,63.44a57.54,57.54,0,0,0-9.69-6.9c-8.32-4.85-20-8.52-29.54-10.37a127.86,127.86,0,0,0-18.57-2.56c-3.29-.17-4.23.16-4.24.28s.72.78,3.85,1.9,8.69,2.49,18.15,4.36,20.9,4.4,29.44,8.2a64.34,64.34,0,0,1,10.21,5.58l3.76,2.8S227.74,65.48,225.59,63.44Z"/><path class="cls-1" d="M335.73,43.62a127.46,127.46,0,0,0-18.54,2.55C307.62,48,296,51.69,287.65,56.54a58.12,58.12,0,0,0-9.69,6.9c-2.15,2-3.36,3.3-3.36,3.3l3.75-2.8a63.26,63.26,0,0,1,10.22-5.58c8.53-3.81,20-6.37,29.43-8.21s15.05-3.25,18.17-4.37S340,44,340,43.89,339,43.44,335.73,43.62Z"/></g><g id="Text"><path class="cls-1" d="M200.44,171.27l-13.69,18.8-25.5,14.62v-6.24l16.91-9.66-7.31-5.5L169.24,185h-7.58l13.75-13.7Zm-15.16,21.82h24.49L193.53,215l-24.29,8.79v-5.7l18.25-6.51-7.65-6.24-2.28,2.08h-7.85Zm-7.65-16.45-3,2.89,8.46,6.37,6.85-9.26Zm9.73,21.75-3.56,3.22,8.12,6.64,7.25-9.86Z"/><path class="cls-1" d="M239.78,171.14v8.25h4.89v5.31h-4.89V197l4.16-1.67v6.1l-4.16,1.68v20.07h-5V205.3l-7.85,3.22v-6.17l7.85-3.22V184.7h-4.09l-1.14,9h-5.44l2.62-19.33h5.37l-.67,5h3.35v-8.25Zm37.51,14.5v5.16H245.82v-5.16H259V180.2H247.9v-5.1H259v-5h5.17v5h11v5.1h-11v5.44Zm.27,11.47v5h-5.91V223h-5.3V202.14H245.82v-5h20.53v-4.36h5.3v4.36Zm-27.72,9.06h5.91l5,8.46h-6Z"/><path class="cls-1" d="M290.45,178v-5.17h16.64V178h-5.64v9.26h4.9v5.3h-4.9v12.08l5.64-2.22v5.64l-16.37,6.17v-5.57l5.5-2V192.55h-5v-5.3h5V178Zm35.23,21.81H343.6v22.68h-5V204.76h-4.23v15.3h-5.17v-15.3h-4.29v15.3h-5.17v-15.3h-4.23v17.72h-5V199.8h9.73l1.75-5H310.72v-5.1h32.34v5.1H327.49Zm16.17-26.18v13.43H312.12V173.62h5.24v8.19h7.05v-11h5.23v11h7.05v-8.19Z"/><path class="cls-1" d="M108.9,298.47v4.63H97.16v9.73H92.53V303.1H56.82v-4.63H92.53v-3.22l-34,.4-.07-4.7,22.15-.27v-3.29H61.92V269.21H80.58v-1.95H58.43v-4.63H80.58v-2.82h4.56v2.82h22.15v4.63H85.14v1.95H103.8v18.18H85.14v3.22l13-.2-.88-1.67h5.24l4.09,7.91h-5.23l-.81-1.54-3.35.07v3.29Zm-28.32-24.7h-14v2.15h14Zm-14,9h14v-2.14h-14Zm1.55,21.88h6.51l4.56,5.77H72.66Zm31.07-30.87h-14v2.15h14Zm-14,9h14v-2.14h-14Z"/><path class="cls-1" d="M174.34,260.89v10.6H131.19l-2.49,41.07h-4.29l2.68-43.29v-8.38Zm-4.23,6.37v-2.08H131.32v2.08ZM143.4,292h31.34l-.94,21.61h-4l.74-17.51H153.94v1.61H164.2v8.72H153.94v1.75l7.65-.34-.21-.4h3.9l1.67,5.3h-3.89l-.4-1.34L138,312.49v-3.62l12.42-.54v-1.88h-8.86v-8.72h8.86v-1.61h-9.6L139,298.87h-4.83l5.23-8.05h-3.82v-9.4h36.1v9.4H144.2Zm4.83-19v3.08h-13V273Zm-13,7.11V277h13v3.09Zm3.49,4.5v3.08h7.65v-3.08ZM145.08,303h5.3v-1.74h-5.3Zm5.23-15.3h6.51v-3.08h-6.51Zm4.16-7.25h-3.22v-8h3.22Zm6.24,20.81h-6.77V303h6.77ZM170.38,273v3.08h-13V273Zm-13,7.11V277h13v3.09Zm11.14,7.58v-3.08h-7.65v3.08Z"/><path class="cls-1" d="M199.64,272v41.67h-5.16V285.05h-4.64l8.53-25.3h5.37Zm40,19.73v-4H226.69l2,2.55h-5.44l-2-2.55H208v4h-4.29v-8.26h7.11v-16h8.12l1.61-2.82H206v-4.5h35.57v4.5h-16L224,267.4h12.82v16h7.11v8.26Zm-30.4,5.17h-5l2.61-4.16h5.1Zm21.61,10.6L242.39,310v4L226,310.41l-20.4,3.22v-3.69l14.76-2.21L214,304.57l-1.2.94h-5.57l7.65-6.31h21.74ZM218,289.21v4h14.9v4.22H213.94v-8.18ZM214.41,271v1.81H233.2V271Zm0,7.05H233.2v-1.82H214.41Zm0,5.36H233.2v-1.81H214.41Zm15.5,19.26h-11l8.19,4.1Zm12.55-6h-5.37l-4-5.36h5.44Z"/><path class="cls-1" d="M258.44,310.14l3.82-8.32h5.91l-3.76,8.32ZM281.86,270v-3.22H259.44V262h22.42v-2.35h4.69V262H309v4.76H286.55V270h17.18v16.44H286.55v3.16l14-.14-.6-1.54H305l2.88,7.79h-5.1l-.53-1.55-39.93.4v-4.76l19.53-.13v-3.23H264.68V270Zm0,4.16h-13v1.95h13Zm-13,8.12h13v-1.94h-13Zm7.78,14.5v11.14h24.9v5.37h-30.2V296.79Zm9.46,7.78-4.56-6.91h6.31l4.63,6.91Zm13.49-30.4h-13v1.95h13Zm-13,8.12h13v-1.94h-13Zm18.79,18.06,5.37,7.65H304.2l-5.37-7.65Z"/><path class="cls-1" d="M377.76,263.91v4.9H358.7l16.91,11.81h-8.92l-3.16-2.22v1.54H343.27v2.62h21.47v4.1H343.27v2.21h21.47V293H343.27v2.42h32.28v4.7H345.08l-3.56,6.71,21.61-1.14-1.21-3h5.24l4.83,10.8h-5.44l-1.27-3-32.35,1.88,6.58-12.21H326.69v-4.7h12V278.54L336,280.62H327.5l15.7-11.81H324.48v-4.9H348.3v-3.76h4.9v3.76ZM343,275.38h16.1l-8.32-5.9Z"/><path class="cls-1" d="M442.59,295.51H422.33l5.84,6.18,3.42-2.89h8l-7.85,6.65,7.79,8.38h-6.85l-16.84-18-4.63,3.42v8.19l6.71-1.07v5.1l-11.68,1.87V302.9l-4.09,3H393.6l14.23-10.34H394.28v-5H416V286h5v4.5h21.67Zm-47-8.59,2.22-7.71h-3.49v-5h12.41v-2.68H395.82v-10.2h5v5.23h5.84v-6.44h5v26.24h-5v-7.11h-3.76l-2.15,7.71Zm30.2-7.58v-6.51H414.14v-5h11.61v-7.39h5v7.39h11.61v5H430.78v6.51h9.4v5H416.42v-5Z"/></g></svg>