<svg xmlns="http://www.w3.org/2000/svg" viewBox="0 0 570.8 475.23"><defs><style>.cls-1{fill:#010101;}.cls-2{fill:#f3eae1;}</style></defs><title>buying-title</title><g id="Layer_1" data-name="Layer 1"><path class="cls-1" d="M69.52,330.5l-3.42,1,3.46-.8c2.23-.54,5.51-1.2,9.57-2.27a238.17,238.17,0,0,0,31.6-11.49l.11,0c3.69.59,7.28,1.29,10.71,2,18.15,4.21,28.68,7.67,34.86,9.15,3.08.81,5.05,1.23,6.25,1.44s1.64.18,1.65.12-.34-.35-1.42-.93-2.88-1.48-5.81-2.74a205.92,205.92,0,0,0-34.66-11c-1.64-.35-3.34-.68-5-1,23.29-10.75,49.63-26,72.64-36a221.51,221.51,0,0,1,50.26-15.8c4.59-.64,7.5-1.15,9.24-1.5a8.08,8.08,0,0,0,2.31-.62,8.39,8.39,0,0,0-2.44-.21c-1.79-.05-4.74,0-9.46.14-9.26,1-25.95,3-51.54,14.27C164,284.77,137,301.7,113.54,313.28A130.67,130.67,0,0,0,92,311.57a100.48,100.48,0,0,0-29.79,4.65c-2.18.77-4.36,1.32-6.31,2.22l-5.63,2.42c-3.49,1.67-6.47,3.39-9,4.73l-7.65,5,7.95-4.4c2.59-1.16,5.65-2.67,9.19-4.1L56.49,320c2-.77,4.14-1.18,6.31-1.82A104.42,104.42,0,0,1,92,315a137.82,137.82,0,0,1,15.3,1.33,259.26,259.26,0,0,1-28.35,11.46C75,329,71.72,329.86,69.52,330.5Z" transform="translate(-0.79 -5.27)"/><path class="cls-1" d="M76.72,293.46a65.86,65.86,0,0,0,10.14,1.71c5.23.6,11.57,1.49,16.46,3.11,1.2.47,2.33.9,3.34,1.28a20.62,20.62,0,0,1,2.55,1.3l2.31,1.24-1.94-1.76a18.43,18.43,0,0,0-2.28-1.89l-3.15-2a48,48,0,0,0-16.8-5.3,32.61,32.61,0,0,0-10.54.11c-1.85.4-2.34.89-2.33,1S74.94,292.9,76.72,293.46Z" transform="translate(-0.79 -5.27)"/><path class="cls-1" d="M534.45,325.59c-2.51-1.35-5.5-3.06-9-4.73l-5.63-2.43c-2-.89-4.13-1.44-6.31-2.21a100.47,100.47,0,0,0-29.78-4.65,129.86,129.86,0,0,0-21.45,1.7c-22.41-11.15-48.06-27.12-71-37.47-24.63-11.21-40.71-13.82-49.68-15.05-4.57-.36-7.44-.48-9.17-.5s-2.31.06-2.29.13a9.15,9.15,0,0,0,2.28.71c1.68.43,4.47,1,8.88,1.85a243,243,0,0,1,48.3,16.56c21.67,9.75,46.57,24.12,68.8,34.44-1.71.31-3.4.64-5,1a207.4,207.4,0,0,0-34.71,11c-2.93,1.27-4.74,2.16-5.81,2.74s-1.4.87-1.37.92a4.66,4.66,0,0,0,1.7-.14c1.2-.21,3.17-.63,6.24-1.44,6.17-1.47,16.67-4.92,34.82-9.13,3.42-.74,7-1.44,10.7-2l1.44.63a233.6,233.6,0,0,0,30.68,11c3.93,1,7.12,1.66,9.28,2.18l3.35.76-3.31-.93c-2.14-.62-5.28-1.42-9.14-2.62a251.34,251.34,0,0,1-28.65-11.59A136.41,136.41,0,0,1,483.77,315,104.42,104.42,0,0,1,513,318.17c2.17.64,4.35,1.05,6.31,1.82L525,322c3.54,1.43,6.6,2.94,9.19,4.1l8,4.39Z" transform="translate(-0.79 -5.27)"/><path class="cls-1" d="M469.1,299.57l3.34-1.28c4.89-1.63,11.23-2.52,16.46-3.12a66.07,66.07,0,0,0,10.15-1.71c1.79-.56,2.25-1.08,2.23-1.2s-.49-.61-2.34-1a32.54,32.54,0,0,0-10.53-.11,48,48,0,0,0-16.8,5.3l-3.15,2a19.21,19.21,0,0,0-2.28,1.89l-1.93,1.77,2.3-1.25A20,20,0,0,1,469.1,299.57Z" transform="translate(-0.79 -5.27)"/><path class="cls-1" d="M67.75,459.43H276a15.17,15.17,0,0,0-.45,3.6c0,9,8.57,16.05,8.93,16.34l1.39,1.12,1.4-1.12c.36-.29,8.93-7.31,8.93-16.34a15.17,15.17,0,0,0-.45-3.6H519.23S407,443.29,273.2,443.29C206.31,443.29,134.06,447.32,67.75,459.43ZM129.46,455c43.68-4.83,91.78-7.26,143.74-7.26,3.36,0,6.7,0,10,0a29.28,29.28,0,0,0-5.56,7.23Zm156.37,19.63C283.72,472.5,280,468,280,463s3.77-9.47,5.88-11.59c2.12,2.12,5.89,6.61,5.89,11.59S288,472.5,285.83,474.62ZM294,455a29.2,29.2,0,0,0-5.52-7.19c56.12.52,108,3.75,148.18,7.19Z" transform="translate(-0.79 -5.27)"/><path class="cls-1" d="M264.55,471.11c.17.18,1.72,1.18,3.65-.6s3.43-5.93,3.43-5.93-4.15,1.08-6.14,2.91S264.38,470.94,264.55,471.11Z" transform="translate(-0.79 -5.27)"/><path class="cls-1" d="M300.29,464.59s1.5,4.14,3.42,5.92,3.49.79,3.65.61,1-1.81-.93-3.63S300.29,464.59,300.29,464.59Z" transform="translate(-0.79 -5.27)"/><path class="cls-1" d="M571.6,72.78q-11.29-1.61-22.6-3.09-6.84,25.83-13.51,51.69Q541.74,71.63,548,21.86a2072.83,2072.83,0,0,0-523.75,0q6.34,49.74,12.68,99.49Q30.23,95.52,23.39,69.69,12.08,71.18.79,72.78,13.63,101.37,26,130.11q-4.39,30.75-8.27,61.48,32.38-4.6,64.88-8.1-25-21.11-51-41.54a1952.67,1952.67,0,0,1,509.25,0q-26,20.43-51,41.54,32.49,3.49,64.88,8.1-3.88-30.74-8.27-61.48Q558.75,101.39,571.6,72.78Z" transform="translate(-0.79 -5.27)"/><path class="cls-1" d="M90.22,182.68l-4.29-41.53q-20.25,2.08-40.47,4.61Q68.26,164,90.22,182.68Z" transform="translate(-0.79 -5.27)"/><path class="cls-1" d="M486.46,141.15l-4.29,41.53q22-18.7,44.76-36.92Q506.71,143.24,486.46,141.15Z" transform="translate(-0.79 -5.27)"/><path class="cls-2" d="M102.2,107.5q1.11-8,2.24-16l8.32-.74q-1.11,8-2.2,16Zm44.16-33.26q16.47-1.15,33-2,.1,16.42.22,32.84l-7.65.43q-.18-12.74-.34-25.46-30.27,1.74-60.48,4.39-2.16-24.47-4.3-48.93,31.17-2.73,62.39-4.52l.42,7.36Q156.77,39,144,39.94q.22,3.14.44,6.27,11.61-.81,23.23-1.48l.45,7.74q-11.57.68-23.14,1.48c.15,2.1.29,4.19.44,6.28q11.53-.81,23.07-1.48l.45,7.75q-11.49.66-23,1.47C146.07,70.06,146.21,72.15,146.36,74.24Zm-10.72-33.7q-10.17.75-20.33,1.6c.17,2.09.35,4.18.52,6.27q10.14-.85,20.27-1.6Zm1.5,20.28-.47-6.27q-10.09.75-20.19,1.59c.18,2.09.35,4.18.53,6.27Q127.07,61.56,137.14,60.82Zm-19.48,9.32c.17,2.09.35,4.18.52,6.26q10-.84,20-1.57l-.46-6.27Q127.68,69.29,117.66,70.14Zm3.23,19.94c2.67-.23,5.34-.44,8-.65q1.2,6.15,2.41,12.32l-8.07.65Q122.07,96.24,120.89,90.08Zm14.69-2.65,8-.59q1.6,5.16,3.2,10.31l-8,.58Q137.22,92.57,135.58,87.43Zm14.68-1.74q4.28-.3,8.55-.57,1.86,4.75,3.7,9.51l-8.61.56Q152.08,90.44,150.26,85.69Z" transform="translate(-0.79 -5.27)"/><path class="cls-2" d="M245.57,93.16q19.19-.39,38.37-.42c0,2.76,0,5.51,0,8.26q-39.43,0-78.86,1.66c-.11-2.75-.23-5.5-.34-8.25q16.09-.66,32.2-1.06-.8-32.44-1.61-64.9l8.9-.21L244.77,54q16.89-.34,33.79-.41l0,8.26q-16.83.06-33.65.4Z" transform="translate(-0.79 -5.27)"/><path class="cls-2" d="M306.2,102.18q1.65-6.77,3.33-13.52l8.12.11q-1.75,6.75-3.48,13.5C311.51,102.24,308.86,102.2,306.2,102.18Zm28.08-73.41q-.63,27.06-1.27,54.11-12.37-.28-24.75-.43l.6-54.12Q321.56,28.48,334.28,28.77Zm-6.8,6.14q-6-.12-12-.21-.06,4.47-.13,8.94,6,.09,12,.21Zm-.33,16.3q-6-.12-11.94-.2c0,3-.09,6-.13,8.94q5.94.07,11.89.2Zm-12.3,24.94q5.89.09,11.79.21l.18-8.84q-5.93-.12-11.85-.21Zm9.07,12.73,8.12.17q1.31,6.08,2.59,12.15l-8.08-.19Q325.25,94.95,323.92,88.88Zm64.38-.59q-.17,3.24-.34,6.47l-5.63-.28c-.17,3.34-.33,6.67-.49,10l-6.22-.29.45-10q-13.89-.63-27.8-1.06c-.1,3.33-.21,6.67-.31,10q-3.06-.11-6.13-.18c.1-3.34.19-6.68.29-10l-5.75-.15c.06-2.16.11-4.32.17-6.48l5.76.15q.31-11,.62-22.09,8.54.24,17.07.55l.18-5q-10.8-.41-21.59-.68c.05-2.13.11-4.26.16-6.38q5.91.15,11.83.34c0-1.44.09-2.88.14-4.32l-6.19-.19.18-6.18,6.2.18.15-4.51-9.6-.29c.06-2.09.11-4.18.17-6.28l9.63.28c.05-1.76.11-3.53.16-5.3l6.79.23c-.06,1.77-.12,3.53-.19,5.3q6.45.23,12.9.49c.08-1.76.15-3.53.22-5.3l6.89.3-.23,5.3c3.24.14,6.48.3,9.72.46-.1,2.09-.21,4.18-.31,6.28-3.23-.16-6.46-.32-9.7-.46-.06,1.5-.13,3-.2,4.51l6.31.3q-.15,3.09-.29,6.18L377,49.89c-.07,1.44-.13,2.87-.2,4.31q6,.27,11.93.57l-.33,6.38q-10.83-.55-21.69-1c-.06,1.67-.13,3.33-.2,5q8.59.35,17.17.76-.54,11-1.07,22.08ZM359.77,70.81,349,70.44l-.15,5c3.58.11,7.17.24,10.76.37ZM348.63,81.74l-.15,4.91,10.7.36.18-4.91C355.78,82,352.21,81.85,348.63,81.74Zm9.16-43.34c-.05,1.51-.1,3-.16,4.52q6.42.22,12.84.49l.18-4.52Q364.23,38.64,357.79,38.4Zm-.37,10.7-.15,4.32q6.38.22,12.76.49l.18-4.32Q363.82,49.34,357.42,49.1ZM377.1,71.52l-10.79-.46c-.07,1.67-.14,3.34-.2,5,3.59.14,7.17.29,10.76.46C377,74.86,377,73.19,377.1,71.52ZM365.66,87.26q5.35.21,10.7.45c.08-1.63.15-3.27.23-4.9q-5.37-.25-10.73-.46C365.79,84,365.73,85.62,365.66,87.26Z" transform="translate(-0.79 -5.27)"/><path class="cls-2" d="M419.05,30.94q35.83,2.32,71.59,5.91-1.06,10.6-2.12,21.21-35.38-3.54-70.85-5.85Zm-1.83,77.16q2.91-3.7,5.83-7.38,5.73.39,11.45.82-2.89,3.67-5.77,7.36Q423,108.48,417.22,108.1Zm64.2-46.5q-1.95,20.19-3.91,40.38-28.11-2.72-56.28-4.64Q422.6,77.1,424,56.87,452.73,58.82,481.42,61.6Zm-56-23.84c-.19,2.88-.39,5.75-.59,8.63q7.26.49,14.5,1c.22-2.87.43-5.75.65-8.62Q432.68,38.25,425.39,37.76Zm48.44,29.63q-21.65-2-43.31-3.57l-.3,4.22q21.61,1.54,43.21,3.56C473.56,70.2,473.7,68.8,473.83,67.39Zm-1.08,11.54q-21.51-2-43.06-3.55l-.3,4.32q21.5,1.53,43,3.54C472.48,81.8,472.62,80.37,472.75,78.93ZM428.54,91.45Q449.92,93,471.25,95c.14-1.43.27-2.86.4-4.3q-21.37-2-42.8-3.53C428.75,88.58,428.65,90,428.54,91.45Zm32.07-51q-6.32-.54-12.65-1-.33,4.31-.68,8.62,6.3.5,12.6,1C460.12,46.21,460.37,43.34,460.61,40.47Zm21.82,10.67.84-8.6q-7.32-.7-14.65-1.37-.37,4.3-.77,8.61Q475.14,50.44,482.43,51.14Zm-17.28,52.94q5.67.51,11.33,1.06,2.19,4.11,4.34,8.22-5.64-.56-11.28-1.08Q467.35,108.17,465.15,104.08Z" transform="translate(-0.79 -5.27)"/><path class="cls-1" d="M275.27,149.66a20.81,20.81,0,0,0,.8,3,32.55,32.55,0,0,0,2.52,5.41,46.58,46.58,0,0,0,3.28,4.87,50,50,0,0,0,3.84,4.44l.77.83.83-.83a46.69,46.69,0,0,0,3.55-4.08,44,44,0,0,0,3.09-4.44,33.47,33.47,0,0,0,2.48-4.89,21.78,21.78,0,0,0,.91-2.65,22.74,22.74,0,0,0,.61-2.87l.11-1.31,0-.32c0-.1,0,0,0-.27v-.18l0-.73a16.89,16.89,0,0,0-.36-2.92,17.65,17.65,0,0,0-.89-2.78,18.5,18.5,0,0,0-1.29-2.6,23.05,23.05,0,0,0-3.51-4.5,27,27,0,0,0-2.09-1.92,22.51,22.51,0,0,0-2.36-1.73h0l-1.11-.64-1,.64c-.45.28-.78.51-1.14.78s-.7.52-1,.79c-.67.55-1.31,1.13-1.93,1.73a25.29,25.29,0,0,0-3.34,4,19.3,19.3,0,0,0-1.32,2.3,11,11,0,0,0-.53,1.22,9.5,9.5,0,0,0-.46,1.26,14.51,14.51,0,0,0-.61,2.69,6.41,6.41,0,0,0-.13,1.3l-.05,1.21v.1l.14,1.57A13,13,0,0,0,275.27,149.66Zm3.07-4.21a4.53,4.53,0,0,1,.17-1.08,11.57,11.57,0,0,1,.56-2,7.12,7.12,0,0,1,.41-1,8.52,8.52,0,0,1,.47-1,16.08,16.08,0,0,1,1.16-1.83,21.15,21.15,0,0,1,3-3.24c.48-.43,1-.84,1.51-1.23l.92,15.7.93-15.72c.62.48,1.23,1,1.81,1.51a19.85,19.85,0,0,1,3.12,3.63,14.39,14.39,0,0,1,1.15,2.06,15.47,15.47,0,0,1,.82,2.18,13.57,13.57,0,0,1,.38,2.28l.06.58v.15c0-.15,0,0,0,.06v.33l0,1.31a19.24,19.24,0,0,1-.39,2.29,19.8,19.8,0,0,1-.68,2.36,30.34,30.34,0,0,1-2.07,4.59,41.56,41.56,0,0,1-2.71,4.32c-.74,1.05-1.54,2.07-2.37,3.06-.91-1.09-1.8-2.24-2.62-3.41A44,44,0,0,1,281,156.7a32.27,32.27,0,0,1-2-5,21.42,21.42,0,0,1-.55-2.57,9.42,9.42,0,0,1-.14-1.29l0-1.22Z" transform="translate(-0.79 -5.27)"/><path class="cls-1" d="M489.55,112.32A61.83,61.83,0,0,1,479.4,119a85.86,85.86,0,0,1-17.11,6.57A188.47,188.47,0,0,1,439.63,130l-53.91,8.27-28,4.19a256.06,256.06,0,0,0-26.6,5.24,110.84,110.84,0,0,0-22.16,8,64.43,64.43,0,0,0-15.52,10.78c-1,.95-1.85,2-2.73,3a21.51,21.51,0,0,0-2.38,2.95c-.71,1.14-1.46,2.18-2.13,3.22-.07-.11-.14-.21-.2-.32L284,172.44a23,23,0,0,0-2.37-2.94c-.89-1-1.71-2.05-2.73-3a64.34,64.34,0,0,0-15.51-10.77,111.14,111.14,0,0,0-22.15-8,255.54,255.54,0,0,0-26.6-5.24l-28-4.19L132.76,130a188.47,188.47,0,0,1-22.66-4.49A85.86,85.86,0,0,1,93,119a61.35,61.35,0,0,1-10.16-6.64c-2.17-1.84-3.3-2.9-3.3-2.9s1.08,1.1,3.19,3a61.74,61.74,0,0,0,10,7.07,85.17,85.17,0,0,0,17.06,7.24A184.31,184.31,0,0,0,132.42,132c16.44,3,35,6.51,53.71,9.65l27.9,4.64c9.18,1.45,18,3.22,26.22,5.34a114.1,114.1,0,0,1,21.46,7.6,64.52,64.52,0,0,1,14.84,9.81,45.6,45.6,0,0,1,8,9.78l-1,2.18q-.3.66-.6,1.29l-.4,1.31c-.52,1.7-1,3.25-1.42,4.68-.54,2.92-.84,5.32-1.11,7.23,0,1.95,0,3.43,0,4.54a11.23,11.23,0,0,0,.21,2.92,12.84,12.84,0,0,0,.64-3c.16-1.08.38-2.52.66-4.39.5-1.83,1-4.1,1.77-6.82a54.22,54.22,0,0,1,2.94-7,54.76,54.76,0,0,1,3,7.1l1.76,6.84c.25,1.87.47,3.31.65,4.39a10.87,10.87,0,0,0,.62,2.87,12.54,12.54,0,0,0,.21-3c0-1.11,0-2.6,0-4.54-.28-1.91-.55-4.31-1.12-7.21l-1.41-4.68c-.14-.42-.25-.86-.41-1.29s-.4-.85-.6-1.29l-1-2.13a45.47,45.47,0,0,1,8-9.79,64.64,64.64,0,0,1,14.83-9.79,114,114,0,0,1,21.45-7.6c8.23-2.12,17-3.89,26.22-5.34l27.9-4.64C405,138.53,423.53,135,440,132a184.31,184.31,0,0,0,22.68-5.26,84.47,84.47,0,0,0,17.05-7.25,60.9,60.9,0,0,0,10-7.06c2.1-1.93,3.19-3,3.19-3S491.73,110.48,489.55,112.32Z" transform="translate(-0.79 -5.27)"/><path class="cls-1" d="M265.22,189.09a14.92,14.92,0,0,0-1.18,1.48c-.26.5-.46,1-.63,1.37a7.12,7.12,0,0,0-.49,2c-.07,1,.26,1.43.37,1.49a2.24,2.24,0,0,0,1.55-.39,6.36,6.36,0,0,0,1.48-1.16,9.83,9.83,0,0,0,.86-1c.34-.35.74-.72,1.14-1.18a78.83,78.83,0,0,1,5.24-5.92c1.84-1.69,3.24-3.11,3.24-3.11s-1.85.5-4.36,1.41S267,186.86,265.22,189.09Z" transform="translate(-0.79 -5.27)"/><path class="cls-1" d="M308.92,190.57a14.92,14.92,0,0,0-1.18-1.48c-1.75-2.23-4.81-4-7.22-5s-4.36-1.4-4.36-1.4,1.4,1.42,3.24,3.1,3.78,4,5.24,5.92c.4.46.8.83,1.14,1.18a11.34,11.34,0,0,0,.86,1,6.88,6.88,0,0,0,1.48,1.16,2.21,2.21,0,0,0,1.55.38c.1-.07.44-.49.37-1.5a7.23,7.23,0,0,0-.5-2A13.92,13.92,0,0,0,308.92,190.57Z" transform="translate(-0.79 -5.27)"/><path class="cls-1" d="M284,212.79c0,3.94,1.78,4.64,2,4.63s2-.69,2-4.63-2-9.64-2-9.64S284,208.85,284,212.79Z" transform="translate(-0.79 -5.27)"/><path class="cls-1" d="M259.27,172.85a57.84,57.84,0,0,0-9.7-6.9c-8.32-4.84-20-8.51-29.54-10.37A129.28,129.28,0,0,0,201.47,153c-3.3-.17-4.24.16-4.25.28s.72.79,3.85,1.9,8.7,2.49,18.15,4.36,20.9,4.4,29.44,8.21a63.54,63.54,0,0,1,10.21,5.58l3.76,2.8S261.41,174.89,259.27,172.85Z" transform="translate(-0.79 -5.27)"/><path class="cls-1" d="M369.41,153a127.36,127.36,0,0,0-18.55,2.55c-9.56,1.86-21.22,5.53-29.53,10.37a57.84,57.84,0,0,0-9.7,6.9c-2.14,2-3.36,3.3-3.36,3.3l3.75-2.8a63.26,63.26,0,0,1,10.22-5.58c8.53-3.81,20-6.37,29.43-8.21s15.05-3.25,18.18-4.36,3.86-1.78,3.82-1.89S372.69,152.86,369.41,153Z" transform="translate(-0.79 -5.27)"/></g><g id="Text"><path class="cls-1" d="M234.12,280.69l-13.69,18.79-25.5,14.63v-6.24l16.91-9.67-7.32-5.5-1.61,1.68h-7.58l13.76-13.69ZM219,302.5h24.49L227.2,324.38l-24.29,8.79v-5.71L221.17,321l-7.66-6.24-2.28,2.08h-7.85Zm-7.65-16.44-3,2.88,8.45,6.38,6.85-9.26ZM221,307.8,217.47,311l8.12,6.64,7.25-9.86Z" transform="translate(-0.79 -5.27)"/><path class="cls-1" d="M273.45,280.55v8.26h4.9v5.3h-4.9v12.35l4.16-1.68v6.11l-4.16,1.67v20.07h-5V314.71l-7.86,3.22v-6.17l7.86-3.22V294.11h-4.1l-1.14,9h-5.43l2.61-19.33h5.37l-.67,5h3.36v-8.26ZM311,295.05v5.17H279.49v-5.17h13.15v-5.44H281.57v-5.1h11.07v-5h5.17v5h11v5.1h-11v5.44Zm.27,11.47v5h-5.91v20.8H300v-20.8H279.49v-5H300v-4.36h5.3v4.36Zm-27.72,9.06h5.91l5,8.46h-6Z" transform="translate(-0.79 -5.27)"/><path class="cls-1" d="M324.12,287.4v-5.17h16.64v5.17h-5.63v9.26H340V302h-4.9V314l5.63-2.21v5.63l-16.37,6.18v-5.57l5.5-2V302h-5v-5.3h5V287.4Zm35.23,21.81h17.92v22.68h-5V314.18H368v15.3h-5.17v-15.3h-4.29v15.3h-5.17v-15.3h-4.23v17.71h-5V309.21h9.73l1.74-5H344.39v-5.1h32.34v5.1H361.17ZM375.53,283v13.42H345.8V283H351v8.18h7.05v-11h5.23v11h7.05V283Z" transform="translate(-0.79 -5.27)"/><path class="cls-1" d="M142.57,407.88v4.63H130.83v9.73H126.2v-9.73H90.5v-4.63h35.7v-3.22l-34,.4-.06-4.7,22.14-.27v-3.28H95.6V378.62h18.65v-1.95H92.11V372h22.14v-2.82h4.57V372H141v4.63H118.82v1.95h18.65v18.19H118.82V400l13-.2-.87-1.68h5.23l4.09,7.92H135l-.81-1.55-3.35.07v3.29Zm-28.32-24.7h-14v2.15h14Zm-14,9h14V390h-14Zm1.54,21.87h6.51l4.56,5.77h-6.51Zm31.07-30.87h-14v2.15h14Zm-14,9h14V390h-14Z" transform="translate(-0.79 -5.27)"/><path class="cls-1" d="M208,370.3v10.6H164.86L162.38,422h-4.3l2.68-43.28V370.3Zm-4.23,6.37v-2.08H165v2.08Zm-26.71,24.77h31.34l-.94,21.61h-4l.74-17.52H187.61v1.61h10.27v8.73H187.61v1.74l7.65-.34-.2-.4H199l1.68,5.3h-3.9l-.4-1.34-24.69,1.08v-3.63l12.41-.54v-1.87h-8.86v-8.73h8.86v-1.61h-9.6l-1.81,2.75h-4.83l5.24-8h-3.83v-9.4h36.1v9.4H177.88Zm4.83-19.06v3.09h-13v-3.09Zm-13,7.11V386.4h13v3.09Zm3.49,4.5v3.09H180V394Zm6.38,18.39h5.3v-1.75h-5.3Zm5.23-15.3h6.51V394H184Zm4.16-7.25h-3.22v-8h3.22Zm6.25,20.8h-6.78v1.75h6.78Zm9.66-28.25v3.09H191v-3.09Zm-13,7.11V386.4h13v3.09Zm11.14,7.59V394h-7.65v3.09Z" transform="translate(-0.79 -5.27)"/><path class="cls-1" d="M233.32,381.37v41.68h-5.17V394.46h-4.63l8.52-25.3h5.37Zm40,19.73v-4H260.36l2,2.55h-5.43l-2-2.55H241.64v4h-4.3v-8.25h7.12v-16h8.12l1.61-2.82h-14.5v-4.5h35.57V374h-16l-1.54,2.82h12.81v16h7.12v8.25Zm-30.4,5.17h-5l2.62-4.16h5.1Zm21.61,10.6,11.54,2.55v4l-16.37-3.63-20.4,3.23v-3.7l14.76-2.21L247.68,414l-1.21.94H240.9l7.65-6.31h21.74Zm-12.88-18.25v4h14.89v4.23H247.61v-8.19Zm-3.56-18.19v1.81h18.79v-1.81Zm0,7.05h18.79v-1.81H248.08Zm0,5.37h18.79V391H248.08Zm15.5,19.26h-11l8.18,4.09Zm12.55-6h-5.37l-4-5.37h5.44Z" transform="translate(-0.79 -5.27)"/><path class="cls-1" d="M292.11,419.56l3.82-8.33h5.91l-3.76,8.33Zm23.42-40.13V376.2H293.11v-4.76h22.42v-2.35h4.7v2.35h22.41v4.76H320.23v3.23h17.18v16.44H320.23V399l13.95-.13-.6-1.55h5.1l2.89,7.79h-5.1l-.54-1.55L296,404v-4.77l19.53-.13v-3.22H298.35V379.43Zm0,4.16h-13v1.94h13Zm-13,8.12h13v-1.95h-13Zm7.78,14.49v11.14h24.9v5.37H305V406.2Zm9.47,7.79-4.57-6.92h6.31l4.63,6.92Zm13.49-30.4h-13v1.94h13Zm-13,8.12h13v-1.95h-13ZM339,409.76l5.36,7.65h-6.5l-5.37-7.65Z" transform="translate(-0.79 -5.27)"/><path class="cls-1" d="M411.43,373.32v4.9H392.37L409.29,390h-8.93l-3.15-2.22v1.55H376.94V392h21.47v4.1H376.94v2.21h21.47v4.1H376.94v2.41h32.28v4.7H378.75l-3.56,6.71,21.61-1.14-1.21-3h5.24l4.83,10.8h-5.43l-1.28-3L366.6,421.7l6.58-12.21H360.36v-4.7h12V388L369.69,390h-8.52l15.7-11.81H358.15v-4.9H382v-3.76h4.9v3.76Zm-34.76,11.47h16.11l-8.32-5.9Z" transform="translate(-0.79 -5.27)"/><path class="cls-1" d="M476.27,404.93H456l5.84,6.17,3.42-2.88h8l-7.86,6.64,7.79,8.39h-6.85l-16.84-18-4.63,3.42v8.19l6.71-1.07v5.1l-11.68,1.88V412.31l-4.09,2.95h-8.52l14.22-10.33H428v-5h21.67V395.4h5v4.49h21.68Zm-47-8.59,2.22-7.72H428v-5h12.41V380.9H429.49V370.7h5v5.24h5.84v-6.45h5v26.24h-5v-7.11H436.6l-2.14,7.72Zm30.2-7.59v-6.51H447.81v-5h11.61V369.9h5v7.38h11.6v5h-11.6v6.51h9.39v5H450.09v-5Z" transform="translate(-0.79 -5.27)"/></g></svg>