<svg id="Layer_1" data-name="Layer 1" xmlns="http://www.w3.org/2000/svg" viewBox="0 0 580.18 190.02"><defs><style>.cls-1{fill:#010101;}.cls-2{fill:#f3eae1;}</style></defs><title>Artboard 1</title><path class="cls-1" d="M575.49,71.21q-11.29-1.6-22.6-3.09-6.84,25.83-13.5,51.69,6.24-49.75,12.47-99.52a2072.37,2072.37,0,0,0-523.75,0q6.35,49.74,12.68,99.49-6.66-25.86-13.5-51.69Q16,69.6,4.69,71.21,17.53,99.8,29.86,128.54,25.48,159.28,21.6,190q32.38-4.61,64.87-8.1-25-21.1-51-41.55a1953.47,1953.47,0,0,1,509.24,0q-26,20.44-51,41.55,32.48,3.5,64.87,8.1-3.87-30.74-8.26-61.48Q562.65,99.8,575.49,71.21Z"/><path class="cls-1" d="M94.12,181.11q-2.15-20.76-4.3-41.53-20.25,2.08-40.46,4.61Q72.15,162.39,94.12,181.11Z"/><path class="cls-1" d="M490.36,139.58q-2.14,20.76-4.3,41.53,22-18.72,44.76-36.92Q510.62,141.67,490.36,139.58Z"/><path class="cls-2" d="M106.09,105.93q1.11-8,2.24-16l8.33-.74q-1.12,8-2.2,16Zm44.16-33.26q16.49-1.15,33-2,.09,16.42.21,32.84l-7.65.43q-.17-12.73-.33-25.46Q145.18,80.17,115,82.84q-2.14-24.47-4.3-48.93,31.17-2.73,62.4-4.52l.42,7.35q-12.81.73-25.62,1.63.21,3.14.44,6.27,11.61-.81,23.22-1.49.22,3.89.46,7.75-11.58.68-23.14,1.48c.14,2.09.29,4.18.43,6.27q11.53-.8,23.07-1.47l.45,7.74q-11.49.67-23,1.48Q150,69.54,150.25,72.67ZM139.53,39q-10.16.75-20.33,1.6c.18,2.09.35,4.18.53,6.27Q129.86,46,140,45.24C139.84,43.15,139.69,41.06,139.53,39ZM141,59.25c-.15-2.09-.31-4.18-.46-6.27q-10.09.74-20.19,1.59c.17,2.09.35,4.18.52,6.27Q131,60,141,59.25Zm-19.48,9.32c.18,2.09.35,4.17.53,6.26q10-.84,20-1.57c-.16-2.09-.31-4.18-.47-6.27Q131.58,67.73,121.55,68.57Zm3.23,19.94c2.67-.23,5.35-.44,8-.66Q134,94,135.22,100.18l-8.08.65Q126,94.67,124.78,88.51Zm14.7-2.65,8-.59,3.21,10.31-8,.58Q141.11,91,139.48,85.86Zm14.68-1.75,8.55-.56q1.86,4.76,3.7,9.51c-2.88.18-5.75.36-8.62.56C156.59,90.45,155.37,87.28,154.16,84.11Z"/><path class="cls-2" d="M249.46,91.59q19.18-.39,38.37-.42,0,4.13,0,8.25-39.43,0-78.86,1.67-.16-4.12-.34-8.25,16.11-.66,32.21-1.06-.81-32.44-1.61-64.91l8.9-.2.52,25.73q16.91-.34,33.79-.41,0,4.13,0,8.25-16.83.07-33.66.41Z"/><path class="cls-2" d="M310.1,100.61q1.65-6.76,3.32-13.52c2.71,0,5.42.06,8.12.11l-3.48,13.5C315.41,100.66,312.75,100.63,310.1,100.61ZM338.17,27.2q-.63,27.06-1.27,54.11-12.36-.28-24.75-.43l.6-54.12Q325.47,26.91,338.17,27.2Zm-6.79,6.14-12-.21q-.07,4.47-.13,8.94,6,.09,12,.21Q331.28,37.81,331.38,33.34Zm-.33,16.3q-6-.12-11.95-.2L319,58.37l11.89.21ZM318.74,74.58c3.93.06,7.87.12,11.8.2l.18-8.83q-5.93-.12-11.85-.21C318.83,68.69,318.79,71.63,318.74,74.58Zm9.08,12.73c2.7,0,5.41.1,8.12.17l2.58,12.14-8.07-.18Q329.15,93.38,327.82,87.31Zm64.37-.59-.33,6.47-5.64-.28-.48,10-6.23-.29.45-10q-13.89-.63-27.79-1.07c-.11,3.34-.21,6.68-.32,10q-3.06-.1-6.12-.18c.09-3.34.19-6.68.28-10l-5.74-.15c.05-2.16.11-4.32.16-6.48l5.76.15.63-22.09q8.54.24,17.06.55c.06-1.67.13-3.34.19-5q-10.8-.39-21.6-.67c.06-2.13.11-4.26.17-6.38q5.91.15,11.82.34l.14-4.32-6.19-.19.18-6.19,6.21.19c.05-1.5.09-3,.14-4.51-3.2-.11-6.4-.2-9.59-.29,0-2.09.11-4.19.17-6.28l9.62.28c.06-1.76.11-3.53.17-5.3l6.78.23-.18,5.3q6.45.22,12.9.49c.07-1.76.15-3.53.22-5.3l6.89.3-.24,5.3c3.24.14,6.48.3,9.73.46q-.17,3.14-.31,6.28c-3.24-.16-6.47-.32-9.7-.46-.07,1.5-.14,3-.2,4.51l6.31.3-.3,6.18-6.29-.3-.19,4.32q6,.27,11.92.57c-.11,2.13-.21,4.25-.32,6.38q-10.84-.55-21.69-1c-.07,1.66-.14,3.33-.2,5q8.58.34,17.16.76-.53,11-1.07,22.08ZM363.67,69.24l-10.79-.37c-.06,1.67-.11,3.34-.16,5q5.38.16,10.76.37C363.54,72.58,363.61,70.91,363.67,69.24ZM352.52,80.16l-.15,4.91,10.7.37.18-4.91Zm9.17-43.33c-.05,1.51-.11,3-.16,4.52q6.42.23,12.83.49c.06-1.51.13-3,.19-4.52Q368.12,37.07,361.69,36.83Zm-.38,10.7-.15,4.32q6.39.23,12.77.49l.18-4.32Q367.7,47.75,361.31,47.53ZM381,70c-3.59-.16-7.19-.32-10.79-.46-.06,1.67-.13,3.34-.2,5q5.38.21,10.76.45C380.84,73.29,380.92,71.62,381,70ZM369.56,85.69l10.7.45c.07-1.63.15-3.27.22-4.91-3.58-.16-7.15-.31-10.73-.45Z"/><path class="cls-2" d="M423,29.37q35.82,2.32,71.59,5.91l-2.13,21.21Q457,52.93,421.57,50.64Zm-1.84,77.16q2.91-3.7,5.83-7.39,5.73.4,11.45.83-2.89,3.68-5.77,7.36Q426.88,106.91,421.11,106.53ZM485.31,60l-3.9,40.38q-28.12-2.72-56.29-4.64l2.76-40.47Q456.62,57.25,485.31,60Zm-56-23.84c-.2,2.88-.39,5.75-.59,8.63q7.24.49,14.49,1,.33-4.32.65-8.62Q436.57,36.68,429.29,36.19Zm48.43,29.63q-21.63-2-43.3-3.57l-.3,4.21Q455.73,68,477.33,70Zm-1.08,11.54q-21.51-2-43.05-3.55l-.31,4.31q21.5,1.55,43,3.55C476.38,80.23,476.51,78.8,476.64,77.36Zm-44.2,12.52q21.36,1.53,42.71,3.52c.13-1.43.27-2.87.4-4.3q-21.39-2-42.8-3.53C432.64,87,432.54,88.44,432.44,89.88Zm32.07-51q-6.33-.54-12.65-1l-.69,8.61q6.3.51,12.6,1C464,44.64,464.26,41.77,464.51,38.9Zm21.82,10.67q.41-4.3.83-8.6-7.32-.72-14.64-1.37-.39,4.31-.77,8.61Q479,48.87,486.33,49.57ZM469,102.51q5.67.51,11.34,1.06,2.17,4.11,4.34,8.22l-11.29-1.09Q471.26,106.6,469,102.51Z"/></svg>