<?xml version="1.0" encoding="utf-8"?>
<!-- Generator: Adobe Illustrator 22.1.0, SVG Export Plug-In . SVG Version: 6.00 Build 0)  -->
<svg version="1.1" id="Layer_1" xmlns="http://www.w3.org/2000/svg" xmlns:xlink="http://www.w3.org/1999/xlink" x="0px" y="0px"
	 viewBox="0 0 728.5 1031.8" style="enable-background:new 0 0 728.5 1031.8;" xml:space="preserve">
<style type="text/css">
	.st0{fill:none;}
	.st1{font-family:'TsangerJinKai01JF-W04';}
	.st2{font-size:125px;}
	.st3{font-size:80px;}
	.st4{font-family:'TsangerJinKai01JF-W02';}
	.st5{font-size:70px;}
</style>
<g id="Layer_1_1_">
	<g>
		<g>
			<g>
				<g>
					<path d="M42.6,274.2c0,2.1-1.7,3.8-3.7,3.8c-2.1,0-3.7-1.7-3.7-3.8c0-2.1,1.7-3.7,3.7-3.7C40.9,270.5,42.6,272.2,42.6,274.2z"
						/>
				</g>
				<g>
					<path d="M56.9,274.2c0,2.1-1.7,3.8-3.7,3.8s-3.7-1.7-3.7-3.8c0-2.1,1.7-3.7,3.7-3.7S56.9,272.2,56.9,274.2z"/>
				</g>
				<g>
					<path d="M71.2,274.2c0,2.1-1.7,3.8-3.7,3.8c-2.1,0-3.7-1.7-3.7-3.8c0-2.1,1.7-3.7,3.7-3.7S71.2,272.2,71.2,274.2z"/>
				</g>
				<g>
					<path d="M85.4,274.2c0,2.1-1.7,3.8-3.7,3.8c-2.1,0-3.7-1.7-3.7-3.8c0-2.1,1.7-3.7,3.7-3.7C83.7,270.5,85.4,272.2,85.4,274.2z"
						/>
				</g>
				<g>
					<path d="M99.7,274.2c0,2.1-1.7,3.8-3.7,3.8c-2.1,0-3.7-1.7-3.7-3.8c0-2.1,1.7-3.7,3.7-3.7S99.7,272.2,99.7,274.2z"/>
				</g>
				<g>
					<path d="M114,274.2c0,2.1-1.7,3.8-3.7,3.8s-3.7-1.7-3.7-3.8c0-2.1,1.7-3.7,3.7-3.7S114,272.2,114,274.2z"/>
				</g>
				<g>
					<path d="M128.2,274.2c0,2.1-1.7,3.8-3.7,3.8c-2.1,0-3.7-1.7-3.7-3.8c0-2.1,1.7-3.7,3.7-3.7
						C126.6,270.5,128.2,272.2,128.2,274.2z"/>
				</g>
				<g>
					<path d="M142.5,274.2c0,2.1-1.7,3.8-3.7,3.8s-3.7-1.7-3.7-3.8c0-2.1,1.7-3.7,3.7-3.7S142.5,272.2,142.5,274.2z"/>
				</g>
				<g>
					<path d="M156.8,274.2c0,2.1-1.7,3.8-3.7,3.8s-3.7-1.7-3.7-3.8c0-2.1,1.7-3.7,3.7-3.7S156.8,272.2,156.8,274.2z"/>
				</g>
				<g>
					<path d="M171.1,274.2c0,2.1-1.7,3.8-3.7,3.8c-2.1,0-3.7-1.7-3.7-3.8c0-2.1,1.7-3.7,3.7-3.7
						C169.4,270.5,171.1,272.2,171.1,274.2z"/>
				</g>
				<g>
					<path d="M185.3,274.2c0,2.1-1.7,3.8-3.7,3.8c-2.1,0-3.7-1.7-3.7-3.8c0-2.1,1.7-3.7,3.7-3.7
						C183.7,270.5,185.3,272.2,185.3,274.2z"/>
				</g>
				<g>
					<path d="M199.6,274.2c0,2.1-1.7,3.8-3.7,3.8c-2.1,0-3.7-1.7-3.7-3.8c0-2.1,1.7-3.7,3.7-3.7
						C197.9,270.5,199.6,272.2,199.6,274.2z"/>
				</g>
				<g>
					<path d="M213.9,274.2c0,2.1-1.7,3.8-3.7,3.8c-2.1,0-3.7-1.7-3.7-3.8c0-2.1,1.7-3.7,3.7-3.7S213.9,272.2,213.9,274.2z"/>
				</g>
				<g>
					<path d="M228.2,274.2c0,2.1-1.7,3.8-3.7,3.8s-3.7-1.7-3.7-3.8c0-2.1,1.7-3.7,3.7-3.7S228.2,272.2,228.2,274.2z"/>
				</g>
				<g>
					<path d="M242.4,274.2c0,2.1-1.7,3.8-3.7,3.8c-2.1,0-3.7-1.7-3.7-3.8c0-2.1,1.7-3.7,3.7-3.7S242.4,272.2,242.4,274.2z"/>
				</g>
				<g>
					<path d="M256.7,274.2c0,2.1-1.7,3.8-3.7,3.8s-3.7-1.7-3.7-3.8c0-2.1,1.7-3.7,3.7-3.7S256.7,272.2,256.7,274.2z"/>
				</g>
				<g>
					<path d="M271,274.2c0,2.1-1.7,3.8-3.7,3.8c-2.1,0-3.7-1.7-3.7-3.8c0-2.1,1.7-3.7,3.7-3.7S271,272.2,271,274.2z"/>
				</g>
				<g>
					<path d="M285.2,274.2c0,2.1-1.7,3.8-3.7,3.8c-2.1,0-3.7-1.7-3.7-3.8c0-2.1,1.7-3.7,3.7-3.7
						C283.6,270.5,285.2,272.2,285.2,274.2z"/>
				</g>
				<g>
					<path d="M299.5,274.2c0,2.1-1.7,3.8-3.7,3.8c-2.1,0-3.7-1.7-3.7-3.8c0-2.1,1.7-3.7,3.7-3.7S299.5,272.2,299.5,274.2z"/>
				</g>
				<g>
					<path d="M313.8,274.2c0,2.1-1.7,3.8-3.8,3.8s-3.7-1.7-3.7-3.8c0-2.1,1.7-3.7,3.7-3.7S313.8,272.2,313.8,274.2z"/>
				</g>
				<g>
					<path d="M328.1,274.2c0,2.1-1.7,3.8-3.7,3.8s-3.7-1.7-3.7-3.8c0-2.1,1.7-3.7,3.7-3.7S328.1,272.2,328.1,274.2z"/>
				</g>
				<g>
					<path d="M342.3,274.2c0,2.1-1.7,3.8-3.8,3.8s-3.7-1.7-3.7-3.8c0-2.1,1.7-3.7,3.7-3.7S342.3,272.2,342.3,274.2z"/>
				</g>
				<g>
					<path d="M356.6,274.2c0,2.1-1.7,3.8-3.7,3.8s-3.7-1.7-3.7-3.8c0-2.1,1.7-3.7,3.7-3.7S356.6,272.2,356.6,274.2z"/>
				</g>
				<g>
					<path d="M370.9,274.2c0,2.1-1.7,3.8-3.7,3.8c-2.1,0-3.7-1.7-3.7-3.8c0-2.1,1.7-3.7,3.7-3.7
						C369.2,270.5,370.9,272.2,370.9,274.2z"/>
				</g>
				<g>
					<path d="M385.2,274.2c0,2.1-1.7,3.8-3.7,3.8c-2.1,0-3.7-1.7-3.7-3.8c0-2.1,1.7-3.7,3.7-3.7S385.2,272.2,385.2,274.2z"/>
				</g>
				<g>
					<path d="M399.4,274.2c0,2.1-1.7,3.8-3.8,3.8c-2.1,0-3.7-1.7-3.7-3.8c0-2.1,1.7-3.7,3.7-3.7
						C397.7,270.5,399.4,272.2,399.4,274.2z"/>
				</g>
				<g>
					<path d="M413.7,274.2c0,2.1-1.7,3.8-3.8,3.8c-2.1,0-3.7-1.7-3.7-3.8c0-2.1,1.7-3.7,3.7-3.7C412,270.5,413.7,272.2,413.7,274.2z
						"/>
				</g>
				<g>
					<path d="M428,274.2c0,2.1-1.7,3.8-3.8,3.8s-3.7-1.7-3.7-3.8c0-2.1,1.7-3.7,3.7-3.7S428,272.2,428,274.2z"/>
				</g>
				<g>
					<path d="M442.2,274.2c0,2.1-1.7,3.8-3.7,3.8c-2.1,0-3.8-1.7-3.8-3.8c0-2.1,1.7-3.7,3.8-3.7
						C440.6,270.5,442.2,272.2,442.2,274.2z"/>
				</g>
				<g>
					<path d="M456.5,274.2c0,2.1-1.7,3.8-3.7,3.8c-2.1,0-3.7-1.7-3.7-3.8c0-2.1,1.7-3.7,3.7-3.7S456.5,272.2,456.5,274.2z"/>
				</g>
				<g>
					<path d="M470.8,274.2c0,2.1-1.7,3.8-3.7,3.8c-2.1,0-3.7-1.7-3.7-3.8c0-2.1,1.7-3.7,3.7-3.7
						C469.1,270.5,470.8,272.2,470.8,274.2z"/>
				</g>
				<g>
					<path d="M485.1,274.2c0,2.1-1.7,3.8-3.7,3.8c-2.1,0-3.7-1.7-3.7-3.8c0-2.1,1.7-3.7,3.7-3.7S485.1,272.2,485.1,274.2z"/>
				</g>
				<g>
					<path d="M499.3,274.2c0,2.1-1.7,3.8-3.7,3.8s-3.7-1.7-3.7-3.8c0-2.1,1.7-3.7,3.7-3.7S499.3,272.2,499.3,274.2z"/>
				</g>
				<g>
					<path d="M513.6,274.2c0,2.1-1.7,3.8-3.7,3.8s-3.7-1.7-3.7-3.8c0-2.1,1.7-3.7,3.7-3.7S513.6,272.2,513.6,274.2z"/>
				</g>
				<g>
					<path d="M527.9,274.2c0,2.1-1.7,3.8-3.7,3.8s-3.7-1.7-3.7-3.8c0-2.1,1.7-3.7,3.7-3.7S527.9,272.2,527.9,274.2z"/>
				</g>
				<g>
					<path d="M542.2,274.2c0,2.1-1.7,3.8-3.7,3.8c-2.1,0-3.7-1.7-3.7-3.8c0-2.1,1.7-3.7,3.7-3.7S542.2,272.2,542.2,274.2z"/>
				</g>
				<g>
					<path d="M556.4,274.2c0,2.1-1.7,3.8-3.7,3.8c-2.1,0-3.7-1.7-3.7-3.8c0-2.1,1.7-3.7,3.7-3.7
						C554.8,270.5,556.4,272.2,556.4,274.2z"/>
				</g>
				<g>
					<path d="M570.7,274.2c0,2.1-1.7,3.8-3.7,3.8c-2.1,0-3.7-1.7-3.7-3.8c0-2.1,1.7-3.7,3.7-3.7S570.7,272.2,570.7,274.2z"/>
				</g>
				<g>
					<path d="M585,274.2c0,2.1-1.7,3.8-3.7,3.8c-2.1,0-3.7-1.7-3.7-3.8c0-2.1,1.7-3.7,3.7-3.7S585,272.2,585,274.2z"/>
				</g>
				<g>
					<path d="M599.2,274.2c0,2.1-1.7,3.8-3.7,3.8c-2.1,0-3.7-1.7-3.7-3.8c0-2.1,1.7-3.7,3.7-3.7
						C597.6,270.5,599.2,272.2,599.2,274.2z"/>
				</g>
				<g>
					<path d="M613.5,274.2c0,2.1-1.7,3.8-3.7,3.8c-2.1,0-3.7-1.7-3.7-3.8c0-2.1,1.7-3.7,3.7-3.7S613.5,272.2,613.5,274.2z"/>
				</g>
				<g>
					<path d="M627.8,274.2c0,2.1-1.7,3.8-3.7,3.8c-2.1,0-3.7-1.7-3.7-3.8c0-2.1,1.7-3.7,3.7-3.7S627.8,272.2,627.8,274.2z"/>
				</g>
				<g>
					<path d="M642.1,274.2c0,2.1-1.7,3.8-3.7,3.8c-2.1,0-3.7-1.7-3.7-3.8c0-2.1,1.7-3.7,3.7-3.7
						C640.4,270.5,642.1,272.2,642.1,274.2z"/>
				</g>
				<g>
					<path d="M656.3,274.2c0,2.1-1.7,3.8-3.7,3.8c-2.1,0-3.7-1.7-3.7-3.8c0-2.1,1.7-3.7,3.7-3.7
						C654.7,270.5,656.3,272.2,656.3,274.2z"/>
				</g>
				<g>
					<path d="M670.6,274.2c0,2.1-1.7,3.8-3.7,3.8c-2.1,0-3.7-1.7-3.7-3.8c0-2.1,1.7-3.7,3.7-3.7
						C668.9,270.5,670.6,272.2,670.6,274.2z"/>
				</g>
				<g>
					<path d="M684.9,274.2c0,2.1-1.7,3.8-3.7,3.8c-2.1,0-3.7-1.7-3.7-3.8c0-2.1,1.7-3.7,3.7-3.7S684.9,272.2,684.9,274.2z"/>
				</g>
			</g>
			<g>
				<g>
					<path d="M48.3,698.1c0,2.1-1.7,3.8-3.7,3.8c-2.1,0-3.7-1.7-3.7-3.8s1.7-3.7,3.7-3.7C46.6,694.4,48.3,696,48.3,698.1z"/>
				</g>
				<g>
					<path d="M62.5,698.1c0,2.1-1.7,3.8-3.7,3.8c-2.1,0-3.7-1.7-3.7-3.8s1.7-3.7,3.7-3.7C60.9,694.4,62.5,696,62.5,698.1z"/>
				</g>
				<g>
					<path d="M76.8,698.1c0,2.1-1.7,3.8-3.7,3.8c-2.1,0-3.7-1.7-3.7-3.8s1.7-3.7,3.7-3.7C75.1,694.4,76.8,696,76.8,698.1z"/>
				</g>
				<g>
					<path d="M91.1,698.1c0,2.1-1.7,3.8-3.7,3.8c-2.1,0-3.7-1.7-3.7-3.8s1.7-3.7,3.7-3.7C89.4,694.4,91.1,696,91.1,698.1z"/>
				</g>
				<g>
					<path d="M105.4,698.1c0,2.1-1.7,3.8-3.7,3.8c-2.1,0-3.7-1.7-3.7-3.8s1.7-3.7,3.7-3.7C103.7,694.4,105.4,696,105.4,698.1z"/>
				</g>
				<g>
					<path d="M119.6,698.1c0,2.1-1.7,3.8-3.7,3.8s-3.7-1.7-3.7-3.8s1.7-3.7,3.7-3.7S119.6,696,119.6,698.1z"/>
				</g>
				<g>
					<path d="M133.9,698.1c0,2.1-1.7,3.8-3.7,3.8c-2.1,0-3.7-1.7-3.7-3.8s1.7-3.7,3.7-3.7C132.2,694.4,133.9,696,133.9,698.1z"/>
				</g>
				<g>
					<path d="M148.2,698.1c0,2.1-1.7,3.8-3.7,3.8c-2.1,0-3.7-1.7-3.7-3.8s1.7-3.7,3.7-3.7C146.5,694.4,148.2,696,148.2,698.1z"/>
				</g>
				<g>
					<path d="M162.4,698.1c0,2.1-1.7,3.8-3.7,3.8s-3.7-1.7-3.7-3.8s1.7-3.7,3.7-3.7S162.4,696,162.4,698.1z"/>
				</g>
				<g>
					<path d="M176.7,698.1c0,2.1-1.7,3.8-3.7,3.8c-2.1,0-3.7-1.7-3.7-3.8s1.7-3.7,3.7-3.7C175,694.4,176.7,696,176.7,698.1z"/>
				</g>
				<g>
					<path d="M191,698.1c0,2.1-1.7,3.8-3.7,3.8c-2.1,0-3.7-1.7-3.7-3.8s1.7-3.7,3.7-3.7C189.3,694.4,191,696,191,698.1z"/>
				</g>
				<g>
					<path d="M205.3,698.1c0,2.1-1.7,3.8-3.7,3.8c-2.1,0-3.7-1.7-3.7-3.8s1.7-3.7,3.7-3.7C203.6,694.4,205.3,696,205.3,698.1z"/>
				</g>
				<g>
					<path d="M219.5,698.1c0,2.1-1.7,3.8-3.7,3.8c-2.1,0-3.7-1.7-3.7-3.8s1.7-3.7,3.7-3.7C217.9,694.4,219.5,696,219.5,698.1z"/>
				</g>
				<g>
					<path d="M233.8,698.1c0,2.1-1.7,3.8-3.7,3.8s-3.7-1.7-3.7-3.8s1.7-3.7,3.7-3.7S233.8,696,233.8,698.1z"/>
				</g>
				<g>
					<path d="M248.1,698.1c0,2.1-1.7,3.8-3.7,3.8s-3.7-1.7-3.7-3.8s1.7-3.7,3.7-3.7S248.1,696,248.1,698.1z"/>
				</g>
				<g>
					<path d="M262.4,698.1c0,2.1-1.7,3.8-3.7,3.8s-3.7-1.7-3.7-3.8s1.7-3.7,3.7-3.7S262.4,696,262.4,698.1z"/>
				</g>
				<g>
					<path d="M276.6,698.1c0,2.1-1.7,3.8-3.7,3.8c-2.1,0-3.7-1.7-3.7-3.8s1.7-3.7,3.7-3.7C274.9,694.4,276.6,696,276.6,698.1z"/>
				</g>
				<g>
					<path d="M290.9,698.1c0,2.1-1.7,3.8-3.7,3.8c-2.1,0-3.7-1.7-3.7-3.8s1.7-3.7,3.7-3.7C289.2,694.4,290.9,696,290.9,698.1z"/>
				</g>
				<g>
					<path d="M305.2,698.1c0,2.1-1.7,3.8-3.7,3.8c-2.1,0-3.7-1.7-3.7-3.8s1.7-3.7,3.7-3.7C303.5,694.4,305.2,696,305.2,698.1z"/>
				</g>
				<g>
					<path d="M319.4,698.1c0,2.1-1.7,3.8-3.8,3.8s-3.7-1.7-3.7-3.8s1.7-3.7,3.7-3.7S319.4,696,319.4,698.1z"/>
				</g>
				<g>
					<path d="M333.7,698.1c0,2.1-1.7,3.8-3.7,3.8s-3.7-1.7-3.7-3.8s1.7-3.7,3.7-3.7S333.7,696,333.7,698.1z"/>
				</g>
				<g>
					<path d="M348,698.1c0,2.1-1.7,3.8-3.8,3.8s-3.7-1.7-3.7-3.8s1.7-3.7,3.7-3.7S348,696,348,698.1z"/>
				</g>
				<g>
					<path d="M362.3,698.1c0,2.1-1.7,3.8-3.7,3.8s-3.7-1.7-3.7-3.8s1.7-3.7,3.7-3.7S362.3,696,362.3,698.1z"/>
				</g>
				<g>
					<path d="M376.5,698.1c0,2.1-1.7,3.8-3.7,3.8c-2.1,0-3.7-1.7-3.7-3.8s1.7-3.7,3.7-3.7C374.9,694.4,376.5,696,376.5,698.1z"/>
				</g>
				<g>
					<path d="M390.8,698.1c0,2.1-1.7,3.8-3.7,3.8c-2.1,0-3.7-1.7-3.7-3.8s1.7-3.7,3.7-3.7C389.1,694.4,390.8,696,390.8,698.1z"/>
				</g>
				<g>
					<path d="M405.1,698.1c0,2.1-1.7,3.8-3.8,3.8c-2.1,0-3.7-1.7-3.7-3.8s1.7-3.7,3.7-3.7C403.4,694.4,405.1,696,405.1,698.1z"/>
				</g>
				<g>
					<path d="M419.4,698.1c0,2.1-1.7,3.8-3.8,3.8c-2.1,0-3.7-1.7-3.7-3.8s1.7-3.7,3.7-3.7C417.7,694.4,419.4,696,419.4,698.1z"/>
				</g>
				<g>
					<path d="M433.6,698.1c0,2.1-1.7,3.8-3.8,3.8s-3.7-1.7-3.7-3.8s1.7-3.7,3.7-3.7S433.6,696,433.6,698.1z"/>
				</g>
				<g>
					<path d="M447.9,698.1c0,2.1-1.7,3.8-3.7,3.8c-2.1,0-3.8-1.7-3.8-3.8s1.7-3.7,3.8-3.7C446.2,694.4,447.9,696,447.9,698.1z"/>
				</g>
				<g>
					<path d="M462.2,698.1c0,2.1-1.7,3.8-3.7,3.8c-2.1,0-3.7-1.7-3.7-3.8s1.7-3.7,3.7-3.7C460.5,694.4,462.2,696,462.2,698.1z"/>
				</g>
				<g>
					<path d="M476.4,698.1c0,2.1-1.7,3.8-3.7,3.8c-2.1,0-3.7-1.7-3.7-3.8s1.7-3.7,3.7-3.7C474.8,694.4,476.4,696,476.4,698.1z"/>
				</g>
				<g>
					<path d="M490.7,698.1c0,2.1-1.7,3.8-3.7,3.8c-2.1,0-3.7-1.7-3.7-3.8s1.7-3.7,3.7-3.7C489,694.4,490.7,696,490.7,698.1z"/>
				</g>
				<g>
					<path d="M505,698.1c0,2.1-1.7,3.8-3.7,3.8s-3.7-1.7-3.7-3.8s1.7-3.7,3.7-3.7S505,696,505,698.1z"/>
				</g>
				<g>
					<path d="M519.3,698.1c0,2.1-1.7,3.8-3.7,3.8c-2.1,0-3.7-1.7-3.7-3.8s1.7-3.7,3.7-3.7C517.6,694.4,519.3,696,519.3,698.1z"/>
				</g>
				<g>
					<path d="M533.5,698.1c0,2.1-1.7,3.8-3.7,3.8c-2.1,0-3.7-1.7-3.7-3.8s1.7-3.7,3.7-3.7C531.9,694.4,533.5,696,533.5,698.1z"/>
				</g>
				<g>
					<path d="M547.8,698.1c0,2.1-1.7,3.8-3.7,3.8c-2.1,0-3.7-1.7-3.7-3.8s1.7-3.7,3.7-3.7C546.1,694.4,547.8,696,547.8,698.1z"/>
				</g>
				<g>
					<path d="M562.1,698.1c0,2.1-1.7,3.8-3.7,3.8c-2.1,0-3.7-1.7-3.7-3.8s1.7-3.7,3.7-3.7C560.4,694.4,562.1,696,562.1,698.1z"/>
				</g>
				<g>
					<path d="M576.4,698.1c0,2.1-1.7,3.8-3.7,3.8c-2.1,0-3.7-1.7-3.7-3.8s1.7-3.7,3.7-3.7C574.7,694.4,576.4,696,576.4,698.1z"/>
				</g>
				<g>
					<path d="M590.6,698.1c0,2.1-1.7,3.8-3.7,3.8c-2.1,0-3.7-1.7-3.7-3.8s1.7-3.7,3.7-3.7C589,694.4,590.6,696,590.6,698.1z"/>
				</g>
				<g>
					<path d="M604.9,698.1c0,2.1-1.7,3.8-3.7,3.8c-2.1,0-3.7-1.7-3.7-3.8s1.7-3.7,3.7-3.7C603.2,694.4,604.9,696,604.9,698.1z"/>
				</g>
				<g>
					<path d="M619.2,698.1c0,2.1-1.7,3.8-3.7,3.8c-2.1,0-3.7-1.7-3.7-3.8s1.7-3.7,3.7-3.7C617.5,694.4,619.2,696,619.2,698.1z"/>
				</g>
				<g>
					<path d="M633.4,698.1c0,2.1-1.7,3.8-3.7,3.8c-2.1,0-3.7-1.7-3.7-3.8s1.7-3.7,3.7-3.7C631.8,694.4,633.4,696,633.4,698.1z"/>
				</g>
				<g>
					<path d="M647.7,698.1c0,2.1-1.7,3.8-3.7,3.8c-2.1,0-3.7-1.7-3.7-3.8s1.7-3.7,3.7-3.7C646,694.4,647.7,696,647.7,698.1z"/>
				</g>
				<g>
					<path d="M662,698.1c0,2.1-1.7,3.8-3.7,3.8c-2.1,0-3.7-1.7-3.7-3.8s1.7-3.7,3.7-3.7C660.3,694.4,662,696,662,698.1z"/>
				</g>
				<g>
					<path d="M676.3,698.1c0,2.1-1.7,3.8-3.7,3.8c-2.1,0-3.7-1.7-3.7-3.8s1.7-3.7,3.7-3.7C674.6,694.4,676.3,696,676.3,698.1z"/>
				</g>
				<g>
					<path d="M690.5,698.1c0,2.1-1.7,3.8-3.7,3.8c-2.1,0-3.7-1.7-3.7-3.8s1.7-3.7,3.7-3.7C688.9,694.4,690.5,696,690.5,698.1z"/>
				</g>
			</g>
			<path d="M722.4,1010.8H6.5V21h715.9V1010.8z M13.1,1004.2h702.7V27.6H13.1V1004.2z"/>
			<path d="M696,984.4H32.9v-937H696V984.4z M52.7,964.6h623.5V67.2H52.7V964.6z"/>
		</g>
		<g>
			<g>
				<polygon points="172.3,590.5 155.4,573.6 132.3,567.9 155.3,561.7 171.9,544.6 165.7,567.6 				"/>
				<polygon points="556.2,590.5 573.1,573.6 596.2,567.9 573.2,561.7 556.6,544.6 562.8,567.6 				"/>
			</g>
		</g>
	</g>
	<rect x="102.5" y="379.2" class="st0" width="523.5" height="158"/>
	<text transform="matrix(1 0 0 1 114.2521 467.4339)" class="st1 st2">一人商行</text>
	<rect x="186.3" y="544.6" class="st0" width="355.8" height="158"/>
	<text transform="matrix(1 0 0 1 204.2521 601.0304)" class="st1 st3">好物嚴選</text>
	<g>
		<g>
			<path d="M159.1,159.3c-0.6,0.1-1.1,0.1-1.4-0.2c-0.6-0.6-1-1.2-1.2-1.8c-0.3-0.6-0.1-1,0.5-1.1c19.5-4,30.5-6,33.1-6.9
				c0.9-0.3,1.6-0.2,2,0.3c0.6,0.6,1,1.3,1.2,2c0.4,0.9,0,1.4-1,1.5C190.4,153.4,179.3,155.2,159.1,159.3z M193.8,175.4
				c-12.6,2.2-21.8,4.1-27.7,5.3c-1,0.2-1.9,0-2.5-0.8c-0.6-0.7-0.9-1.2-0.8-1.5c0-0.2,0.4-0.5,1.1-0.7c4.8-1.1,9.5-2.1,14.3-3.1
				c6.2-1.2,10.8-2.1,13.8-2.7c1-0.2,1.9,0.1,2.5,1C195.3,174.4,195.1,175.2,193.8,175.4z M189.9,162.5c0.8,1.4,0.6,2.2-0.6,2.4
				c-7,1.4-14.6,2.9-22.9,4.4c-1,0.2-1.8-0.1-2.3-0.8c-1-1.2-0.9-1.9,0.2-2.2c12.9-2.7,20.6-4.2,23.2-4.9
				C188.5,161.2,189.3,161.6,189.9,162.5z M177.4,210.5c0.2,0.9-0.2,1.6-1,2c-1,0.8-1.7,0.9-1.9,0.5c-0.3-0.5-0.5-1.1-0.7-2
				c-0.6-3.3-1.3-6.6-1.9-9.9c-0.8-4.2-1.4-7.2-1.8-9c-0.2-0.9-0.5-1.9-1.1-2.9c-0.4-0.8-0.2-1.3,0.7-1.3c0.7-0.1,1.4,0,2.2,0.3
				c2.7-0.6,5.4-1.1,8-1.7c3.4-0.6,5.9-1.1,7.6-1.5c0.8-0.1,1.5-0.4,2.1-0.8c0.4-0.2,0.7-0.3,0.8-0.2c0.2,0,0.3,0,0.5,0
				c0.9,0.1,1.6,0.3,2.1,0.5s0.8,0.7,0.7,1.6c-0.1,0.8-0.1,1.7,0.1,2.6c0.3,2.4,1.1,7,2.3,13.8c0,0.1,0.1,0.2,0.1,0.2
				c0.7,1.3,0.5,2.1-0.6,2.3c-3,0.5-6.1,1.1-9.1,1.7c-4.2,0.8-7.3,1.5-9.4,1.8C177.2,209.3,177.3,209.9,177.4,210.5z M192.3,202.2
				c-1.2-6.1-2.1-10.7-2.6-13.7c-6.4,1-11.6,2.1-15.7,3.1c0.6,2.7,1.5,7.3,2.6,13.8C181.9,204.2,187.1,203.2,192.3,202.2z
				 M165.4,139.4c-0.6-0.5-0.7-0.9-0.5-1.1c0.2-0.2,0.6-0.2,1.3-0.1c4.3,1.1,8.1,3.7,11.5,7.8c1.3,1.5,1.5,2.8,0.4,4
				c-1.2,1.3-2.4,1.1-3.5-0.5C173.1,147.3,170.1,143.9,165.4,139.4z M252.2,203.7c0,0.2-0.6,0.5-1.6,0.9c-0.4,0.2-0.9,0.4-1.6,0.8
				c-0.7,0.4-1.2,0.8-1.5,0.9c-0.8,0.5-1.8,0.5-3.2,0.2c-8.4-2.2-15.7-5.5-21.8-9.9c-5.3,6.2-12,11.7-19.9,16.7
				c-1.2,0.7-1.9,0.9-2.1,0.5c-0.3-0.4,0.1-1,1.2-1.8c7.4-5.9,13.5-11.8,18-17.6c-2.9-2.4-5.8-5.4-8.7-9.1c-1.5-2-2.8-3.4-4-4.2
				c-0.4-0.3-0.7-0.9-0.8-1.7c-0.2-1.5,0.1-2,1-1.5c1.7,0.9,3.7,2.5,5.9,5c3,3.3,6,6.1,9,8.4c4.3-6.1,7.9-13.1,10.8-21
				c-10.7,1.7-21,3.5-30.6,5.2c-0.8,0.1-1.5-0.3-2.2-1.4c-0.6-0.9-0.9-1.5-0.8-1.8c0-0.2,0.4-0.4,1.1-0.5c11.4-1.8,22-3.5,31.9-5.1
				c1-0.1,1.7-0.4,2.2-0.8c0.3-0.4,0.8-0.5,1.5-0.2c1.1,0.4,2,0.9,2.6,1.4c0.8,0.6,1,1.3,0.5,2.1c-0.9,1.4-1.8,3.1-2.7,5.1
				c-3.3,7.7-7,14.1-11,19.4c4.4,3,9.2,5.2,14.5,6.6c1.3,0.4,3.2,0.9,5.7,1.3c2.4,0.5,4.2,1,5.3,1.3
				C251.6,203.2,252.2,203.4,252.2,203.7z M197.5,168.1c-0.3-0.2-0.2-0.6,0.3-1.1c5.1-5.8,7.2-12.3,6.3-19.7
				c-0.5-3.7-1.1-7-1.8-10.1c-0.2-0.9,0.1-1.4,1.1-1.4c0.7,0.1,1.4,0.2,2.3,0.4c3.8-0.7,9.2-1.5,16-2.5c1-0.1,1.7-0.5,2.3-1.1
				c0.3-0.2,0.5-0.3,0.7-0.3c0.2-0.1,0.5-0.1,1,0c0.9,0.2,1.6,0.5,2.3,0.9c0.7,0.3,0.9,0.9,0.6,1.7c-0.3,0.8-0.4,1.7-0.3,2.8
				c0.3,4.4,0.9,8.8,1.7,13.1c0.4,2.2,1.8,3.2,4.1,2.9c1.5-0.1,3.1-0.4,4.6-0.8c2-0.4,3.1-0.7,3.5-0.7c0.9-0.2,1.6-0.1,2.1,0.4
				c0.7,0.8,1.1,1.4,1.3,1.9c0.3,0.7,0.1,1.3-0.8,1.5c-3.1,0.9-6.8,1.4-10.9,1.7c-2.6,0.2-4.6-0.1-5.8-1c-1.2-1-2-2.7-2.5-5.3
				c-0.9-6.2-1.5-10.9-1.8-14.1c-6.6,0.8-12.1,1.7-16.4,2.5c0.4,2.8,0.8,5.1,1,7.1c0.5,5.1,0.1,9.2-1.3,12.3
				c-1.4,3.1-4.2,6.1-8.3,8.9C198.3,168.1,197.8,168.2,197.5,168.1z"/>
			<path d="M255.4,144.1c-0.6,0.1-1.1-0.1-1.4-0.4c-0.4-0.4-0.8-1-1.1-1.9c-0.1-0.6,0.1-1,0.7-1.1c21.4-2.5,33.1-3.5,35-4
				c0.9-0.3,1.6-0.1,2.1,0.5c0.4,0.7,0.8,1.4,1,2.1c0.3,1-0.1,1.5-1.2,1.5C288.5,141,276.8,141.7,255.4,144.1z M288.5,160.7
				c1.1-0.1,1.9,0.4,2.4,1.3c0.7,1.4,0.4,2.2-0.9,2.3c-13.2,1.1-23,2.2-29.4,2.9c-1.1,0.1-1.8-0.2-2.4-1c-0.8-1.3-0.7-2,0.5-2.1
				c3.7-0.5,8.7-1.2,15.1-1.8C278.7,161.7,283.6,161.2,288.5,160.7z M287.4,150.4c0.8,1.5,0.5,2.3-0.8,2.4
				c-7.3,0.8-15.5,1.6-24.4,2.4c-1,0-1.8-0.3-2.3-1.1c-0.8-1.3-0.6-2,0.5-2.1c13.7-1.6,22-2.4,24.7-2.9
				C286.1,149,286.9,149.4,287.4,150.4z M285.3,172.2c0.4-0.2,0.8-0.2,1.1,0c0.9,0.2,1.6,0.4,2,0.7c0.6,0.3,0.8,0.9,0.6,1.7
				c-0.2,0.7-0.3,1.6-0.2,2.6c0,0.8,0.3,5.5,0.9,14.2c0.1,0.3,0.3,0.6,0.4,0.9c0.5,1.4,0.3,2.1-0.8,2.2c-3.1,0.3-6.3,0.6-9.4,0.8
				c-4.3,0.5-7.5,0.8-9.8,1c0,0.4,0,0.8,0,1.2c0.1,0.7-0.3,1.4-1.2,2c-1.1,0.7-1.8,0.8-2.1,0.3c-0.2-0.3-0.4-1-0.6-2.1
				c-1.3-11.9-2-18.3-2.2-19.3c-0.3-1.4-0.5-2.3-0.8-3c-0.2-0.6-0.3-1-0.2-1.1c0-0.1,0.4-0.2,0.9-0.1c0.9,0,1.6,0.1,2.3,0.4
				c2.8-0.3,5.7-0.6,8.5-1c3.6-0.3,6.3-0.6,8-0.8c0.8-0.1,1.5-0.3,2.2-0.6C285.2,172.3,285.2,172.2,285.3,172.2z M278.4,192.1
				c2.5-0.3,5.1-0.5,7.6-0.8c-0.6-4.5-1.1-9.5-1.4-14.9c-6.6,0.5-12.1,1-16.4,1.7c0.6,3.8,1.1,8.7,1.6,14.9
				C272.1,192.8,274.9,192.5,278.4,192.1z M265.9,124.4c-0.5-0.5-0.7-0.9-0.5-1.1s0.6-0.2,1.3,0.1c4.2,1.5,7.8,4.4,10.8,8.8
				c1.1,1.7,1.1,3.1,0.1,4.1c-1.4,1.2-2.5,0.9-3.5-0.9C272.9,133.1,270.2,129.5,265.9,124.4z M311,131.4c-0.3-3.4-0.7-6.9-1-10.3
				c-0.1-0.9-0.2-1.5-0.1-1.6s0.6-0.1,1.5,0c0.9,0.2,1.9,0.5,3.1,0.8c0.7,0.3,1.1,1.2,1.1,2.7c0,2.9,0.1,5.7,0.3,8.4
				c0,1.9,0.2,4.7,0.4,8.4c0.1,2.9,0.3,5.7,0.4,8.6c10.3-0.7,16.8-1.1,19.6-1.5c1.1-0.1,1.8,0.1,2.2,0.6c0.6,0.9,1,1.7,1.1,2.2
				c0.2,1.1-0.2,1.6-1.4,1.6c-3.7-0.1-10.8,0-21.3,0.6c0.8,14.6,1.4,25.7,1.7,33.4c0.2,6-0.1,10.9-0.9,14.9c-0.5,2.7-1.1,2.7-1.7,0
				c-0.8-4.1-1.4-8.8-1.7-14.1c-0.4-7.3-1-18.6-2-33.9c-3.6,0.3-9.8,0.7-18.8,1.4c-0.8,0.1-1.3-0.1-1.6-0.4c-0.4-0.4-0.8-1-1.1-2
				c-0.2-0.6,0-1,0.7-1c6.8-0.5,13.7-1,20.5-1.4C311.7,142.9,311.4,137.2,311,131.4z"/>
			<path d="M404.1,190.1c-0.1,1-0.3,2.1-0.7,3.1c-3.7,0.1-7.8,0.1-10.7,0.2c-1.2-1.9-3.4-5.9-5.4-8.7c-5.3,4.2-10.9,9.1-22.4,9.3
				c-5.9,0.1-10-1.6-12.7-3.7c-3.1-2.7-5.2-6.1-5.4-11.4c-0.2-7.9,5.8-16.2,17-20.3c0-0.1,0.1-0.3,0.1-0.4c-4.7-3.4-7.7-7-7.8-12.4
				c-0.1-4.4,2.2-8.3,5.7-11.2c2.8-2.4,6.7-3.9,12.2-3.9c4,0,7.7,1.1,10,3.4c2,2,3.6,4.6,3.6,8.7c-0.1,7-5.7,12.8-15.3,16.7
				c0,0.1,0,0.3,0,0.4c6.2,5.2,12.9,13.1,16.4,18.7c3.5-4.1,6-10.2,6.9-15.2c0.1-0.7-0.1-1-0.7-1.1c-2-0.1-4-0.2-6-0.3
				c0.1-1,0.4-2.3,0.6-3.2c3.5,0,6.5,0.1,9.6,0.2c2.6,0.1,5.3,0.1,8,0.2c-0.2,0.9-0.5,2.1-0.7,3.2c-1.9,0-3.8,0-5.8,0
				c-2,8.3-6,14.9-10.2,19.1c1.4,2.2,3.1,5.1,4.1,6.5c0.8,1.3,1.5,1.7,2.6,1.8C399.5,189.8,401.8,189.9,404.1,190.1z M356,187.4
				c2.7,2,5.6,3.1,9.7,3.1c7.4-0.1,14.3-3.6,19.8-8.9c-5.4-8-12-16.1-18.8-20.7c-7.5,2.9-14.9,8.2-14.7,17.5
				C352.1,182,353.1,185,356,187.4z M369,157.3c7.2-2.6,13.5-7,13.5-14.4c0-2.9-0.9-5.1-2.5-6.6c-1.8-1.8-4.3-2.5-6.7-2.5
				c-3.4,0-6,0.6-8.5,2.8c-2.3,2.1-3.7,5.1-3.6,8.5C361.2,150.9,364.2,153.5,369,157.3z"/>
			<path d="M437.8,158.1c4.5,1.6,8.7,4.5,12.7,8.9c1.4,1.4,1.6,2.7,0.7,4c-1,1.3-2.2,1.1-3.5-0.7c-1.6-2.1-4.9-5.5-9.9-10.1
				c-0.8,14.1-1.5,24.9-2,32.6c-0.2,2.9-0.7,5.2-1.6,7.1c-0.5,1-1,1.5-1.5,1.4c-0.5,0-0.8-0.5-1.1-1.5c-0.4-1.6-0.5-3.8-0.2-6.4
				c1.1-16.1,1.8-27.6,2.2-34.5c-6.8,10.2-13.8,18.2-20.9,23.8c-0.8,0.6-1.3,0.8-1.6,0.5c-0.3-0.3-0.1-0.9,0.6-1.8
				c8.6-10.1,15.7-20.2,21.1-30.4c-4.8-0.2-9.5-0.3-14.3-0.4c-1.3,0-2.2-0.5-2.7-1.5c-0.5-1.1-0.7-1.8-0.6-2s0.7-0.3,1.8-0.3
				c4.2,0.2,9.9,0.3,17.1,0.6c0.2-4.1,0.3-7.1,0.4-8.9c0.1-2.4,0.1-4.6-0.2-6.5c-4.9,1-9.7,1.6-14.6,1.8c-0.8,0-1.3-0.2-1.3-0.6
				c0-0.4,0.3-0.7,1.2-0.9c9.9-2.1,17.9-4.3,23.9-6.8c2.4-1.1,3.9-1.8,4.5-2.1c0.7-0.4,1.3-0.5,1.8-0.1c0.8,0.7,1.5,1.4,2.1,2.4
				c0.5,0.8,0.2,1.3-0.7,1.7c-5.2,1.7-9.7,3-13.5,3.8c0.3,0.2,0.6,0.4,0.8,0.6c0.7,0.6,1,1.5,0.9,2.8c-0.2,4.3-0.5,8.5-0.7,12.8
				c5.8,0.2,10,0.4,12.4,0.6c1.3,0,2.1,0.6,2.4,1.6c0.5,1.4,0.1,2.1-1.2,2c-4.6-0.2-9.2-0.4-13.8-0.6
				C438.1,153.5,438,155.8,437.8,158.1z M478.5,175.5c-9.8,0.3-18.9,0.6-27.3,0.9c-0.9,0-1.4-0.2-1.6-0.5c-0.3-0.6-0.6-1.2-0.9-2
				c-0.2-0.7,0-1.1,0.6-1.1c9.9-0.5,19.7-0.8,29.6-1c1.2-12.5,2.4-24.9,3.6-37.4c0.3-4.8,0.5-8.2,0.6-10.2c0-1,0.1-1.5,0.3-1.6
				c0.1-0.2,0.6-0.1,1.4,0.2c0.9,0.2,1.8,0.6,2.7,1.3c0.7,0.4,0.9,1.4,0.7,2.8c-0.4,3-0.8,5.7-1,8.2c-1.3,12.2-2.7,24.4-4,36.6
				c6.3-0.2,10.5-0.4,12.4-0.7c1.1-0.2,1.8,0.1,2.2,0.7c0.4,0.5,0.7,1.3,1,2.3c0.2,1.1-0.3,1.6-1.3,1.6c-3.5-0.2-8.4-0.3-14.6-0.2
				c-0.3,3-0.8,7.5-1.6,13.7c-0.7,5.8-1.7,10.5-3.1,14.4c-0.9,2.5-1.5,2.5-1.7-0.3c-0.1-4.3,0.1-8.9,0.6-14
				C477.6,184.6,478,180,478.5,175.5z M456.5,151.6c0.1-0.2,0.6-0.2,1.4,0c5.2,1.5,10.4,4.8,15.6,9.8c1.6,1.5,2,2.9,1,4.1
				c-0.9,1.3-2.1,1.1-3.6-0.6c-2.8-3.1-7.3-7.2-13.5-12.2C456.6,152.3,456.3,151.9,456.5,151.6z M461.5,132.4
				c0.1-0.2,0.6-0.2,1.3,0.1c4.9,1.6,9.5,4.9,13.7,9.8c1.3,1.6,1.5,2.9,0.6,4c-1.1,1.1-2.2,0.8-3.5-0.8c-2.1-2.8-5.9-6.8-11.5-11.9
				C461.6,133.1,461.3,132.7,461.5,132.4z"/>
			<path d="M538.3,167.2c0.9-0.2,1.5-0.1,1.6,0.2c0.2,0.4-0.1,0.8-0.8,1.1c-3.4,1.7-7,3.2-10.7,4.4c-1.6,11.4-3.2,21.4-4.7,29.8
				c-0.4,2.4-1.3,4.1-2.7,4.9c-1.9,1.2-3,1-3.4-0.5c-0.1-0.5-3.3-2.1-9.6-4.6c-0.6-0.3-0.9-0.6-0.8-0.9c0-0.3,0.4-0.4,1.1-0.3
				c7.3,1.1,11,1.4,11.1,0.7c1.5-8.7,2.9-18,4.4-27.7c-4.7,1.4-9.4,2.8-14.1,4.3c-0.9,0.4-1.7,0.3-2.3-0.3c-0.7-0.8-1.3-1.8-1.9-2.9
				c-0.4-1-0.2-1.4,0.7-1.4c1-0.1,2-0.2,3-0.3c3.8-0.7,8.8-1.8,15.2-3.3c0.9-6,1.7-12,2.6-18c-4.4-0.5-8.9-0.9-13.3-1.3
				c-1.2-0.1-2-0.7-2.5-1.8c-0.4-1.2-0.6-1.9-0.4-2.1c0.1-0.2,0.7-0.3,1.8-0.1c3.6,0.5,8.6,1,14.9,1.8c0.6-4.4,1.2-8.7,1.7-13.1
				c0.2-2.7,0.3-4.6,0.2-5.7c0-0.7,0-1,0.3-1.1c0.2-0.1,0.7,0,1.4,0.4c0.9,0.4,2,1,3.2,2c0.6,0.5,0.7,1.3,0.4,2.3
				c-0.4,1.6-0.8,3.4-1.3,5.4c-0.4,2.1-0.9,5.5-1.6,10.3c3.2,0.4,6.3,0.8,9.5,1.1c1.1,0.2,1.8,0.7,2.1,1.7c0.3,1.4-0.1,2.1-1.2,2
				c-3.7-0.4-7.3-0.9-11-1.3c-0.8,5.5-1.6,10.9-2.4,16.4C531.9,168.7,535.1,168,538.3,167.2z M564.6,168.8c3.7,0.6,7.3,1.1,10.9,1.7
				c1.1,0.2,1.9,0.2,2.4-0.1c0.4-0.2,0.7-0.2,1,0c0.3,0,0.6,0.1,1,0.5c1,0.8,1.7,1.5,2.1,2.1c0.6,0.8,0.4,1.5-0.3,2.2
				c-1.6,1.5-2.9,2.9-4.1,4.4c-5.5,7-11.1,12.5-16.9,16.6c3.6,5,7.9,9.6,13,13.7c1.2,1,2.8,2.2,4.9,3.7c2.1,1.5,3.7,2.6,4.6,3.4
				c0.9,0.7,1.3,1.2,1.3,1.5c0,0.2-0.6,0.3-1.8,0.3c-0.5,0-1.1,0-1.7,0.2c-0.6,0.1-1.2,0.2-1.8,0.3c-1.1,0-2.1-0.4-3-1.2
				c-7.6-5.9-13.8-12.4-18.7-19.6c-8,5.1-17.6,8.8-28.8,11.3c-1.5,0.3-2.3,0.3-2.4-0.2c-0.1-0.4,0.5-0.9,1.8-1.4
				c10.9-3.6,20-7.9,27.2-13c-2.7-4.3-5-9.3-7-14.7c-1.2-3-2.1-4.9-2.8-5.9c-0.3-0.3-0.3-0.9-0.2-1.8c0.2-1.5,0.7-1.9,1.4-1.1
				c1.3,1.2,2.7,3.7,4.4,7.4c2.1,5,4.6,9.7,7.3,14c6.2-4.7,11.9-10.9,17.4-18.6c-11-1.9-22-3.6-33-5.2c-0.9-0.1-1.5-0.9-1.8-2.2
				c-0.3-1-0.4-1.7-0.3-1.9c0.1-0.2,0.5-0.3,1.3-0.1c6,1.1,12.1,2.1,18.3,3c1-5.4,2.1-10.7,3.1-16.1c-6.2-1.1-12.3-2.1-18.5-3.1
				c-0.7-0.1-1.2-0.3-1.4-0.7c-0.3-0.6-0.5-1.4-0.5-2.2c-0.1-0.7,0.1-1.1,0.8-1c6.8,1.1,13.6,2.2,20.4,3.4c0.5-2.6,1-5.1,1.4-7.7
				c0.3-2,0.6-4,0.8-6.1c0.1-1.1,0.5-1.5,1.4-1.1c1.5,0.7,2.5,1.4,3.1,1.8c0.5,0.4,0.6,1.1,0.3,2.1c-0.4,1.6-0.8,3.1-1.1,4.7
				c-0.5,2.3-1,4.6-1.4,6.9c11.2,1.9,17.9,3,20.1,3.2c1.1,0.1,1.8,0.5,2.2,1.1c0.3,0.8,0.5,1.6,0.5,2.4c0,1.1-0.5,1.5-1.7,1.2
				c-4.2-1.1-11.5-2.7-21.8-4.4C566.8,158.1,565.7,163.4,564.6,168.8z"/>
		</g>
	</g>
	<rect x="44.8" y="776.4" class="st0" width="639" height="158"/>
	<text transform="matrix(1 0 0 1 189.2516 819.0198)" class="st4 st5">只賣經的起</text>
	<text transform="matrix(1 0 0 1 119.2516 903.0198)" class="st4 st5">時間考驗的經典</text>
</g>
<g id="text">
</g>
</svg>
