<svg xmlns="http://www.w3.org/2000/svg" viewBox="0 0 439.77 295.67"><defs><style>.cls-1{fill:#fff;}</style></defs><title>product-title</title><g id="OBJECTS"><path d="M374.35,215.46,353.75,206c-15-6.89-30.17-13.83-46.24-16.93-10.41-2-21-2.37-31.62-2.71-49.76-1.59-102-2.11-146,22.75-3.15,1.78-8.1,2.62-11.17,4.55Q106.47,221.4,95,230.35c0,5.53,9.22,18.18,10,20.52,2.57,7.68,10.52,26.35,11.1,28.45,1.26,4.57,3.65,13.19,6.55,16.82-.3-.56,32.47-19.14,49-25.35,9.41-3.54,18.88-7.1,28.73-8.81,10.37-1.8,20.94-1.52,31.44-1.24,23.53.63,47.3,1.3,70.1,7.52,19.68,5.37,45.5,20.55,63.83,29.87,12.94-18.79,20.5-44.64,33.44-63.43C389.86,227.52,384.86,220.29,374.35,215.46Z" transform="translate(-30.11 -112.58)"/><path d="M94.45,226.05a123,123,0,0,1,38.3-48.12c1.12,2.63.79,5.61,1.67,8.34.72,2.26,2.35,4.08,3.1,6.33.35,1.06.5,2.18.78,3.26a13.38,13.38,0,0,0,1.8,4,240.05,240.05,0,0,0-28.31,13.34C105,217,99.65,220,94.45,226.05Z" transform="translate(-30.11 -112.58)"/><path d="M403.84,231a122.92,122.92,0,0,0-38.3-48.11c-1.12,2.62-.79,5.61-1.66,8.33-.73,2.26-2.36,4.09-3.11,6.33-.35,1.06-.5,2.18-.78,3.26a13.55,13.55,0,0,1-1.8,4,238.4,238.4,0,0,1,28.31,13.33C393.32,221.89,398.64,225,403.84,231Z" transform="translate(-30.11 -112.58)"/><path d="M367.43,180.66c9-1.16,17.9,2.68,25.89,7.24s15.73,10,24.5,12.42a78.63,78.63,0,0,0,13.83,2.13c6.19.57,12.47,1.14,18.6,0a27.3,27.3,0,0,0,10.82-4.39,2.27,2.27,0,0,1,3.46,2.46c-6.14,22.79-20.7,34-21,35.75a3.72,3.72,0,0,0-.09,1.37,4,4,0,0,0,.89,1.61c5.95,7.92,15,19.59,18.77,28.93.35.87.7,1.8,1.08,2.73a2.1,2.1,0,0,1-2.45,2.84c-10.23-2.44-21-1.92-31.56-2C418,271.74,399,269,388.71,262.09c1.31-5.53,17.28-25.77,19.81-31.33A122,122,0,0,0,367.43,180.66Z" transform="translate(-30.11 -112.58)"/><path d="M126.89,178.92c-9-1.16-17.9,2.68-25.9,7.24s-15.72,10-24.5,12.42a77.72,77.72,0,0,1-13.82,2.12c-6.2.58-12.47,1.15-18.6,0a27.91,27.91,0,0,1-9.62-3.6,2.86,2.86,0,0,0-4.22,3.25c6.36,21.73,20.26,32.48,20.58,34.17a3.73,3.73,0,0,1,.1,1.37,4.13,4.13,0,0,1-.89,1.61c-6,7.92-15.05,19.58-18.78,28.93-.19.47-.37,1-.57,1.45a2.85,2.85,0,0,0,3.25,3.82c9.84-2.1,20.15-1.62,30.25-1.68,12.18-.06,31.12-2.81,41.44-9.72C104.3,254.82,88.32,234.58,85.8,229A122,122,0,0,1,126.89,178.92Z" transform="translate(-30.11 -112.58)"/><path d="M150.44,299.74c.55,2.85,3.24,5.36,4.94,7.54,2.14,2.74,4.35,5.41,6.57,8.07v-2.89q-5.53,6.41-11.48,12.39c-1.84,1.85.93,4.8,2.77,3q5.94-6,11.41-12.46a2.19,2.19,0,0,0,0-2.89c-2.12-2.5-4.2-5-6.28-7.58-1.77-2.17-3.59-5.48-6.1-6.63a1.29,1.29,0,0,0-1.83,1.49Z" transform="translate(-30.11 -112.58)"/><path d="M167.09,315.26c20.78.91-17.88.95,26.24.36,7.85-.11,7.89-3.95,0-3.84-44.25.61-3.68-.22-26.24-.22-7.61,0-7.38,3.41,0,3.7Z" transform="translate(-30.11 -112.58)"/><path d="M166.72,299.73c.47,2.47,2.2,4.71,3.51,6.77,1.47,2.32,3.08,4.54,4.76,6.7.12.15,1.45,1.41,1.26,1q.65-.49-.09.18c-.27.26-.52.52-.77.79-1,1.07-2,2.15-3,3.22q-3.23,3.44-6.41,6.88c-1.77,1.91,1,4.84,2.76,2.94q3.78-4,7.53-8.09c1.39-1.5,4.46-3.7,3.8-6.21a7.49,7.49,0,0,0-1.84-2.64q-1.66-2-3.19-4c-2-2.73-3.72-6.57-6.23-8.78a1.25,1.25,0,0,0-2.06,1.28Z" transform="translate(-30.11 -112.58)"/><path d="M291.13,315.29c6.89.34,11.22.48,18.12.55,3.26,0,6.53,0,9.8,0s7.05.37,10.25-.56c1.56-.45,1.68-3.13,0-3.51-3.1-.7-6.55-.18-9.71-.13-3.45.05-6.89,0-10.34,0-6.9,0-12.54.18-19.43-.1-2.51-.1-1.18,3.62,1.31,3.74Z" transform="translate(-30.11 -112.58)"/><path d="M311.92,304.91c1.72,2.57,5.37,3.61,7.95,5,1.45.81,2.88,1.65,4.31,2.51l2.08,1.3c.32.21,1.74,1.41,1.47.9v-2.09c-.36.79-2,1.6-2.67,2.08-1.19.87-2.38,1.72-3.6,2.54s-2.26,1.47-3.41,2.17-2.64,1.95-3.91,2.15c-1.44.24-1.72,2.36-.82,3.33l.26.28a2,2,0,0,0,2.48.34A75.59,75.59,0,0,0,326.34,319c1.63-1.24,5.75-3.45,4.84-6.15-.4-1.2-1.59-1.76-2.55-2.37-1.66-1.07-3.36-2.08-5.07-3.06s-3.54-2-5.35-2.89-3.25-2-5.13-1.76a1.46,1.46,0,0,0-1.16,2.16Z" transform="translate(-30.11 -112.58)"/><path d="M157.69,369.62c8.05,4.94,15.44,4.28,24,1.73,4.29-1.27,8.52-.6,12.68-2.63,3.17-1.54,7.13-4.24,7.83-8.12a.91.91,0,0,0-1.3-1.07c-2.77,1.57-4.63,4.41-7.54,5.91-3.86,2-7.87,1.3-11.88,2.38-3.54.95-6.59,2.34-10.34,2.34a22.51,22.51,0,0,1-11.85-3.48c-1.79-1.09-3.4,1.85-1.61,2.94Z" transform="translate(-30.11 -112.58)"/><path d="M200.72,361.68c10.56,17,33.19,17,44.31.71h-2.79a22.78,22.78,0,0,0,20.23,12.45c9.5.07,18-5.61,24.25-12.88l-2.55-.35c11.89,18,39.63,18.52,52.8,2,1.34-1.67-.93-4.12-2.28-2.43C323,375.86,297.75,376.14,287,359.86a1.59,1.59,0,0,0-2.56-.35c-5.39,6.3-12.49,11.4-20.71,11.84A19.62,19.62,0,0,1,245,360.64a1.58,1.58,0,0,0-2.79,0c-9.78,14.39-29.44,13.82-38.91-.58a1.54,1.54,0,0,0-2.61,1.62Z" transform="translate(-30.11 -112.58)"/><path d="M200.72,395.09c10.46,17.13,33.26,17,44.31.71h-2.8a22.78,22.78,0,0,0,20.24,12.45c9.49.07,18-5.62,24.24-12.89,1.4-1.63-.88-4.07-2.28-2.43-5.4,6.31-12.49,11.39-20.72,11.83A19.64,19.64,0,0,1,245,394.05a1.59,1.59,0,0,0-2.8,0c-9.82,14.46-29.34,13.72-38.9-.58a1.54,1.54,0,0,0-2.61,1.62Z" transform="translate(-30.11 -112.58)"/><path d="M391.84,171.08a5.56,5.56,0,0,1,2.13-.4,2.56,2.56,0,0,0,1.84-.34c1.06.08,2.42-.07,3.48,0,.41,0,.82.07,1.22.14,1.5.29,3.19,1.06,5.1,5.28,2.14-2.52,6-6.75,9-8,2.28-1,4.84-1.2,7-2.41a22.29,22.29,0,0,1,7.85-2.77.16.16,0,0,1,.16,0c0,.06,0,.14-.05.2l-.64.81a39.29,39.29,0,0,1-6.54,6.54,22.26,22.26,0,0,1-3.65,1.92,15.14,15.14,0,0,1-2.37,1.05c-.4.12-.82.21-1.21.37a6.9,6.9,0,0,0-1.55,1c-.9.7-1.77,1.44-2.62,2.21a27.19,27.19,0,0,1,5.26.07c-3.66,3.62-3.75,1-9.62,3.36-1.54.63-2,.24-3.95.45-2.14.23-3.68-.44-5.07-.22.43-1.4,1-1.1,1.55-1.93a29.88,29.88,0,0,1,3.27-.8c-1.47-2.15-5-2.15-6.41-2.47a16.9,16.9,0,0,1-3.73-1.52l-4.44-2.24c-.25-.12-.54-.39-.39-.63a.43.43,0,0,1,.34-.18A9.87,9.87,0,0,1,391.84,171.08Z" transform="translate(-30.11 -112.58)"/><path d="M88.33,119.9a4.61,4.61,0,0,1,1.83-.34,2.14,2.14,0,0,0,1.58-.3c.91.08,2.07-.05,3,0a9.12,9.12,0,0,1,1,.13c1.29.24,2.74.9,4.38,4.52,1.83-2.16,5.18-5.79,7.7-6.89,2-.86,4.16-1,6-2.08a19,19,0,0,1,6.73-2.37.12.12,0,0,1,.14,0c0,.05,0,.11,0,.16-.18.24-.36.47-.55.7a33.46,33.46,0,0,1-5.61,5.61,18.76,18.76,0,0,1-3.14,1.65,12.67,12.67,0,0,1-2,.9,9.43,9.43,0,0,0-1,.32,5.75,5.75,0,0,0-1.33.84c-.77.61-1.52,1.24-2.25,1.9a23.44,23.44,0,0,1,4.51.07c-3.14,3.1-3.22.83-8.26,2.88-1.32.54-1.73.21-3.38.38-1.84.2-3.16-.37-4.35-.18.37-1.21.83-1,1.32-1.66a23.93,23.93,0,0,1,2.81-.69c-1.26-1.84-4.31-1.84-5.5-2.12a14.72,14.72,0,0,1-3.2-1.3l-3.81-1.93c-.21-.1-.46-.33-.34-.54a.4.4,0,0,1,.29-.15A8.27,8.27,0,0,1,88.33,119.9Z" transform="translate(-30.11 -112.58)"/><path d="M373.57,121.32a3.6,3.6,0,0,1,1.42.1c.4.11.85.29,1.22.08.66.23,1.56.35,2.22.58a7.05,7.05,0,0,1,.76.3c.92.43,1.89,1.19,2.5,4.2,1.73-1.26,4.83-3.32,6.9-3.66,1.6-.26,3.26,0,4.83-.39a14.43,14.43,0,0,1,5.42-.48.11.11,0,0,1,.09,0c0,.05,0,.09-.06.12l-.52.42a24.88,24.88,0,0,1-5.12,3.1,13.79,13.79,0,0,1-2.61.63,10.59,10.59,0,0,1-1.67.28,7.81,7.81,0,0,0-.83,0,4.3,4.3,0,0,0-1.13.38c-.67.3-1.34.62-2,1a17.66,17.66,0,0,1,3.35.91c-2.86,1.71-2.54,0-6.63.57-1.08.15-1.33-.18-2.59-.36s-2.29-.89-3.21-1c.48-.83.78-.55,1.27-1a16.08,16.08,0,0,1,2.2,0c-.63-1.61-2.9-2.2-3.74-2.63a11.85,11.85,0,0,1-2.16-1.58L371,120.87c-.14-.12-.28-.34-.16-.47a.28.28,0,0,1,.25-.06A6.71,6.71,0,0,1,373.57,121.32Z" transform="translate(-30.11 -112.58)"/><path d="M88.86,166.9a3.29,3.29,0,0,1,2,1.59c.49.77.83,1.63,1.3,2.4.74,1.21,1.8,2.18,2.43,3.46a6.05,6.05,0,0,1,.28,4.54,12.12,12.12,0,0,0-.52,1.54c-.32,1.75.83,3.49.5,5.23a11.8,11.8,0,0,1-5-5.51c-.36-.81-.63-1.65-1-2.47a34,34,0,0,0-3.06-5.42,10,10,0,0,0-3.6-3c-2.63.71-5-.23-7.21-1.84l-3.33.87a9.23,9.23,0,0,0-2,.71A14.42,14.42,0,0,0,68,170.28a17.16,17.16,0,0,1-5.1,3.18,8.07,8.07,0,0,1-4.79.08c-1.3-.39-2.54-1.11-3.88-1.12,2.23-.75,4.18-2.43,6.49-2.85a5.93,5.93,0,0,0,2.65-1.75,30.93,30.93,0,0,1,6-3.88,8.72,8.72,0,0,1,3.88-.86l5.11.58a7.42,7.42,0,0,1,3.55-1.1,16.33,16.33,0,0,1,3.85.6l7.43,1.78C91.53,165.41,90.48,166.43,88.86,166.9Z" transform="translate(-30.11 -112.58)"/><path d="M133.94,142.63a9.43,9.43,0,0,0-2.84-3.28,8.5,8.5,0,0,0-3.94-1,5.53,5.53,0,0,0-3.07.41,4.37,4.37,0,0,0-1.93,4.12,9.61,9.61,0,0,0,1.68,4.48c2.62,4.13,6.41,7.24,10.14,10.26,3,2.46,6,5,9.08,7.38-.9-3.47-1.44-6.84-2.83-10.17A85.52,85.52,0,0,0,133.94,142.63Z" transform="translate(-30.11 -112.58)"/><path d="M111.81,149.06a17.06,17.06,0,0,0-5.55-1.56,4.25,4.25,0,0,0-4,1.5,4.12,4.12,0,0,0,.29,4.39,9.92,9.92,0,0,0,3.47,2.83c8.37,4.81,17.48,7.91,26.53,11C127.29,159,120.57,152.86,111.81,149.06Z" transform="translate(-30.11 -112.58)"/><path d="M359.26,146.54a9.41,9.41,0,0,1,2.83-3.28,8.5,8.5,0,0,1,3.94-1,5.56,5.56,0,0,1,3.08.41,4.38,4.38,0,0,1,1.93,4.12,9.63,9.63,0,0,1-1.69,4.48c-2.62,4.13-6.41,7.24-10.13,10.26-3,2.46-6,5-9.09,7.38.9-3.47,1.44-6.84,2.84-10.17A85.52,85.52,0,0,1,359.26,146.54Z" transform="translate(-30.11 -112.58)"/><path d="M381.39,153a17.06,17.06,0,0,1,5.55-1.56,4.25,4.25,0,0,1,3.95,1.5,4.1,4.1,0,0,1-.3,4.39,9.89,9.89,0,0,1-3.46,2.83c-8.37,4.81-17.48,7.91-26.54,11C365.9,162.91,372.63,156.77,381.39,153Z" transform="translate(-30.11 -112.58)"/><path class="cls-1" d="M364,211.25l-.09,0a.86.86,0,0,0-.91,1.26.88.88,0,0,0,.77.48.77.77,0,0,0,.62-1.14l.07.45a.86.86,0,0,0-.2-.83l0,0-.62,1.14h.06a.67.67,0,0,0,.34-1.3Z" transform="translate(-30.11 -112.58)"/><path class="cls-1" d="M368.57,220.17a1,1,0,0,0,.57-.19.46.46,0,0,0,0-.74,1,1,0,0,0-.57-.2c-.68-.08-.68,1.21,0,1.13Z" transform="translate(-30.11 -112.58)"/><path class="cls-1" d="M371.48,228.2a.06.06,0,0,0,0-.11.06.06,0,0,0,0,.11Z" transform="translate(-30.11 -112.58)"/><path class="cls-1" d="M384.67,241.79a1.42,1.42,0,0,0,1.39,1.38,1.65,1.65,0,0,0,1.47-.65,2.25,2.25,0,0,0-1.08-3.42,1.82,1.82,0,0,0-2.55,2,1.94,1.94,0,0,0,1.28,1.42,1.58,1.58,0,0,0,1.89-.48.76.76,0,0,0,0-.73c-.31-.49-.68-.5-1.17-.63s0-.09-.11-.06c-.27.32-.32.46-.16.42h.08l.31.15s0,.08,0,.08c-.15,0,.25-.19.27-.08,0-.14-.42-.26-.52-.28a.91.91,0,0,0-1.12.9Z" transform="translate(-30.11 -112.58)"/><path class="cls-1" d="M386.37,234.28l-.07-.15a.33.33,0,0,0-.58,0l-.07.15c-.4.83,1.12.83.72,0Z" transform="translate(-30.11 -112.58)"/><path class="cls-1" d="M385.57,230.31l-.46-.06c-.25,0-.33.32-.19.48s.17.2.26.29c.5.54,1-.61.39-.71Z" transform="translate(-30.11 -112.58)"/><path class="cls-1" d="M382.86,223.1a1.53,1.53,0,0,0-.13-.66.29.29,0,0,0-.57,0,1.53,1.53,0,0,0-.13.66.42.42,0,1,0,.83,0Z" transform="translate(-30.11 -112.58)"/><path class="cls-1" d="M371.85,207.43a2.63,2.63,0,0,0-1.15-1c-.5-.22-.86.39-.79.84a3.21,3.21,0,0,0,.74,1.4.82.82,0,0,0,1.2,0,1,1,0,0,0,0-1.27Z" transform="translate(-30.11 -112.58)"/><path class="cls-1" d="M358.23,213.36c.4,0,.4-.67,0-.67a.34.34,0,0,0,0,.67Z" transform="translate(-30.11 -112.58)"/><path class="cls-1" d="M361.3,230.82a1.63,1.63,0,0,0,.71.69c.24.1.51-.16.51-.41a1.55,1.55,0,0,0-.31-.85.54.54,0,0,0-.91.57Z" transform="translate(-30.11 -112.58)"/><path class="cls-1" d="M363.14,254l-.05-.17a.24.24,0,0,0-.47,0l-.05.17a.3.3,0,1,0,.57,0Z" transform="translate(-30.11 -112.58)"/><path class="cls-1" d="M295.54,276.81a1.08,1.08,0,0,0,0-2.14,1.08,1.08,0,0,0,0,2.14Z" transform="translate(-30.11 -112.58)"/><path class="cls-1" d="M300.78,274.49a1,1,0,0,0,.31-.81.38.38,0,0,0-.36-.37.89.89,0,0,0-.76.32c-.54.53.31,1.44.81.86Z" transform="translate(-30.11 -112.58)"/><path class="cls-1" d="M304.31,271.09a2,2,0,0,1,.09.35.23.23,0,0,0,.45,0,1.06,1.06,0,0,1,.09-.35c.19-.57-.82-.57-.63,0Z" transform="translate(-30.11 -112.58)"/><path class="cls-1" d="M310.5,275.64a.28.28,0,0,0,0-.55c-.33,0-.34.55,0,.55Z" transform="translate(-30.11 -112.58)"/><path class="cls-1" d="M313.53,276.25a.13.13,0,0,0,0-.25.13.13,0,0,0,0,.25Z" transform="translate(-30.11 -112.58)"/><path class="cls-1" d="M317.63,277.44a.93.93,0,0,0,.26.18c.17.09.33-.09.25-.27a1.53,1.53,0,0,0-.17-.27c-.19-.25-.58.16-.34.36Z" transform="translate(-30.11 -112.58)"/><path class="cls-1" d="M324.06,276l-.1.09a.69.69,0,0,0,0,.91l.1.09a.74.74,0,1,0,0-1.09Z" transform="translate(-30.11 -112.58)"/><path class="cls-1" d="M318.24,265.18c.32-.58-.15-1.09-.69-.74-.72.46.26,1.51.69.74Z" transform="translate(-30.11 -112.58)"/><path class="cls-1" d="M271.14,227.93a.65.65,0,0,0,0-1.3c-.77,0-.78,1.3,0,1.3Z" transform="translate(-30.11 -112.58)"/><path class="cls-1" d="M276,227.73a.47.47,0,0,0,.34-.85c-.57-.36-1,.72-.34.85Z" transform="translate(-30.11 -112.58)"/><path class="cls-1" d="M278.09,229c.05,0,.05-.09,0-.09a0,0,0,0,0,0,.09Z" transform="translate(-30.11 -112.58)"/><path class="cls-1" d="M291.09,230.16a1,1,0,0,0,.58,0,.21.21,0,0,0,0-.4,1.13,1.13,0,0,0-.58,0,.22.22,0,0,0,0,.44Z" transform="translate(-30.11 -112.58)"/><path class="cls-1" d="M297.07,226.17a.63.63,0,0,0,.48-.93.27.27,0,0,0-.42-.06.7.7,0,0,1-.16.14.43.43,0,1,0,.1.85Z" transform="translate(-30.11 -112.58)"/><path class="cls-1" d="M305.31,223.79a.86.86,0,0,0,0-1.71.86.86,0,0,0,0,1.71Z" transform="translate(-30.11 -112.58)"/><path class="cls-1" d="M310.14,231.6a.52.52,0,0,0,0-1c-.62,0-.62,1,0,1Z" transform="translate(-30.11 -112.58)"/><path class="cls-1" d="M257.08,233.6a.43.43,0,0,0,0-.86.43.43,0,0,0,0,.86Z" transform="translate(-30.11 -112.58)"/><path class="cls-1" d="M254.57,228.07l-.14.07a.34.34,0,0,0,0,.56l.14.07c.71.36.71-1.06,0-.7Z" transform="translate(-30.11 -112.58)"/><path class="cls-1" d="M250.42,227.77l-.69.11c-.14,0-.14.3,0,.32l.69.11c.42.07.42-.6,0-.54Z" transform="translate(-30.11 -112.58)"/><path class="cls-1" d="M235,225.51a4.83,4.83,0,0,0-.52-.23c-.71-.27-1.06.83-.49,1.24a1.73,1.73,0,0,0,.34.21c.76.41,1.43-.81.67-1.22Z" transform="translate(-30.11 -112.58)"/><path class="cls-1" d="M202.42,219.1c.05-.2.07-.26.05-.17a.72.72,0,0,0-.18.33.81.81,0,0,0,0,.41.72.72,0,0,0,.88.54,1,1,0,0,0,.56-1.48.7.7,0,0,0-1.31.37Z" transform="translate(-30.11 -112.58)"/><path class="cls-1" d="M199.38,224.06l-.1.18a.33.33,0,0,0,.27.5l.21,0a.57.57,0,0,0,.61-.85.53.53,0,0,0-1,.13Z" transform="translate(-30.11 -112.58)"/><path class="cls-1" d="M142.38,209.2c-.51,0-1-.32-1.54-.15a.83.83,0,0,0-.53,1c.29,1,1.48,1.14,2.29.94,1-.24.7-1.73-.22-1.78Z" transform="translate(-30.11 -112.58)"/><path class="cls-1" d="M130.38,208l-.08.1a.56.56,0,0,0,0,.73l.08.1c.36.45,1.05.07,1.05-.46s-.69-.92-1.05-.47Z" transform="translate(-30.11 -112.58)"/><path class="cls-1" d="M127,207.57l-.37-.17a.13.13,0,0,0-.12.23l.34.21c.17.11.33-.19.15-.27Z" transform="translate(-30.11 -112.58)"/><path class="cls-1" d="M127.43,201.6a.36.36,0,0,0,0-.71.36.36,0,0,0,0,.71Z" transform="translate(-30.11 -112.58)"/><path class="cls-1" d="M134.51,193.51a.7.7,0,0,0,.58.27.51.51,0,0,0,.49-.52.79.79,0,0,0-.26-.62c-.54-.55-1.33.3-.81.87Z" transform="translate(-30.11 -112.58)"/><path class="cls-1" d="M118.09,213.87l-.12.06a.61.61,0,0,0-.28.52v.1a.5.5,0,0,0,.47.5h.09a.55.55,0,0,0,.49-.3l0-.12a.55.55,0,0,0-.71-.77Z" transform="translate(-30.11 -112.58)"/><path class="cls-1" d="M116.21,219.33a.42.42,0,0,0,0-.83.42.42,0,0,0,0,.83Z" transform="translate(-30.11 -112.58)"/><path class="cls-1" d="M112.83,225.63l-.18,0a.11.11,0,0,0,0,.22l.18,0c.15,0,.15-.27,0-.26Z" transform="translate(-30.11 -112.58)"/><path class="cls-1" d="M133.27,232.41c0-.37-.05-.62-.35-.84a.3.3,0,0,0-.29,0c-.3.22-.32.47-.35.84a.5.5,0,1,0,1,0Z" transform="translate(-30.11 -112.58)"/><path class="cls-1" d="M144.4,231.66l.17,0a.17.17,0,0,0,0-.31l-.17-.05c-.31-.09-.32.5,0,.4Z" transform="translate(-30.11 -112.58)"/><path class="cls-1" d="M121.91,277.88a.43.43,0,0,0,0-.85.43.43,0,0,0,0,.85Z" transform="translate(-30.11 -112.58)"/><path class="cls-1" d="M172,274.13l.52.43c.91.75,2-1,.92-1.69l-.37-.22c-.84-.44-1.86.74-1.07,1.48Z" transform="translate(-30.11 -112.58)"/><path class="cls-1" d="M38.57,221.13a.86.86,0,0,1,.52-.09l-.45-1.17a2.22,2.22,0,0,1-.21.37.9.9,0,0,0-.13,1A2.28,2.28,0,0,0,39,222v-1.44h0a.85.85,0,0,0-.78,1.41c.61.58,1.39,1.3,2.26,1.1a.61.61,0,0,0,.39-.74c-.28-.73-1-1.07-1.52-1.56l-.78,1.42a1.3,1.3,0,0,0,1.19-.19.86.86,0,0,0,0-1.44.4.4,0,0,1-.16-.13c0,.34-.09.67-.13,1a2.57,2.57,0,0,0,.48-.93.78.78,0,0,0-.91-1,2.54,2.54,0,0,0-1,.33c-.63.39-.21,1.56.51,1.29Z" transform="translate(-30.11 -112.58)"/><path class="cls-1" d="M44.2,219.18l-.08-.1a.53.53,0,0,0-.77,0l-.09.1a.7.7,0,1,0,.94,0Z" transform="translate(-30.11 -112.58)"/><path class="cls-1" d="M46.11,216.32l-.06-.17a.37.37,0,0,0-.71,0l-.07.17c-.28.75,1.13.75.84,0Z" transform="translate(-30.11 -112.58)"/><path class="cls-1" d="M91.43,224.77a.93.93,0,0,0,.22-.53.39.39,0,0,0-.37-.39.76.76,0,0,0-.5.24c-.45.4.27,1.16.65.68Z" transform="translate(-30.11 -112.58)"/><path class="cls-1" d="M53,249.42a1.56,1.56,0,0,0,0,.93.22.22,0,0,0,.38.11,1.41,1.41,0,0,0,.39-.83c.12-.5-.62-.72-.74-.21Z" transform="translate(-30.11 -112.58)"/><path class="cls-1" d="M54.6,256c.07,0,.07-.12,0-.12s-.07.12,0,.12Z" transform="translate(-30.11 -112.58)"/><path class="cls-1" d="M56.74,258.67l.07.14a.31.31,0,0,0,.56,0l.07-.14c.39-.82-1.09-.82-.7,0Z" transform="translate(-30.11 -112.58)"/><path class="cls-1" d="M59.23,261a.43.43,0,0,0,0-.86.43.43,0,0,0,0,.86Z" transform="translate(-30.11 -112.58)"/><path class="cls-1" d="M65.41,255l-.17,0a.18.18,0,0,0,0,.34l.17,0c.32.07.32-.48,0-.41Z" transform="translate(-30.11 -112.58)"/><path class="cls-1" d="M73.83,262.88c.07,0,.07-.12,0-.12s-.07.12,0,.12Z" transform="translate(-30.11 -112.58)"/><path class="cls-1" d="M89.66,275.16a1.52,1.52,0,0,0,.31-.36.35.35,0,0,0-.28-.52,1.32,1.32,0,0,0-.48.06c-.69.18-.17,1.38.45.82Z" transform="translate(-30.11 -112.58)"/><path class="cls-1" d="M89.25,266.93l-.12.1a.43.43,0,0,0,0,.7l.12.1c.31.25.74-.08.74-.45s-.43-.69-.74-.45Z" transform="translate(-30.11 -112.58)"/><path class="cls-1" d="M86.09,262.73a2.72,2.72,0,0,1-.42-.27c-.16-.11-.37.12-.26.28a4,4,0,0,1,.25.45c.23.5.9-.21.43-.46Z" transform="translate(-30.11 -112.58)"/><path class="cls-1" d="M79.44,254.17c-.08-.08-.07-.26-.11-.38s-.11-.24-.16-.37c-.13-.35-.43-.71-.82-.67h0l.6.37-.09-.13a.59.59,0,0,0-1,0l-.07.13.41-.34h0a1,1,0,0,0-.6,1.13c.16.83.64,1.07,1.32,1.36s1-.66.6-1.1Z" transform="translate(-30.11 -112.58)"/><path class="cls-1" d="M43.4,261.16a2.65,2.65,0,0,0,.43-1.11c0-.25-.19-.51-.43-.35a2.61,2.61,0,0,0-.83.94c-.34.54.51,1.08.83.52Z" transform="translate(-30.11 -112.58)"/><path class="cls-1" d="M425.58,261.54a1,1,0,0,0-.23-.48.44.44,0,0,0-.66,0,.83.83,0,0,0-.23.48.58.58,0,1,0,1.12,0Z" transform="translate(-30.11 -112.58)"/><path class="cls-1" d="M409.84,234.82a1.21,1.21,0,0,0-.08-.34.18.18,0,0,0-.36,0,1.21,1.21,0,0,0-.08.34c0,.35.56.35.52,0Z" transform="translate(-30.11 -112.58)"/><path class="cls-1" d="M409.74,227.29l-.29-.24c-.22-.17-.54.17-.38.4l.23.32c.32.44.86-.14.44-.48Z" transform="translate(-30.11 -112.58)"/><path class="cls-1" d="M454.72,216.67a5.21,5.21,0,0,0,.32.55c0,.08.19,0,.15-.07a5.85,5.85,0,0,0-.23-.63c-.08-.17-.32,0-.24.15Z" transform="translate(-30.11 -112.58)"/><path class="cls-1" d="M440.94,230.68a2.44,2.44,0,0,0-.41-.18.27.27,0,0,0-.32.34,2.32,2.32,0,0,0,.16.44c.3.67,1.2-.28.57-.6Z" transform="translate(-30.11 -112.58)"/><path class="cls-1" d="M440.14,251.49a13.17,13.17,0,0,0,.92,1.2c.25.29.71-.09.52-.43s-.49-.8-.76-1.19-1,0-.68.42Z" transform="translate(-30.11 -112.58)"/><path class="cls-1" d="M452.54,263.33a2.26,2.26,0,0,0-.53.86.4.4,0,0,0,.47.5,2.14,2.14,0,0,0,.81-.57c.5-.49-.28-1.33-.75-.79Z" transform="translate(-30.11 -112.58)"/><path class="cls-1" d="M373.63,275.2l-.13-.14a.49.49,0,0,0-.48-.14.47.47,0,0,0-.35.37.55.55,0,0,0,.13.51l.13.15c.46.48,1.15-.27.7-.75Z" transform="translate(-30.11 -112.58)"/><path class="cls-1" d="M401.18,281.46a.39.39,0,0,0,0-.78.39.39,0,0,0,0,.78Z" transform="translate(-30.11 -112.58)"/><path class="cls-1" d="M444.79,266.84a.52.52,0,0,0,0-1,.52.52,0,0,0,0,1Z" transform="translate(-30.11 -112.58)"/><path class="cls-1" d="M305.36,314.69a1.79,1.79,0,0,0,.74.24c.26,0,.36-.35.2-.52a1.64,1.64,0,0,0-.55-.43c-.44-.23-.84.46-.39.71Z" transform="translate(-30.11 -112.58)"/><path class="cls-1" d="M311.79,314.3a1.27,1.27,0,0,0,.27-.41c.13-.3-.13-.58-.41-.44a1.21,1.21,0,0,0-.39.28c-.35.36.21.95.53.57Z" transform="translate(-30.11 -112.58)"/><path class="cls-1" d="M319.11,314.36a2.83,2.83,0,0,0,.87-.14.22.22,0,0,0,0-.4,2.34,2.34,0,0,0-.87-.14c-.41,0-.41.69,0,.68Z" transform="translate(-30.11 -112.58)"/><path class="cls-1" d="M328,312.88c.14-.3.32-.41.35-.76a1.33,1.33,0,0,0-.16-.71.51.51,0,0,0-.7-.19,1.07,1.07,0,0,0-.51.5c-.12.25,0,.41-.09.66-.11.67.79,1.2,1.11.5Z" transform="translate(-30.11 -112.58)"/><path class="cls-1" d="M326.24,308.53c-.24.55.37,1.17.83.68s-.52-1.4-.83-.68Z" transform="translate(-30.11 -112.58)"/><path class="cls-1" d="M274.42,337a.7.7,0,0,0,0-1.39.7.7,0,0,0,0,1.39Z" transform="translate(-30.11 -112.58)"/><path class="cls-1" d="M256.69,341.85a1.3,1.3,0,0,0-.8-.9.5.5,0,0,0-.62.37,1.35,1.35,0,0,0,.18,1.09.69.69,0,0,0,1.24-.56Z" transform="translate(-30.11 -112.58)"/><path class="cls-1" d="M251.33,340.17a2.53,2.53,0,0,0,.11-1.36.28.28,0,0,0-.48-.14,2.43,2.43,0,0,0-.55,1.23.48.48,0,1,0,.92.27Z" transform="translate(-30.11 -112.58)"/><path class="cls-1" d="M250.52,331.51l.13-.21a.43.43,0,0,0-.23-.61c-.64-.11-.94.49-.84,1.1s1,.38.94-.28Z" transform="translate(-30.11 -112.58)"/><path class="cls-1" d="M231.93,335.85c.24,1.3,2.22.8,1.91-.51-.16-.67-1-.55-1.16,0,.08-.16.11-.21.07-.15-.21.05-.12.11.26.17a.6.6,0,0,0-1.08.49Z" transform="translate(-30.11 -112.58)"/><path class="cls-1" d="M209.15,307.08a1.65,1.65,0,0,0-.27-1,.31.31,0,0,0-.55,0,1.52,1.52,0,0,0-.27,1,.55.55,0,1,0,1.09,0Z" transform="translate(-30.11 -112.58)"/><path class="cls-1" d="M165.26,312.6c-.39,0-.6,0-.84.36a.37.37,0,0,0,0,.38c.24.34.45.34.84.36.66,0,.66-1.12,0-1.1Z" transform="translate(-30.11 -112.58)"/><path class="cls-1" d="M159.85,316.17c.5,0,.5-.84,0-.84a.42.42,0,0,0,0,.84Z" transform="translate(-30.11 -112.58)"/><path class="cls-1" d="M60,170.83a.62.62,0,0,0-.41,1A.37.37,0,0,0,60,172a.46.46,0,0,0,.21-.13.26.26,0,0,0,0-.35h0c0-.1-.08-.08-.18.07.45,0,.44-.78,0-.74Z" transform="translate(-30.11 -112.58)"/><path class="cls-1" d="M91.5,175.75a5.24,5.24,0,0,0-.1-1.25.3.3,0,0,0-.58,0,5.24,5.24,0,0,0-.1,1.25.39.39,0,1,0,.78,0Z" transform="translate(-30.11 -112.58)"/><path class="cls-1" d="M101.32,128a8.46,8.46,0,0,0-.17-1.23.22.22,0,0,0-.44,0,8.46,8.46,0,0,0-.17,1.23.39.39,0,1,0,.78,0Z" transform="translate(-30.11 -112.58)"/><path class="cls-1" d="M337,173.22a.55.55,0,0,0-.92,0,.68.68,0,1,0,.92,0Z" transform="translate(-30.11 -112.58)"/><path class="cls-1" d="M404.21,176.52a.48.48,0,0,0,0-1,.48.48,0,0,0,0,1Z" transform="translate(-30.11 -112.58)"/><path class="cls-1" d="M410.79,174a.9.9,0,0,0,.27-.53.33.33,0,0,0-.39-.41.83.83,0,0,0-.49.29c-.43.39.24,1.1.61.65Z" transform="translate(-30.11 -112.58)"/><path class="cls-1" d="M420.85,171.09a.58.58,0,0,0,0-1.15.58.58,0,0,0,0,1.15Z" transform="translate(-30.11 -112.58)"/><path class="cls-1" d="M421.12,167.83a.52.52,0,0,0,0-1,.52.52,0,0,0,0,1Z" transform="translate(-30.11 -112.58)"/><path class="cls-1" d="M414.64,170.58l.26-.3c.07-.08,0-.19-.11-.12l-.28.29c-.08.08.05.22.13.13Z" transform="translate(-30.11 -112.58)"/><path class="cls-1" d="M392.56,123.73a2.08,2.08,0,0,0-.32-.4c-.41-.4-1,.21-.6.64a1.5,1.5,0,0,0,.37.34c.32.24.77-.24.55-.58Z" transform="translate(-30.11 -112.58)"/><path class="cls-1" d="M388.39,125.15a.34.34,0,0,0,0-.67c-.4,0-.41.67,0,.67Z" transform="translate(-30.11 -112.58)"/><path class="cls-1" d="M388.63,125.15l.28.28s.09,0,.06-.06l-.27-.3c-.05,0-.12,0-.07.08Z" transform="translate(-30.11 -112.58)"/><path class="cls-1" d="M207.52,366.34l-.06.29a.73.73,0,0,0,.85.91l.27-.06a1,1,0,0,0,.38-1.54.85.85,0,0,0-1.44.4Z" transform="translate(-30.11 -112.58)"/><path class="cls-1" d="M215.12,370.63l.16,0a.62.62,0,0,0,.43-.47l0-.16c.18-.91-.84-1.63-1.5-.93a1,1,0,0,0,.87,1.59Z" transform="translate(-30.11 -112.58)"/><path class="cls-1" d="M219.39,372.69c.11,0,.11-.19,0-.19a.1.1,0,0,0,0,.19Z" transform="translate(-30.11 -112.58)"/><path class="cls-1" d="M276.91,403.22l.17-.11a.56.56,0,0,0,0-.93l-.17-.11c-1.16-.71-1.16,1.86,0,1.15Z" transform="translate(-30.11 -112.58)"/><path class="cls-1" d="M227.27,403.7a.1.1,0,0,0,0-.19c-.11,0-.11.19,0,.19Z" transform="translate(-30.11 -112.58)"/><path class="cls-1" d="M258.74,373.12a2.56,2.56,0,0,0,.48-.33c.23-.2,0-.58-.28-.51a2.83,2.83,0,0,0-.54.23c-.38.21,0,.81.34.61Z" transform="translate(-30.11 -112.58)"/><path class="cls-1" d="M263.44,372.05a3.22,3.22,0,0,0,.5.23c.15.06.22-.18.1-.26a1.94,1.94,0,0,0-.43-.27c-.19-.1-.35.2-.17.3Z" transform="translate(-30.11 -112.58)"/><path class="cls-1" d="M264.66,373.65a.33.33,0,0,0,0-.66.33.33,0,0,0,0,.66Z" transform="translate(-30.11 -112.58)"/><path class="cls-1" d="M272.12,370.17l.16-.13a.41.41,0,0,0,0-.66l-.16-.12c-.91-.71-.91,1.62,0,.91Z" transform="translate(-30.11 -112.58)"/><path class="cls-1" d="M327.84,369.85l-.07-.22a.28.28,0,0,0-.54,0,1.42,1.42,0,0,1-.07.22c-.18.61.87.61.68,0Z" transform="translate(-30.11 -112.58)"/><path class="cls-1" d="M330.35,368.26l.12-.3c.13-.32-.13-.59-.42-.45l-.29.13c-.67.3.3,1.35.59.62Z" transform="translate(-30.11 -112.58)"/><text x="-30.11" y="-112.58"></text><path class="cls-1" d="M290.56,364.31a.85.85,0,0,0,0-1.69c-1,0-1,1.69,0,1.69Z" transform="translate(-30.11 -112.58)"/><path d="M178.13,190.11a2,2,0,0,0-.27-1.16,1.06,1.06,0,0,0-1.86,0,2,2,0,0,0-.27,1.16,1.2,1.2,0,1,0,2.4,0Z" transform="translate(-30.11 -112.58)"/><path d="M183.6,180.09a2.09,2.09,0,0,0-.8.68.89.89,0,0,0,0,.84,2,2,0,0,0,.8.67,1.23,1.23,0,1,0,0-2.19Z" transform="translate(-30.11 -112.58)"/><path d="M132.57,172.3c-.42,0-.84,0-1.25.07a1.63,1.63,0,0,0,0,3.26c.41,0,.83,0,1.25.06,2,.09,2-3.48,0-3.39Z" transform="translate(-30.11 -112.58)"/><path d="M113.86,187.32a8.59,8.59,0,0,0-1.67,1A1.43,1.43,0,0,0,112,190a1.26,1.26,0,0,0,1.44.62,8.32,8.32,0,0,0,1.74-.87,1.45,1.45,0,0,0,.47-1.9,1.27,1.27,0,0,0-1.78-.5Z" transform="translate(-30.11 -112.58)"/><path d="M98.46,204.16l-.16.05a1.1,1.1,0,0,0,0,2.07l.16.06a1.12,1.12,0,1,0,0-2.18Z" transform="translate(-30.11 -112.58)"/><path d="M89.91,199.38l-.35.07a.39.39,0,0,0,0,.73l.35.07c.68.13.68-1,0-.87Z" transform="translate(-30.11 -112.58)"/><path d="M88.19,195.17a.88.88,0,0,0-1.43,0,1.06,1.06,0,1,0,1.43,0Z" transform="translate(-30.11 -112.58)"/><path d="M338.23,191l-.34.11a.56.56,0,0,0,0,1.05l.34.11c1,.3,1-1.58,0-1.27Z" transform="translate(-30.11 -112.58)"/><path d="M362.39,179.91a.92.92,0,0,0,.62-.19.58.58,0,0,0,0-.95.92.92,0,0,0-.62-.19c-.81,0-.81,1.37,0,1.33Z" transform="translate(-30.11 -112.58)"/><path d="M365.3,182.41c.07,0,.07-.12,0-.12s-.07.12,0,.12Z" transform="translate(-30.11 -112.58)"/><path d="M349.13,205.68a3.38,3.38,0,0,0,5.46.13l-1,.44a1.67,1.67,0,0,0,.84-3.05,1.6,1.6,0,0,0-2.05,2.31l-.14-1.15c.07-.17,0,0-.05,0s-.27.09-.4.09a.72.72,0,0,1-.7-.38c-.88-1.19-2.85.41-2,1.64Z" transform="translate(-30.11 -112.58)"/><path d="M382.75,188.34a1.34,1.34,0,0,0,0-2.67c-1.61,0-1.61,2.67,0,2.67Z" transform="translate(-30.11 -112.58)"/><path d="M382.75,193.07a.63.63,0,0,0,0-1.26c-.75,0-.75,1.26,0,1.26Z" transform="translate(-30.11 -112.58)"/><path d="M384.07,199.81a1.21,1.21,0,0,0,.37.92.69.69,0,0,0,1,0,1.23,1.23,0,0,0,.38-.92c.14-1.19-1.89-1.19-1.74,0Z" transform="translate(-30.11 -112.58)"/><path d="M419.66,200.84a1.86,1.86,0,0,0-.13-2,1.62,1.62,0,0,0-2.52-.18,1.9,1.9,0,0,0,0,2.54,1.63,1.63,0,0,0,2.65-.36Z" transform="translate(-30.11 -112.58)"/><path d="M425.59,196.64a.21.21,0,0,0,0-.41.21.21,0,0,0,0,.41Z" transform="translate(-30.11 -112.58)"/><path d="M418,200.26c.07,0,.07-.12,0-.12s-.07.12,0,.12Z" transform="translate(-30.11 -112.58)"/><path d="M446.16,203.74c.59-.31,1.37-.58,1.58-1.32a.59.59,0,0,0-.37-.69c-.67-.26-1.4.31-2,.62a.79.79,0,0,0,.76,1.39Z" transform="translate(-30.11 -112.58)"/><path d="M449.44,203.23l.52.33c.75.46,1.41-.87.66-1.21l-.56-.25a.65.65,0,0,0-.62,1.13Z" transform="translate(-30.11 -112.58)"/><path d="M457.4,202.07a1,1,0,0,0,0-2,1,1,0,0,0,0,2Z" transform="translate(-30.11 -112.58)"/><path d="M466,258.42a1.91,1.91,0,0,0-.34-1.13.44.44,0,0,0-.65,0,1.84,1.84,0,0,0-.34,1.13c-.11.91,1.44.91,1.33,0Z" transform="translate(-30.11 -112.58)"/><path d="M469.84,244.57c-.39-1.1-1.41-1.11-1.8,0a1,1,0,1,0,1.8,0Z" transform="translate(-30.11 -112.58)"/><path d="M73.9,278.65l-.31-.14c-1-.47-1.91.48-1.47,1.57l.13.33a1.17,1.17,0,0,0,1.89.26,1.35,1.35,0,0,0-.24-2Z" transform="translate(-30.11 -112.58)"/><path d="M75.74,283.53a2.24,2.24,0,0,0,1.33-.51.8.8,0,0,0,0-1.08,2.25,2.25,0,0,0-1.33-.52,1.08,1.08,0,1,0,0,2.11Z" transform="translate(-30.11 -112.58)"/><path d="M90,288.2a1,1,0,0,0,.42-.07.23.23,0,0,0,0-.44,1,1,0,0,0-.42-.07.29.29,0,0,0,0,.58Z" transform="translate(-30.11 -112.58)"/><path d="M149.66,292.39l-.19,0a1.33,1.33,0,0,0,0,2.64l.19,0c1.61.14,1.61-2.82,0-2.68Z" transform="translate(-30.11 -112.58)"/><path d="M150.27,281.54a11.63,11.63,0,0,0,1.57,1.17,1.7,1.7,0,0,0,2.51-1.09,6.07,6.07,0,0,0-.19-3.75c-.8-1.7-3.21-.82-3.24.94a4.54,4.54,0,0,0,.13.91c0-.21,0,.19,0,.25a6.57,6.57,0,0,1-.07,1.17l2.16-1.76a8.6,8.6,0,0,0-1.49-.39,1.46,1.46,0,0,0-1.62.7,1.61,1.61,0,0,0,.22,1.85Z" transform="translate(-30.11 -112.58)"/><path d="M159.48,282.68c1.64,0,1.64-2.73,0-2.73s-1.65,2.73,0,2.73Z" transform="translate(-30.11 -112.58)"/><path d="M164.43,286.11c.54.5,1.49,1.14,2.14.45s.05-1.71-.42-2.28c-1-1.26-2.89.73-1.72,1.83Z" transform="translate(-30.11 -112.58)"/><path d="M145.83,130c-.08-.07-.67-.58-.36-.33a1.85,1.85,0,0,0-.43-.32c.1.09.11.1,0,0s-.07-.07,0,0c-.08-.17-.1-.18,0,0-.05-.19-.06-.19,0,0q0-.3,0,0a1.7,1.7,0,0,0-1.32-2.11,1.63,1.63,0,0,0-1.79,1.66c-.2,1.92,1.86,4.44,3.7,3.15a1.42,1.42,0,0,0,.26-2.12Z" transform="translate(-30.11 -112.58)"/><path d="M128.93,127.31a1.41,1.41,0,0,0-1.28.51.9.9,0,0,0,0,1.17,1.41,1.41,0,0,0,1.28.51c1.31,0,1.32-2.19,0-2.19Z" transform="translate(-30.11 -112.58)"/><path d="M120.64,134.15a1.56,1.56,0,0,0,1.21.14.86.86,0,0,0,.54-1c-.14-.57-.54-.79-1-1.11-1.15-.87-2.29,1.47-.79,2Z" transform="translate(-30.11 -112.58)"/><path d="M248.28,201l0-.26a1.36,1.36,0,0,0-1.32-1.4l-.24,0a1.59,1.59,0,0,0-1.4,1,1.72,1.72,0,0,0,.32,1.79,1.51,1.51,0,0,0,1.49.42,1.67,1.67,0,0,0,1.12-1.58Z" transform="translate(-30.11 -112.58)"/><path d="M261.6,198.73c-.37-1.26-1.69-1.27-2.07,0a1.09,1.09,0,1,0,2.07,0Z" transform="translate(-30.11 -112.58)"/><path d="M262,191.33a.06.06,0,0,0,0-.11.06.06,0,0,0,0,.11Z" transform="translate(-30.11 -112.58)"/><path d="M317.7,183.47l-.08-.1a1.42,1.42,0,0,0-2.1,0l-.08.1a1.87,1.87,0,0,0-.33,1.87,1.55,1.55,0,0,0,2.84.2,1.85,1.85,0,0,0-.25-2.07Z" transform="translate(-30.11 -112.58)"/><path d="M332.21,132.62a1.11,1.11,0,0,0,0-2.21,1.11,1.11,0,0,0,0,2.21Z" transform="translate(-30.11 -112.58)"/><path d="M51.84,282.4c.83,0,.84-1.4,0-1.4a.7.7,0,0,0,0,1.4Z" transform="translate(-30.11 -112.58)"/><path d="M62.74,273.17c-1-.08-3.12,0-3.12,1.55s2.14,1.62,3.12,1.54a1.55,1.55,0,0,0,0-3.09Z" transform="translate(-30.11 -112.58)"/><path d="M449.31,278.22a3.43,3.43,0,0,0,.72-1,1.49,1.49,0,0,0-2-2.08,3,3,0,0,0-1,.76,1.77,1.77,0,0,0,0,2.35,1.51,1.51,0,0,0,2.2,0Z" transform="translate(-30.11 -112.58)"/><text x="-30.11" y="-112.58"></text></g><g id="TEXT"><path d="M200.51,138.24H184.12l-1.42,1.67h14v14.62H183.39l-1.29,1.64h12.6l-5,8.25,9.68,5.46h-6l-6-3.35-6.27,3.35h-6.32l9.63-5.07-6.28-3.61L176.86,163H173l6.66-8.43h-5.33V139.91h4.34l1.42-1.67h-9.59v-2.89h30Zm-6.45,4.3H176.94V144h17.12Zm0,5.46v-1.42H176.94V148Zm0,4v-1.42H176.94V152Zm-4.48,7.05h-9.24l6.84,3.78Z" transform="translate(-30.11 -112.58)"/><path d="M215.43,138.92h26.18v27.35H215.43ZM238,142.54H219v7.78h19Zm-19,20.12h19v-8.73H219Z" transform="translate(-30.11 -112.58)"/><path d="M264.53,136.39v5.29h3.14v3.39h-3.14V153l2.67-1.07v3.91l-2.67,1.08v12.85h-3.22V158.27l-5,2.07v-4l5-2.06v-9.25h-2.62l-.73,5.76h-3.49l1.68-12.38h3.44l-.43,3.23h2.15v-5.29Zm24,9.28V149H268.4v-3.32h8.43v-3.48h-7.09v-3.27h7.09V135.7h3.31v3.22h7.05v3.27h-7.05v3.48Zm.17,7.36v3.22H285v13.33h-3.4V156.25H268.4V153h13.16v-2.8H285V153ZM271,158.83h3.79l3.22,5.42h-3.82Z" transform="translate(-30.11 -112.58)"/><path d="M309.17,165.71h22.62V169h-24l-3.65-3.61-6.07,4.47v-4.21l4.56-3.4V152.9h-4.56v-3.27h7.83v12.86Zm-4.47-20.64h-3.62l-1.5-4.56h3.61Zm26.18,11.31v3H307.83v-3h5.68v-3H310v-3h3.48v-2.11h3v2.11h5.76v-2.11h3v2.11h3.48v3h-3.48v3Zm-15.39-16.47v-1.29h-7.31V136h9.93v6.66h-7v2h7.79v2.67h-10.5v-7.4Zm-1.08,23.82h-3.78l1.85-3h3.78Zm2.07-10.32v3h5.76v-3Zm11.09-13.5v-1.29h-7.78V136h10.45v6.66h-7.05v1.89H331v2.67H320.52v-7.27ZM325,163.73l-1.89-3H327l1.89,3Z" transform="translate(-30.11 -112.58)"/><path class="cls-1" d="M134.48,227.81c-.28,1.52-.54,3-.8,4.55q-2.72.84-5.41,1.71c.62-4.44,1.29-8.9,2-13.35q2.82-.87,5.65-1.7c-.23,1.26-.47,2.52-.7,3.77q16-4.75,32.31-8.12l.92,4.49Q151.35,222.7,134.48,227.81Zm30.66,18.62c-2.93.69-5.87,1.41-8.79,2.16q5.6,3,11,6.26-2.74.63-5.46,1.31-4-2.3-8-4.51l2.37,8.85c-1.21.32-2.41.65-3.61,1l-2.4-8.61q-2.08,3.78-4,7.57-2.58.76-5.16,1.58,2.73-5.41,5.68-10.8-4.47,1.29-8.93,2.7l-1.09-3.43q5.92-1.87,11.89-3.54-.87-3.09-1.73-6.2l3.83-1c.55,2.08,1.11,4.15,1.66,6.22q6-1.6,12-3Zm4.91-7.15q4.08,7.78,8,15.64l-4.47.93q-3.89-7.5-8-14.93l-1.44-6.34q-14.69,3.34-29.14,7.88l-1.32-4.21q16.95-5.31,34.22-9Q169,234.25,170.05,239.28Zm-27.86,4q1.65,1.57,3.27,3.16-2.43.69-4.84,1.43c-1.11-1-2.24-2.07-3.37-3.1C138.9,244.28,140.55,243.79,142.19,243.3Zm22.95-16.19Q151,230.23,137,234.45c-.42-1.39-.84-2.78-1.25-4.16q14.13-4.28,28.5-7.43Zm-8.52,12.26q2.52-.65,5-1.24c-.43,1.46-.85,2.91-1.26,4.36-1.67.41-3.34.82-5,1.25C155.8,242.28,156.21,240.83,156.62,239.37Z" transform="translate(-30.11 -112.58)"/><path class="cls-1" d="M197.12,210.06l.6,4.66q-4.46-.42-8.94-.74c-.24-1.54-.47-3.09-.71-4.64Q192.62,209.64,197.12,210.06Zm1.6,12.36.6,4.66c-2.88-.33-5.78-.62-8.68-.88l-.72-4.71Q194.35,221.91,198.72,222.42Zm-3.42,30.17q.42-8.33,1-16.67l4.95-.66q-.69,8.33-1.22,16.65C198.46,252.13,196.88,252.35,195.3,252.59Zm16.46-38.15c-.64,3-1.26,5.95-1.85,8.92-1.75.18-3.49.36-5.24.56q1.82-9.34,3.9-18.67c1.81-.18,3.61-.34,5.42-.5q-.59,2.5-1.15,5,12.67-1.12,25.41-1.43-.34,13-.6,26c-1.61,0-3.23.1-4.84.16q0-10.71.11-21.42Q222.32,213.47,211.76,214.44Zm4.43,29.65q11.73-1,23.49-1.3c0,1.47.06,2.94.1,4.41q-13.86.31-27.67,1.71l-2-20.15q7-.7,14.08-1.15c-.11-1.85-.23-3.7-.35-5.56q-5.56.36-11.13.87l-.41-4.45q8.06-.74,16.13-1.15.36,7.22.73,14.43-7,.34-13.93,1Q215.7,238.4,216.19,244.09Z" transform="translate(-30.11 -112.58)"/><path class="cls-1" d="M253.85,221c0-1.56.05-3.13.07-4.69q9.79.15,19.58.81-7.59,13.32-14.24,26.93c-1.73-.06-3.46-.1-5.18-.13q5.35-11.35,11.37-22.55Q259.66,221.1,253.85,221Zm19.69,28.91q1.66-22.56,3.31-45.11c1.77.13,3.53.27,5.3.42q-2,22.53-3.92,45.07C276.67,250.15,275.11,250,273.54,249.91Zm30.2-32.67q-7.58,3.15-14.87,6.59,5.5,11.79,10.21,23.74c-1.79-.26-3.59-.51-5.38-.74q-5.2-12.63-11.32-25.11,6-3,12.17-5.71Q299.15,216.58,303.74,217.24Z" transform="translate(-30.11 -112.58)"/><path class="cls-1" d="M328.6,225q.76,5.63,1.44,11.25c-1.51-.34-3-.67-4.54-1q-2.31,10.89-4.63,21.78-2-.42-3.93-.81,1.94-9.77,3.85-19.52-1.83,3.3-3.63,6.62c-1.48-.29-3-.57-4.44-.83q4.62-9.45,9.56-18.8c-1.78-.35-3.55-.68-5.33-1,.26-1.41.52-2.81.77-4.22,2.19.4,4.36.81,6.54,1.25.59-3,1.18-5.91,1.78-8.87,1.48.3,3,.6,4.44.92q-.93,4.42-1.88,8.85c1.54.32,3.07.66,4.6,1-.32,1.4-.63,2.79-.94,4.19Zm26.89-8q-3,12.51-6,25c4.48,1.26,8.94,2.62,13.38,4.05-.42,1.29-.84,2.58-1.25,3.86Q355.81,248,350,246.27q.78,2.79,1.52,5.59l2.68-2.47q2.37.71,4.74,1.46-3.12,2.85-6.16,5.74c.82,3.16,1.59,6.32,2.33,9.48q-2.29-.74-4.59-1.43c-.39-1.58-.79-3.15-1.2-4.73l-2.46,2.42c-1.5-.44-3-.87-4.52-1.28q2.82-2.93,5.71-5.8-1.35-5.16-2.84-10.32-4.35-1.19-8.72-2.27c-.13.43-.26.86-.38,1.28,1.32,3.26,2.59,6.51,3.81,9.78-1.72-.46-3.43-.9-5.15-1.33l-.81-2q-2.12,3.78-4.18,7.59c-1.42-.34-2.84-.68-4.27-1,1.6-3.13,3.22-6.24,4.86-9.36l1.71-6-1.69-.39c.3-1.32.61-2.64.91-4q7,1.6,13.88,3.47,2.89-12.53,5.73-25.07C352.42,216.06,354,216.48,355.49,216.91ZM332.2,233.24q2.67-3.13,5.41-6.24-1.68-2.28-3.41-4.55,3.36-3.87,6.82-7.69c1.43.34,2.86.7,4.29,1.06-2.08,2.28-4.12,4.59-6.14,6.9l1,1.44c.68-.79,1.37-1.57,2.06-2.36l4.14,1.06q-3.69,4-7.27,8.09l2.7.55c.16-.78.31-1.56.46-2.33,1.17.29,2.34.59,3.5.9-.44,2.26-.88,4.53-1.33,6.79L341,236c.07-.37.15-.73.22-1.09C338.21,234.3,335.2,233.75,332.2,233.24Zm24.83-.92q-1.65-2.55-3.35-5.07,3.63-3.58,7.37-7.11c1.48.44,2.95.89,4.43,1.35q-3.47,3.13-6.85,6.34c.41.63.81,1.26,1.22,1.88l2.36-2.37c1.39.42,2.78.86,4.16,1.3q-3.93,3.68-7.77,7.42l3.12.84.33-2.15,3.52,1.12q-.6,3.44-1.21,6.86l-3.46-1.1.24-1.39c-3.19-.84-6.4-1.63-9.6-2.39C353.35,236,355.18,234.15,357,232.32Zm-3,7.52c1.46.43,2.92.86,4.38,1.31.34,1,.67,2,1,3l-4.29-1.31C354.74,241.83,354.38,240.83,354,239.84Z" transform="translate(-30.11 -112.58)"/><path d="M212.25,286.73a.79.79,0,0,1,.36-.48.6.6,0,0,1,.48-.06.66.66,0,0,1,.37.3.91.91,0,0,1,.12.58,7.09,7.09,0,0,0-.2,1.36,12.45,12.45,0,0,1,2.29-.22,11.83,11.83,0,0,1,2.35.2,6.88,6.88,0,0,1,1.92.67,2,2,0,0,1,1,1.08,4.78,4.78,0,0,1,.22,2.2,6.38,6.38,0,0,1-.68,2.07,9.19,9.19,0,0,1-1.33,1.9,21,21,0,0,1-1.68,1.72,8.38,8.38,0,0,1,2.91,0,4.6,4.6,0,0,1,2.5,1.32,1.54,1.54,0,0,1,.44.91,3.3,3.3,0,0,1-.05,1.08,6.55,6.55,0,0,1-.33,1.09,7.93,7.93,0,0,1-.4.9,6.1,6.1,0,0,1-1.33,1.63,8.47,8.47,0,0,1-1.8,1.21,11,11,0,0,1-2,.78,12,12,0,0,1-2,.39.8.8,0,0,1-.61-.2.61.61,0,0,1-.63.17.81.81,0,0,1-.53-.55c-.09-1.76-.24-3.52-.46-5.26l-.63-5.27c-.11-1-.22-1.9-.32-2.83s-.17-1.87-.19-2.82a.62.62,0,0,1-.78,0,.73.73,0,0,1-.2-.87,2.32,2.32,0,0,1,1-.85c0-.34,0-.69.08-1S212.19,287.09,212.25,286.73ZM214.19,299c.34-.25.75-.57,1.23-1s1-.85,1.44-1.33a20.28,20.28,0,0,0,1.41-1.51,9.42,9.42,0,0,0,1.12-1.58,4.52,4.52,0,0,0,.57-1.52,2,2,0,0,0-.26-1.34,1.85,1.85,0,0,0-.82-.75,4.71,4.71,0,0,0-1.1-.34,7.18,7.18,0,0,0-1.24-.08l-1.19.05a1.82,1.82,0,0,1-.41,0h-.1l-.73.07-.8.1a25.69,25.69,0,0,0,.19,3.17c.12,1,.24,2.08.35,3.12Zm.1.72c.12,1.06.23,2.12.34,3.16s.21,2.11.28,3.2l.23-.11a9.6,9.6,0,0,0,2-.35,9.35,9.35,0,0,0,1.93-.8,7.28,7.28,0,0,0,1.65-1.24,4.07,4.07,0,0,0,1-1.72,3.59,3.59,0,0,0,.22-.9,1.17,1.17,0,0,0-.22-.83,1.82,1.82,0,0,0-1.29-.77,6.79,6.79,0,0,0-1.92,0,13.38,13.38,0,0,0-2.06.4c-.68.2-1.25.37-1.7.53,0,0,0,0,0,0h-.09l-.05,0Z" transform="translate(-30.11 -112.58)"/><path d="M230.88,302.51a1.89,1.89,0,0,1-.91.39,8.5,8.5,0,0,1-1.14.08c-.4,0-.8,0-1.21,0a5.46,5.46,0,0,0-1.16.09.86.86,0,0,1-.54.2h-.1a3,3,0,0,0,.88,1.48,2.31,2.31,0,0,0,1.63.6,4.09,4.09,0,0,0,1.28-.19,8.35,8.35,0,0,0,1.17-.46c.05,0,.1,0,.17-.1a1.21,1.21,0,0,1,.38-.48.5.5,0,0,1,.2-.08.69.69,0,0,0,.17,0l.49.32.46.32a1.47,1.47,0,0,1-.78,1,6.23,6.23,0,0,1-1.61.73,7.74,7.74,0,0,1-1.81.32,2.55,2.55,0,0,1-1.34-.18,6.92,6.92,0,0,1-1.55-1.09,4,4,0,0,1-.88-1.26,4.21,4.21,0,0,1-.32-1.49,9,9,0,0,1,.13-1.87,2.53,2.53,0,0,1,.48-1.23,2.37,2.37,0,0,1,.9-.71,3.13,3.13,0,0,1,1.16-.27,5.7,5.7,0,0,1,1.24.06,1.67,1.67,0,0,1,1,.51,7.74,7.74,0,0,0,.9.82,2.85,2.85,0,0,1,.51.49,3.1,3.1,0,0,1,.43.68,1.67,1.67,0,0,1,.13.72A.87.87,0,0,1,230.88,302.51Zm-3-2.52a1.35,1.35,0,0,0-.88-.15,1.06,1.06,0,0,0-.63.39,2.35,2.35,0,0,0-.41.73,4.27,4.27,0,0,0-.22.87,3.24,3.24,0,0,1,1-.21l1,0h1a5.3,5.3,0,0,0,1-.1,2.3,2.3,0,0,0-.37-.43,5.17,5.17,0,0,0-.51-.42c-.18-.14-.36-.26-.55-.38S228,300.06,227.86,300Z" transform="translate(-30.11 -112.58)"/><path d="M240.1,301.69a.67.67,0,0,1-.78-.51,3,3,0,0,0-1.33-.05,7.43,7.43,0,0,0-1.33.32,10.63,10.63,0,0,0,1.72.53,16.65,16.65,0,0,1,1.85.53,5.77,5.77,0,0,1,1.55.78,2,2,0,0,1,.83,1.26l-.27.78a6.66,6.66,0,0,1-2,.75,13,13,0,0,1-2.71.32,8.81,8.81,0,0,1-2.53-.32,2,2,0,0,1-1.46-1.23l.2-.61.41-.41a.86.86,0,0,1,.48-.12.71.71,0,0,1,.4.16.57.57,0,0,1,.22.37.64.64,0,0,1-.08.48,6.1,6.1,0,0,0,1.33.28,9.6,9.6,0,0,0,1.53.06,13.19,13.19,0,0,0,1.54-.17,6.58,6.58,0,0,0,1.38-.41,3,3,0,0,0-1.38-.72l-2-.54a17.87,17.87,0,0,1-1.87-.61c-.56-.23-.89-.53-1-.92a.86.86,0,0,1,.2-.78,2.36,2.36,0,0,1,.87-.63,5.57,5.57,0,0,1,1.27-.39,7.66,7.66,0,0,1,1.41-.14,4,4,0,0,1,1.28.19,1.75,1.75,0,0,1,.88.56v.85A1.36,1.36,0,0,1,240.1,301.69Z" transform="translate(-30.11 -112.58)"/><path d="M240.64,297.54a1,1,0,0,1-.46-.29.63.63,0,0,1-.15-.41.62.62,0,0,1,.15-.4.8.8,0,0,1,.46-.26c.59,0,1.19,0,1.79-.07s1.19-.1,1.78-.17l.14-4.28a.83.83,0,0,1,.22-.54.58.58,0,0,1,.42-.22.6.6,0,0,1,.45.15.92.92,0,0,1,.27.54l-.14,4.22,2-.1a.8.8,0,0,1,.55.23.72.72,0,0,1,.17.45.69.69,0,0,1-.19.44.87.87,0,0,1-.53.24l-2.11.1c0,1.54,0,3.06,0,4.57a37,37,0,0,0,.46,4.54.85.85,0,0,1-.12.58.65.65,0,0,1-.37.25A.6.6,0,0,1,245,307a.9.9,0,0,1-.38-.45,39,39,0,0,1-.46-4.64c-.05-1.52-.06-3.07,0-4.64-.59.07-1.18.13-1.77.17S241.23,297.54,240.64,297.54Z" transform="translate(-30.11 -112.58)"/><path d="M254.09,286.25a.67.67,0,0,1,.42-.22.58.58,0,0,1,.44.16.87.87,0,0,1,.28.54V287a3.56,3.56,0,0,0,.47.05,3.47,3.47,0,0,0,.44,0c.66,0,1.3,0,1.92-.07s1.26-.08,1.89-.1a.77.77,0,0,1,.55.24.67.67,0,0,1,.17.44.65.65,0,0,1-.19.44.78.78,0,0,1-.53.24c-.63,0-1.27.06-1.9.1s-1.27.07-1.91.07a3.24,3.24,0,0,1-.45,0,3,3,0,0,1-.43-.05l.15,3.88c.06,1.29.13,2.58.22,3.87,0,0,.05,0,.07,0l.1,0a1,1,0,0,0,.73.15,3.4,3.4,0,0,0,.89-.22l.88-.35a5,5,0,0,1,.7-.26.67.67,0,0,1,.88.43.65.65,0,0,1,0,.47.75.75,0,0,1-.44.39,6.37,6.37,0,0,0-.94.29c-.3.13-.61.24-.92.34a4.31,4.31,0,0,1-.91.22,2.26,2.26,0,0,1-.9,0c.11,1.68.21,3.35.28,5s.15,3.35.19,5.05a.84.84,0,0,1-.24.48.54.54,0,0,1-.39.17.7.7,0,0,1-.42-.15,1,1,0,0,1-.31-.43c0-3.22-.19-6.42-.44-9.62s-.42-6.4-.51-9.62a.69.69,0,0,1-.58-.34.07.07,0,0,0,0-.05s0,0,0-.05l.3-1,.28-.1v-.2A.89.89,0,0,1,254.09,286.25Z" transform="translate(-30.11 -112.58)"/><path d="M264.78,299.75a.1.1,0,0,0,.07,0,2.24,2.24,0,0,1,1.51.73,3.82,3.82,0,0,1,.9,1.58,4.65,4.65,0,0,1,.15,1.9,3.09,3.09,0,0,1-.73,1.7,1.7,1.7,0,0,1-.76.49,4.49,4.49,0,0,1-.95.21,6.55,6.55,0,0,1-1,0l-.87-.07a2.69,2.69,0,0,1-1.82-.72,2.81,2.81,0,0,1-.78-1.54,4.28,4.28,0,0,1,.12-1.87,4.72,4.72,0,0,1,.85-1.69,3,3,0,0,1,1.43-1A2.51,2.51,0,0,1,264.78,299.75Zm-.55,1.46a.59.59,0,0,1-.57.05.65.65,0,0,1-.34-.35,1.5,1.5,0,0,0-.9.63,3.15,3.15,0,0,0-.51,1.08,2.71,2.71,0,0,0-.07,1.16,1.07,1.07,0,0,0,.46.8,2.54,2.54,0,0,0,1.26.44,5.82,5.82,0,0,0,1.32,0,1.35,1.35,0,0,0,1-.58,1.73,1.73,0,0,0,.27-1.08,3.31,3.31,0,0,0-.3-1.21,2.06,2.06,0,0,0-.72-.9.65.65,0,0,0-.27-.14h-.2A1.31,1.31,0,0,0,264.23,301.21Z" transform="translate(-30.11 -112.58)"/><path d="M269,299.21a1,1,0,0,1,0-.55.57.57,0,0,1,.26-.34.87.87,0,0,1,.44-.08.78.78,0,0,1,.49.22l.26.44c.08.14.15.29.22.44a2.68,2.68,0,0,1,.51-.68,5.4,5.4,0,0,1,1.46-1,2.39,2.39,0,0,1,1.33-.2,1.59,1.59,0,0,1,1,.65,3.53,3.53,0,0,1,.63,1.56.76.76,0,0,1-.12.58.62.62,0,0,1-.37.25.6.6,0,0,1-.46-.08.91.91,0,0,1-.37-.44c-.16-.73-.41-1.14-.75-1.25s-.8.2-1.39.91a4.57,4.57,0,0,0-.63,1.08,9.9,9.9,0,0,0-.43,1.3c0,.38,0,.77,0,1.15a7.51,7.51,0,0,0,.05,1.16c.05.34.08.66.12,1a4.24,4.24,0,0,1,0,1l-.68,0-.68.05a7.26,7.26,0,0,1-.27-1.92,13.19,13.19,0,0,1,.14-2.33,6.7,6.7,0,0,0-.16-1.5A4.19,4.19,0,0,0,269,299.21Z" transform="translate(-30.11 -112.58)"/><path d="M213.24,316.12a1,1,0,0,1-.46-.29.65.65,0,0,1-.15-.41.63.63,0,0,1,.15-.41.86.86,0,0,1,.46-.26c1.16.07,2.3.18,3.43.31a1.26,1.26,0,0,1,.65-.64.67.67,0,0,1,.85.91,20,20,0,0,1,2.72.72c.48.16,1,.32,1.41.49a6.19,6.19,0,0,1,1.31.66c.39.25.78.49,1.19.72a3.43,3.43,0,0,1,1,.88l1.43,1.8a2.12,2.12,0,0,1,.43,1.14,12.82,12.82,0,0,0,.15,1.28,4.13,4.13,0,0,1-.15,2.12,7.88,7.88,0,0,1-1.07,2,14,14,0,0,1-1.67,1.89c-.64.6-1.28,1.17-1.94,1.72s-1.3,1.05-1.92,1.53-1.15.92-1.58,1.32a.7.7,0,0,1-.53.22.72.72,0,0,1-.44-.18.65.65,0,0,1-.2-.44.86.86,0,0,1,.18-.55c.55-.5,1.21-1,2-1.63s1.54-1.22,2.31-1.9A23,23,0,0,0,225,327a7.31,7.31,0,0,0,1.41-2.33,4.34,4.34,0,0,0,.14-2.45,5.13,5.13,0,0,0-1.69-2.52,12.63,12.63,0,0,0-1.93-1.32,15.82,15.82,0,0,0-2.38-1c-.91-.29-1.75-.53-2.52-.71a.22.22,0,0,1-.1,0l-.1,0,.2,1.06a.68.68,0,0,0,0-.14.57.57,0,0,1,0-.13q0-.14,0,.12a3.62,3.62,0,0,0,.07.39l.24,1.93c0,.66.08,1.3.1,1.93a18.45,18.45,0,0,1,0,2c0,1.63-.13,3.25-.25,4.85s-.21,3.21-.26,4.84a1,1,0,0,1-.23.48.57.57,0,0,1-.39.17.74.74,0,0,1-.43-.16.89.89,0,0,1-.31-.42c0-1.14.08-2.27.17-3.4s.17-2.26.24-3.38.12-2.25.14-3.39,0-2.26-.1-3.4c0-.34-.15-.85-.29-1.53a9.28,9.28,0,0,1-.22-2,12,12,0,0,0-1.45-.17Z" transform="translate(-30.11 -112.58)"/><path d="M233,326.89a.08.08,0,0,0,.07,0,2.24,2.24,0,0,1,1.51.73,3.82,3.82,0,0,1,.9,1.58,4.66,4.66,0,0,1,.15,1.9,3.09,3.09,0,0,1-.73,1.7,1.7,1.7,0,0,1-.76.49,4.49,4.49,0,0,1-.95.21,6.55,6.55,0,0,1-1,0l-.87-.07a2.64,2.64,0,0,1-1.82-.72,2.81,2.81,0,0,1-.78-1.54,4.28,4.28,0,0,1,.12-1.87,4.72,4.72,0,0,1,.85-1.69,3,3,0,0,1,1.43-1A2.56,2.56,0,0,1,233,326.89Zm-.54,1.46a.62.62,0,0,1-.58.06.7.7,0,0,1-.34-.36,1.5,1.5,0,0,0-.9.63,3.11,3.11,0,0,0-.51,1.09,2.66,2.66,0,0,0-.07,1.15,1.07,1.07,0,0,0,.46.8,2.54,2.54,0,0,0,1.26.44,5.82,5.82,0,0,0,1.32,0,1.35,1.35,0,0,0,1-.58,1.67,1.67,0,0,0,.27-1.08,3.31,3.31,0,0,0-.3-1.21,2.06,2.06,0,0,0-.72-.9.65.65,0,0,0-.27-.14h-.2A1.21,1.21,0,0,0,232.42,328.35Z" transform="translate(-30.11 -112.58)"/><path d="M233.71,324.68a.92.92,0,0,1-.46-.29.59.59,0,0,1,0-.81.77.77,0,0,1,.46-.26c.59,0,1.18,0,1.78-.07s1.2-.1,1.79-.17l.13-4.28a.92.92,0,0,1,.22-.54.61.61,0,0,1,.87-.07.82.82,0,0,1,.27.54l-.13,4.22,2-.1a.76.76,0,0,1,.54.23.72.72,0,0,1,.17.45.62.62,0,0,1-.19.44.85.85,0,0,1-.52.24l-2.11.1c0,1.54,0,3.06,0,4.57a35.07,35.07,0,0,0,.45,4.54.8.8,0,0,1-.11.58.67.67,0,0,1-.38.25.6.6,0,0,1-.46-.08.91.91,0,0,1-.37-.44,39.14,39.14,0,0,1-.46-4.65c-.06-1.52-.06-3.07,0-4.64-.59.07-1.18.13-1.77.17S234.3,324.68,233.71,324.68Z" transform="translate(-30.11 -112.58)"/><path d="M246.52,329.65a1.93,1.93,0,0,1-.91.39,8.5,8.5,0,0,1-1.14.08h-1.21a4.89,4.89,0,0,0-1.16.08.86.86,0,0,1-.54.2h-.1a3,3,0,0,0,.88,1.48,2.31,2.31,0,0,0,1.63.6,4.09,4.09,0,0,0,1.28-.19,8.87,8.87,0,0,0,1.17-.46c.05,0,.1,0,.17-.1a1.21,1.21,0,0,1,.38-.48.5.5,0,0,1,.2-.08.69.69,0,0,0,.17-.05l.49.32.46.32a1.45,1.45,0,0,1-.78,1,6.3,6.3,0,0,1-1.62.73,7.57,7.57,0,0,1-1.8.32,2.53,2.53,0,0,1-1.34-.18,6.69,6.69,0,0,1-1.55-1.09,3.89,3.89,0,0,1-.88-1.26,4.21,4.21,0,0,1-.32-1.49,9,9,0,0,1,.13-1.87,2.53,2.53,0,0,1,.48-1.23,2.47,2.47,0,0,1,.9-.71,3.13,3.13,0,0,1,1.15-.27,5.79,5.79,0,0,1,1.25.06,1.7,1.7,0,0,1,1,.51,7.74,7.74,0,0,0,.9.82,2.85,2.85,0,0,1,.51.49,2.92,2.92,0,0,1,.42.68,1.54,1.54,0,0,1,.14.72A.87.87,0,0,1,246.52,329.65Zm-3-2.52a1.37,1.37,0,0,0-.89-.15,1.06,1.06,0,0,0-.63.39,2.33,2.33,0,0,0-.4.73,3.7,3.7,0,0,0-.22.87,3.57,3.57,0,0,1,1-.21l1,0h1a5.38,5.38,0,0,0,1-.1,2.3,2.3,0,0,0-.37-.43,5.17,5.17,0,0,0-.51-.42c-.18-.14-.37-.26-.55-.38Z" transform="translate(-30.11 -112.58)"/><path d="M249.38,326.35a1,1,0,0,1,0-.55.57.57,0,0,1,.26-.34.87.87,0,0,1,.44-.08.78.78,0,0,1,.49.22l.26.44c.08.14.15.29.22.44a2.68,2.68,0,0,1,.51-.68,5.4,5.4,0,0,1,1.46-1,2.39,2.39,0,0,1,1.33-.2,1.59,1.59,0,0,1,1,.65,3.53,3.53,0,0,1,.63,1.56.76.76,0,0,1-.12.58.62.62,0,0,1-.37.25.6.6,0,0,1-.46-.08.91.91,0,0,1-.37-.44c-.16-.73-.41-1.14-.75-1.24s-.8.19-1.39.9a4.57,4.57,0,0,0-.63,1.08,9.9,9.9,0,0,0-.43,1.3c0,.38,0,.77,0,1.15a7.51,7.51,0,0,0,.05,1.16c0,.34.08.66.12,1a4.24,4.24,0,0,1,0,1l-.68,0-.68.05a7.26,7.26,0,0,1-.27-1.92,13.19,13.19,0,0,1,.14-2.33,6.7,6.7,0,0,0-.16-1.5A4.19,4.19,0,0,0,249.38,326.35Z" transform="translate(-30.11 -112.58)"/><path d="M256.86,326.35a1,1,0,0,1,0-.55.57.57,0,0,1,.26-.34.87.87,0,0,1,.44-.08.8.8,0,0,1,.49.22l.26.44c.08.14.15.29.22.44a2.68,2.68,0,0,1,.51-.68,5.4,5.4,0,0,1,1.46-1,2.39,2.39,0,0,1,1.33-.2,1.61,1.61,0,0,1,1,.65,3.53,3.53,0,0,1,.63,1.56.76.76,0,0,1-.12.58.62.62,0,0,1-.37.25.6.6,0,0,1-.46-.08.91.91,0,0,1-.37-.44c-.16-.73-.41-1.14-.75-1.24s-.81.19-1.39.9a4.57,4.57,0,0,0-.63,1.08,8.61,8.61,0,0,0-.43,1.3c0,.38,0,.77,0,1.15a7.51,7.51,0,0,0,.05,1.16c0,.34.08.66.12,1a4.24,4.24,0,0,1,0,1l-.68,0-.68.05a7.26,7.26,0,0,1-.27-1.92,13.19,13.19,0,0,1,.14-2.33,7.33,7.33,0,0,0-.16-1.5A4.19,4.19,0,0,0,256.86,326.35Z" transform="translate(-30.11 -112.58)"/><path d="M265.36,327.71a1,1,0,0,1-.46.39.56.56,0,0,1-.46,0,.65.65,0,0,1-.32-.35.82.82,0,0,1,0-.6,3.3,3.3,0,0,1,1.1-1.07,3.67,3.67,0,0,1,1.4-.49,4.42,4.42,0,0,1,1.49.05,4.76,4.76,0,0,1,1.41.52,1.24,1.24,0,0,1,.53.51l.39.68a4.18,4.18,0,0,1,.53,1.21,8.61,8.61,0,0,1,.25,1.45,14.86,14.86,0,0,1,.07,1.49v1.33l-1.29.3a.13.13,0,0,0-.07,0V333l-.07-.13a.71.71,0,0,1-.4.3,6,6,0,0,1-2.26.31,3.65,3.65,0,0,1-1.89-.56,1.59,1.59,0,0,1-.73-1.35,3.05,3.05,0,0,1,1.2-2,1.75,1.75,0,0,1,.92-.43,3.26,3.26,0,0,1,1.12,0,4.67,4.67,0,0,1,1.11.37,3.72,3.72,0,0,1,.9.6,6.42,6.42,0,0,0-.54-2.11,1.83,1.83,0,0,0-.75-.89,2.49,2.49,0,0,0-1.09-.34,2.78,2.78,0,0,0-1.16.19A1.93,1.93,0,0,0,265.36,327.71Zm3.67,4.18a.58.58,0,0,1,.41,0,2,2,0,0,0-.38-.54,2.32,2.32,0,0,0-1.09-.77,1.76,1.76,0,0,0-1,0,1.3,1.3,0,0,0-.68.41.89.89,0,0,0-.26.59.6.6,0,0,0,.34.51,2,2,0,0,0,1.09.17,5,5,0,0,0,.78-.1Zm2.07.54c0,.12.06.11,0,0Z" transform="translate(-30.11 -112.58)"/></g></svg>