<svg id="Layer_1" data-name="Layer 1" xmlns="http://www.w3.org/2000/svg" viewBox="0 0 400 332.88"><defs><style>.cls-1{font-size:100px;fill:#1d1d1b;font-family:Makinas-Scrap-5-83pv-RKSJ-H, Makinas;}</style></defs><title>Artboard 1</title><path d="M85.07,105.58c7.63.38,15.9.8,24.64,1s18,.68,27.51.83,19.39.47,29.41.55l30.37.2,30.37-.18c10,0,19.87-.37,29.41-.54s18.76-.51,27.51-.82,17-.66,24.64-1c15.26-.72,28-1.62,36.89-2.3s14-1.22,14-1.22-5.09-.54-14-1.22-21.63-1.58-36.89-2.3c-7.63-.39-15.9-.79-24.64-1.06s-18-.66-27.51-.81-19.39-.49-29.41-.55l-16.17-.09C220,87,231.55,71.8,231.55,54c0-28.22-29.05-50-30.29-50.91L197,0l-4.22,3.12C191.59,4,162.53,25.81,162.53,54c0,17.78,11.53,33,20.37,42.05l-16.27.1c-10,.09-19.87.38-29.41.56s-18.76.53-27.51.82-17,.68-24.64,1c-15.26.72-28,1.6-36.89,2.28s-14,1.21-14,1.21,5.09.53,14,1.2S69.81,104.86,85.07,105.58Zm112-87.51c8,7.25,20.26,21.39,20.26,36,0,12.38-8.42,23.8-15.4,31.14L197,54l-4.89,31.14c-7-7.34-15.4-18.76-15.4-31.14C176.75,38.46,190.07,24.39,197.08,18.07Z"/><path d="M148.69,80.26c.66-.68,3.92-7.14-5.35-16.46s-28.21-17.29-28.21-17.29,7.88,19,17.14,28.29S148.05,80.93,148.69,80.26Z"/><path d="M261.73,74.8c9.27-9.32,17.13-28.3,17.13-28.3s-18.93,8-28.2,17.3-6,15.81-5.36,16.45S252.46,84.13,261.73,74.8Z"/><path d="M308.93,238.47c-7.63-.41-15.9-.9-24.64-1.19s-18-.77-27.51-1-19.39-.46-29.41-.6-20.19-.21-30.37-.23c-20.35,0-40.7.23-59.78.74-9.54.23-18.76.61-27.51,1s-17,.75-24.64,1.21-14.63.88-20.83,1.34-11.61.91-16.06,1.3c-8.9.78-14,1.4-14,1.4s5.09.62,14,1.41c4.45.38,9.86.88,16.06,1.29s13.2,1,20.83,1.35,15.9.9,24.64,1.2,18,.75,27.51,1c19.08.51,39.43.75,59.78.75,10.18,0,20.35-.08,30.37-.23s19.87-.32,29.41-.61,18.76-.65,27.51-1,17-.78,24.64-1.2c15.26-.82,28-1.82,36.89-2.59s14-1.37,14-1.37-5.09-.59-14-1.36S324.19,239.3,308.93,238.47Z"/><path d="M170,270.12c-4.18.28-9.31,1.25-12.39,3.35-6.15,4.1-3.48,10.53-3,11.34a8.48,8.48,0,0,0,11.67,1.64c3.11-2.12,5.7-6.09,7.72-9.63,2-3.35,3.55-6.43,3.55-6.43A46.39,46.39,0,0,0,170,270.12Z"/><path d="M188.63,312.83c-.13,17,6.71,20.07,7.64,20.05s7.83-2.92,8-19.93-7.48-41.68-7.48-41.68S188.77,295.81,188.63,312.83Z"/><path d="M236.4,273.47c-3.08-2.1-8.2-3.07-12.39-3.35a47,47,0,0,0-7.55.28s1.52,3.07,3.55,6.43c2,3.53,4.61,7.5,7.72,9.62a8.47,8.47,0,0,0,11.67-1.63C239.86,284,242.56,277.57,236.4,273.47Z"/><text class="cls-1" transform="translate(0 208.99)">常見問答</text></svg>