<svg xmlns="http://www.w3.org/2000/svg" viewBox="0 0 651.3 615.71"><defs><style>.cls-1{fill:#2b292a;}</style></defs><title>referral_title</title><g id="OBJECTS"><path class="cls-1" d="M665.07,339.08,530.17,572.73a61.43,61.43,0,0,1-53,30.63H207.32a61.41,61.41,0,0,1-53-30.63L73.4,432.65c-1.12,1.11-2.22,2.18-3.3,3.19-.44.41-.88.78-1.32,1.16a51.56,51.56,0,0,1-4.91,3.84l79.71,138.07a73.81,73.81,0,0,0,63.74,36.8h269.8a73.81,73.81,0,0,0,63.75-36.8l134.9-233.65" transform="translate(-24.47)"/><path class="cls-1" d="M207.32,576.24h269.8a34.21,34.21,0,0,0,29.56-17.07l123.55-214c-1.34-.08-2.66-.19-4-.34-1.06-.13-2.13-.25-3.17-.42l-.66-.14-122,211.28A27,27,0,0,1,477.12,569H207.32A27,27,0,0,1,184,555.57L108.64,425.16,106.12,428l-2.54,2.82,74.18,128.36A34.23,34.23,0,0,0,207.32,576.24Z" transform="translate(-24.47)"/><path class="cls-1" d="M500.44,61.34l58.69,100.95.39.1a32.54,32.54,0,0,1,5.24,2.43,31.72,31.72,0,0,1,3.76,2.48c.36-.43.74-.82,1.11-1.25L506.68,57.74a34.21,34.21,0,0,0-29.56-17.07H207.32a34.22,34.22,0,0,0-29.55,17.06L81.11,225.14c1.2.35,2.34.76,3.48,1.18s2.26.89,3.36,1.39L184,61.34a27,27,0,0,1,23.31-13.47h269.8A27,27,0,0,1,500.44,61.34Z" transform="translate(-24.47)"/><polygon class="cls-1" points="234.62 509.5 227.76 495.6 220.89 509.5 205.54 511.74 216.65 522.56 214.03 537.85 227.76 530.63 241.49 537.85 238.86 522.56 249.97 511.74 234.62 509.5"/><polygon class="cls-1" points="321.13 508.65 313.46 493.1 305.78 508.65 288.62 511.15 301.04 523.25 298.11 540.35 313.46 532.27 328.81 540.35 325.88 523.25 338.3 511.15 321.13 508.65"/><polygon class="cls-1" points="401.82 509.5 394.95 495.6 388.09 509.5 372.74 511.74 383.85 522.56 381.23 537.85 394.95 530.63 408.68 537.85 406.06 522.56 417.17 511.74 401.82 509.5"/><path class="cls-1" d="M311.74,162.83,307,153.94a34.58,34.58,0,0,1,0-32.61l5-9.34a18.7,18.7,0,0,1,3-4.14C296.17,95.72,264,78.67,249.78,80.31c-21.93,2.49-17.4,119-6.95,119.23,19.64.41,52.4-19.22,72.36-32.09A18.32,18.32,0,0,1,311.74,162.83Z" transform="translate(-24.47)"/><path class="cls-1" d="M438.93,80.31c-14.21-1.64-46.21,15.32-65,27.44A18.76,18.76,0,0,1,377,112l4.75,8.89a34.58,34.58,0,0,1,0,32.61l-5,9.34a18.75,18.75,0,0,1-3.35,4.53c19.94,12.88,52.81,32.59,72.5,32.18C456.33,199.32,460.86,82.8,438.93,80.31Z" transform="translate(-24.47)"/><path class="cls-1" d="M369.16,158.91l5-9.43a26.1,26.1,0,0,0,0-24.58l-4.81-9a11.06,11.06,0,0,0-2.7-3.26,11.19,11.19,0,0,0-7.35-2.62H329.62a11.18,11.18,0,0,0-7.46,2.72,10.78,10.78,0,0,0-2.61,3.16l-5,9.44a25.91,25.91,0,0,0-3.07,11.81v.5a26,26,0,0,0,3.07,12.27l4.81,9a11.29,11.29,0,0,0,10.06,5.89h29.71a11.22,11.22,0,0,0,6.91-2.26A11.43,11.43,0,0,0,369.16,158.91Z" transform="translate(-24.47)"/><path class="cls-1" d="M41.79,229.58c3.07-1.28,6.1-2.42,9.08-3.38s5.72-1.73,8.5-2.37L163.78,43a61.44,61.44,0,0,1,53.05-30.63h269.8a61.44,61.44,0,0,1,53,30.63L600.14,146c.26-.17.51-.37.77-.54,1.49-1,3-1.87,4.48-2.73,1.82-1,3.64-2,5.46-2.89L550.37,36.8A73.8,73.8,0,0,0,486.63,0H216.83a73.8,73.8,0,0,0-63.74,36.8L41.79,229.58" transform="translate(-24.47)"/></g><g id="Layer_2" data-name="Layer 2"><path class="cls-1" d="M148.44,352.6l-22.9,3.94v46.83l-78,13.42V370l-23.07,4,53.2-40.49-19.8-20.87L46.68,330l-15.5,2.67,28.93-48.89,65.94-11.34-28.92,57Zm-28.76,3.74L87.83,341.68l-34.61,26.1Zm-8.09,36.34V370.82l-50.11,8.62v21.87ZM66.82,296.05l-1,2.58,20.83,22.94L103,289.83Z" transform="translate(-24.47)"/><path class="cls-1" d="M321.13,267.1l-67.49,11.61v18.94l56-9.63-2.07,83.18-13.6,2.34L295.65,304l-43.22,7.44-19.28,65.48-14.29,2.45L240,307.05v-26l-44.59,7.67V275l56-9.63V247.76l13.77-2.37V263l56-9.63Z" transform="translate(-24.47)"/><path class="cls-1" d="M388.28,221.8v25.13l15-2.57v12.91l-15,2.58V285l12.4-7.82V291l-12.4,8v61.3l-12.74,2.19V306.81l-14.29,9V301.86L375.54,293V262l-14.29,2.46V251.58l14.29-2.45V224Zm79.9,86.8v21l29.61-5.1v12.92l-77.48,13.16v-83l-13.43,2.31,22-51.32,13.77-2.37L432,241.48l23.42-4,10.5-25.23,14.12-2.43-10.85,25.29,28.58-4.92V242.9L468.18,248v17.9l25.65-4.41v12.57l-25.65,4.41v17.22l25.65-4.41v12.91Zm-12.4-58.47-22.9,3.94V272l22.9-3.94Zm0,47.69V280.6l-22.9,3.94v17.22Zm-22.9,16.86v20.83l22.9-3.94V310.74Z" transform="translate(-24.47)"/><path class="cls-1" d="M610.22,204.61V212l56.14-9.66v12l-40.12,6.91v7.05l29.44-5.06v28.58l-66.46,11.44-.86,5.48,70.25-12.09v11.37l-72.32,12.44-1,6L666,272.67l-.52,36.59-11.88,2,.52-24.88L571,300.73l6-35.3-15.84,2.73V257.65l17.91-3.08v-7.4l-17.91,3.08V239.57l17.91-3.08v-7.06l-24.28,4.18v17l-7.23,79.58-12.23,2.11,7.41-80.48V223.63l55.79-9.6v-7.4Zm22.39-19,36.16-6.22v12.22l-36.16,6.23v5.68l-12.23,2.1v-5.68L584.91,206v5.68l-12.22,2.11v-5.68l-36.16,6.22V202.14l36.16-6.22v-5.85L584.91,188v5.86l35.47-6.11v-5.85l12.23-2.1ZM558.05,326.2l4.14-18.1,12-2.08-4.13,18.1Zm25.31-21.75,11.71-2,1.21,16.49-11.71,2Zm30.65-74v-7.06l-22.73,3.91v7.06Zm-22.73,14.58v7.41L614,248.56v-7.41Zm14.3,55.57,11.88-2,3.09,13.06-11.88,2.05Zm39.6-64.84-18.94,3.26v7.4l18.94-3.25Zm-17.57,61,12.23-2.11,3.27,10.12L630.71,307Z" transform="translate(-24.47)"/><path class="cls-1" d="M206.62,424v13.25h15.32V424h4.14v31.67h-4.14V440.8H206.62v14.85h-4.08V424Z" transform="translate(-24.47)"/><path class="cls-1" d="M237.26,424v31.67h-4.09V424Z" transform="translate(-24.47)"/><path class="cls-1" d="M268.51,454.24a29.43,29.43,0,0,1-9.73,1.74c-4.79,0-8.74-1.22-11.84-4.18-2.72-2.63-4.42-6.86-4.42-11.8,0-9.44,6.54-16.35,17.16-16.35a19.73,19.73,0,0,1,7.89,1.45l-1,3.34a16.51,16.51,0,0,0-7-1.36c-7.7,0-12.73,4.79-12.73,12.73s4.84,12.79,12.22,12.79a13.3,13.3,0,0,0,5.45-.85v-9.44h-6.44V439h10.43Z" transform="translate(-24.47)"/><path class="cls-1" d="M278.85,424v13.25h15.32V424h4.14v31.67h-4.14V440.8H278.85v14.85h-4.09V424Z" transform="translate(-24.47)"/><path class="cls-1" d="M341.49,460.31c-4.28-1.13-8.46-2.4-12.13-3.67a5.86,5.86,0,0,0-1.92-.47c-7.52-.28-14-5.83-14-16s6.2-16.68,14.76-16.68,14.19,6.67,14.19,16c0,8.13-3.76,13.34-9,15.18v.18c3.15.8,6.58,1.55,9.25,2Zm-3.38-20.64c0-6.34-3.29-12.87-10-12.87-6.91,0-10.3,6.39-10.25,13.25s3.67,12.78,10.06,12.78S338.11,446.91,338.11,439.67Z" transform="translate(-24.47)"/><path class="cls-1" d="M351.82,424v18.75c0,7.09,3.15,10.1,7.38,10.1,4.7,0,7.71-3.1,7.71-10.1V424h4.14v18.47c0,9.73-5.13,13.72-12,13.72-6.48,0-11.37-3.71-11.37-13.54V424Z" transform="translate(-24.47)"/><path class="cls-1" d="M381.66,445.69l-3.29,10h-4.23L384.91,424h4.93l10.81,31.67h-4.37l-3.38-10Zm10.39-3.2-3.1-9.11c-.71-2.07-1.18-3.95-1.65-5.78h-.09c-.47,1.88-1,3.8-1.6,5.73l-3.1,9.16Z" transform="translate(-24.47)"/><path class="cls-1" d="M405.3,424h4.09v28.24h13.53v3.43H405.3Z" transform="translate(-24.47)"/><path class="cls-1" d="M431.57,424v31.67h-4.09V424Z" transform="translate(-24.47)"/><path class="cls-1" d="M444.73,427.45h-9.64V424h23.45v3.47h-9.68v28.2h-4.13Z" transform="translate(-24.47)"/><path class="cls-1" d="M470.43,455.65V442.21l-10-18.23h4.65l4.47,8.74c1.22,2.39,2.16,4.32,3.14,6.53h.1c.89-2.07,2-4.14,3.19-6.53l4.56-8.74h4.66l-10.63,18.18v13.49Z" transform="translate(-24.47)"/></g></svg>